<svg width="256" height="256" viewBox="0 0 256 256" fill="none" xmlns="http://www.w3.org/2000/svg">
<path d="M0 113.778C0 60.1424 0 33.3247 16.6624 16.6624C33.3247 0 60.1424 0 113.778 0H142.222C195.858 0 222.675 0 239.338 16.6624C256 33.3247 256 60.1424 256 113.778V142.222C256 195.858 256 222.675 239.338 239.338C222.675 256 195.858 256 142.222 256H113.778C60.1424 256 33.3247 256 16.6624 239.338C0 222.675 0 195.858 0 142.222V113.778Z" fill="#FE435E"/>
<path d="M164.052 153.133L164.216 153.284C169.684 158.283 179.904 160.304 189.899 159.149C189.989 159.909 190.049 160.669 190.049 161.428C190.049 171.532 182.13 179.661 172.299 179.661C170.387 179.661 168.489 179.357 166.846 178.825C165.202 187.257 158.105 193.715 149.365 193.715C139.549 193.715 131.63 185.814 131.63 175.71H131.354V77.4912C131.63 71.8696 137.629 64.5767 145.278 64.5767C151.255 64.5767 156.409 69.3475 158.352 74.9615C160.219 73.8448 162.461 73.2902 164.851 73.2902C172.471 73.2902 178.746 79.7475 178.746 87.595C178.746 88.7345 178.597 89.874 178.373 90.9603L178.074 91.4921C177.252 92.9355 176.356 94.3561 175.31 95.6704C173.233 98.314 171.126 100.107 169.184 100.715C168.556 100.897 167.914 101.019 167.212 101.064C164.971 101.216 162.408 100.608 159.816 99.5067C158.994 99.1497 158.202 98.7699 157.515 98.39C157.104 98.2381 156.843 98.0102 156.731 98.0102L152.697 104.771C152.921 104.923 153.369 105.204 153.892 105.516C154.788 106.017 155.797 106.503 156.88 106.959C160.466 108.479 164.104 109.314 167.675 109.086C168.945 109.01 170.14 108.782 171.335 108.403C175.033 107.263 178.283 104.528 181.196 100.73C182.466 99.0965 183.587 97.3568 184.558 95.6172L184.655 95.4956C189.347 97.7975 192.626 102.743 192.626 108.41C192.626 112.338 190.983 115.984 188.517 118.514C194.793 121.325 199.439 127.782 199.439 135.356C199.439 143.128 194.658 149.623 188.532 152.145C180.39 153.003 172.247 151.362 168.534 147.99C166.913 146.47 165.621 144.875 164.612 143.128C162.042 138.767 161.504 134.11 162.117 130.038C162.192 129.544 162.266 129.225 162.281 129.127L155.633 127.227C155.558 127.607 155.408 128.169 155.311 128.937C154.49 134.482 155.199 140.727 158.643 146.683C153.376 147.929 149.186 150.709 146.018 154.561C144.472 156.414 143.284 158.435 142.432 160.41C141.872 161.641 141.536 162.636 141.386 163.297L148.035 165.067L148.14 164.725C148.289 164.315 148.438 163.89 148.663 163.373C149.313 161.93 150.157 160.486 151.262 159.157C154.176 155.617 158.21 153.406 163.79 153.102L164.052 153.133ZM95.4955 109.527C93.7549 109.58 91.947 109.398 90.0794 108.972C84.5214 107.704 80.1587 105.022 76.9165 101.353C75.273 99.5295 74.003 97.4784 73.1066 95.5032L72.9721 95.1994C67.9893 97.4024 64.4558 102.492 64.4558 108.418C64.4558 112.368 66.0993 116.015 68.5646 118.522C62.3043 121.325 57.6577 127.782 57.6577 135.379C57.6577 143.507 62.8422 150.269 69.3863 152.494C68.0267 155.305 67.2199 158.39 67.2199 161.481C67.2199 171.585 75.1236 179.759 84.9547 179.759C86.5833 179.759 88.2193 179.547 89.6835 179.152C99.903 174.768 104.154 165.857 99.5893 155.184C98.0429 151.598 95.8167 149.213 93.0452 147.739C90.2214 146.25 87.1958 145.84 84.6932 146.068L84.3944 146.098L83.3486 138.881C83.498 138.881 83.7221 138.805 84.0956 138.805C87.7561 138.501 92.089 139.033 96.1977 141.236C100.381 143.439 103.743 147.085 105.984 152.251C112.184 166.761 106.133 179.6 92.9854 185.601C96.1977 190.463 101.651 193.73 107.852 193.73C117.638 193.73 125.557 185.905 125.557 175.801H125.825V77.4912C125.639 71.8696 119.618 64.5767 111.968 64.5767C105.969 64.5767 100.785 69.3475 98.8721 74.9615C96.9672 73.8448 94.7783 73.2902 92.3206 73.2902C84.6783 73.2902 78.4031 79.7475 78.4031 87.595C78.4031 88.6813 78.5301 89.76 78.7542 90.816L78.8289 90.7932C78.8887 91.0211 79.0755 91.6289 79.4266 92.3885C80.0616 93.8319 80.9207 95.1994 82.0786 96.4908C84.3197 99.0737 87.4573 100.973 91.566 101.961C96.4965 103.1 100.755 101.733 104.415 98.5419C105.386 97.7063 106.283 96.7947 106.955 95.8831C107.329 95.3513 107.627 94.9715 107.702 94.8195L113.604 98.6939C113.342 99.1269 112.931 99.7574 112.297 100.517C111.303 101.786 110.13 103.024 108.785 104.164C107.754 105.075 106.694 105.835 105.573 106.519C107.814 107.962 109.831 109.633 111.572 111.456C113.664 113.736 115.307 116.091 116.555 118.597C117.003 119.433 117.354 120.193 117.675 120.998L117.937 121.659C117.765 121.31 117.653 121.127 117.279 120.725L112.349 125.86C111.774 125.252 110.653 122.517 110.369 121.986C109.413 120.086 108.165 118.263 106.559 116.516C103.72 113.477 100.03 111.122 95.3535 109.74L95.376 109.664L95.4955 109.527Z" fill="white"/>
</svg>
