<svg xmlns="http://www.w3.org/2000/svg" width="100%" height="100%" viewBox="0 0 100 36" fill="none" preserveAspectRatio="xMidYMid meet" aria-hidden="true" role="img">
<rect width="100" height="36" rx="18" fill="currentColor"/>
<path d="M38.2908 30H33.4277L22.6283 13.1301V30H18V6.22119H23.7686L33.6625 21.9507V6.22119H38.2908V30Z" fill="white"/>
<path d="M44.6856 19.8713H52.0641C52.0194 18.9546 51.684 18.1832 51.0579 17.5572C50.4542 16.9311 49.5599 16.6181 48.3748 16.6181C47.3016 16.6181 46.4296 16.9535 45.7588 17.6243C45.0881 18.295 44.7303 19.0441 44.6856 19.8713ZM52.5001 24.1643L56.2228 25.271C55.7757 26.7914 54.8925 28.0436 53.5733 29.0273C52.2765 30.0111 50.6555 30.503 48.7102 30.503C46.3402 30.503 44.3279 29.7093 42.6733 28.1218C41.0187 26.512 40.1915 24.3655 40.1915 21.6824C40.1915 19.1335 40.9964 17.0541 42.6062 15.4443C44.2161 13.8121 46.1166 12.996 48.3078 12.996C50.8567 12.996 52.8466 13.7562 54.2776 15.2766C55.7309 16.797 56.4576 18.8876 56.4576 21.5483C56.4576 21.7271 56.4464 21.9284 56.4241 22.152C56.4241 22.3756 56.4241 22.5544 56.4241 22.6886L56.3905 22.9233H44.585C44.6297 23.9966 45.0545 24.8909 45.8595 25.6064C46.6644 26.3219 47.6258 26.6797 48.7438 26.6797C50.6443 26.6797 51.8964 25.8412 52.5001 24.1643Z" fill="white"/>
<path d="M67.2208 13.499H71.9162L75.4713 24.1307L78.5233 13.499H82.9504L77.7854 30H73.3248L69.4679 18.731L65.6781 30H61.1504L55.8848 13.499H60.5802L63.6322 24.0972L67.2208 13.499Z" fill="white"/>
</svg>