<svg width="94" height="122" viewBox="0 0 94 122" fill="none" xmlns="http://www.w3.org/2000/svg">
<path d="M8.09998 89.9L47.6 110L85.6 89.9V11.3H8.09998V89.9Z" fill="white"/>
<path d="M86.4 11.6L7.30005 91.3L48.3 111.6L86.4 92.1V11.6Z" fill="#F2F3F2"/>
<path d="M5.5 37.5V91.6L6.9 92.3L46.4 112.4L47.6 113L48.8 112.4L86.9 92.3L88.3 91.6V8.70001H5.5V37.5ZM8.1 90.1V11.3H85.7V90.1L47.6 110.2L8.1 90.1Z" fill="#DCDEDC"/>
<path d="M46.9001 12.6C47.3001 12.6 47.7 12.6 48.1 12.7L46.9001 15C45.1001 14.9 43.5001 16.3 43.4001 18.1C43.3001 19.9 44.7 21.5 46.5 21.6H46.9001C47.7001 21.6 48.5 21.3 49.1 20.8L50.4001 23C49.4001 23.7 48.2001 24.1 46.9001 24.1C43.7001 24.2 41.0001 21.8 40.9001 18.6C40.8001 15.4 43.2001 12.7 46.4001 12.6H46.9001ZM51 17.5L52.5 20L51 22.4L49.6 20H46.7001L48.2001 17.5H51ZM48.6 16.6C48.6 16.2 48.7001 15.8 48.9001 15.5C49.1001 15.2 49.5 14.9 49.8 14.7L50 14.6C50.4 14.4 50.5 14.3 50.5 14.1C50.5 13.9 50.2 13.7 50 13.7C49.6 13.7 49.3 13.9 49.1 14.3L48.6 13.8C48.7 13.6 48.9 13.4 49.1 13.2C49.4 13 49.7 13 50 13C50.3 13 50.7001 13.1 50.9001 13.3C51.1001 13.5 51.3 13.8 51.3 14.1C51.3 14.6 51.0001 15 50.4001 15.2L50.1 15.4C49.8 15.6 49.6 15.7 49.5 16H51.3V16.7L48.6 16.6ZM46.9001 29.1L56.4001 23.7V8.70001H37.3V23.6L46.9001 29.1Z" fill="#FF492C"/>
<path d="M90.2 64.5H3.60002L0.400024 71.5L3.60002 78.5H90.2L93.3 71.5L90.2 64.5Z" fill="#5A39A2"/>
<path d="M28.0799 60C27.9799 60 27.9099 59.9533 27.8699 59.86L25.9999 55.71C25.9799 55.67 25.9499 55.65 25.9099 55.65H24.5099C24.4633 55.65 24.4399 55.6767 24.4399 55.73V59.82C24.4399 59.8733 24.4233 59.9167 24.3899 59.95C24.3499 59.9833 24.3066 60 24.2599 60H22.4999C22.4533 60 22.4133 59.9833 22.3799 59.95C22.3399 59.9167 22.3199 59.8733 22.3199 59.82V49.68C22.3199 49.6333 22.3399 49.59 22.3799 49.55C22.4133 49.5167 22.4533 49.5 22.4999 49.5H26.7899C27.4299 49.5 27.9933 49.63 28.4799 49.89C28.9666 50.15 29.3433 50.52 29.6099 51C29.8699 51.48 29.9999 52.0367 29.9999 52.67C29.9999 53.35 29.8299 53.93 29.4899 54.41C29.1499 54.8967 28.6766 55.24 28.0699 55.44C28.0166 55.46 27.9999 55.4933 28.0199 55.54L30.0599 59.79C30.0866 59.83 30.0999 59.86 30.0999 59.88C30.0999 59.96 30.0433 60 29.9299 60H28.0799ZM24.5099 51.31C24.4633 51.31 24.4399 51.3367 24.4399 51.39V53.96C24.4399 54.0067 24.4633 54.03 24.5099 54.03H26.4799C26.8999 54.03 27.2433 53.9067 27.5099 53.66C27.7766 53.4067 27.9099 53.08 27.9099 52.68C27.9099 52.28 27.7766 51.9533 27.5099 51.7C27.2433 51.44 26.8999 51.31 26.4799 51.31H24.5099ZM38.1199 55.35C38.1799 55.73 38.1999 56.1533 38.1799 56.62C38.1666 56.7467 38.0999 56.81 37.9799 56.81H33.3499C33.2899 56.81 33.2699 56.8333 33.2899 56.88C33.3166 57.08 33.3699 57.28 33.4499 57.48C33.7099 58.04 34.2399 58.32 35.0399 58.32C35.6799 58.3133 36.1866 58.0533 36.5599 57.54C36.5999 57.48 36.6433 57.45 36.6899 57.45C36.7233 57.45 36.7599 57.47 36.7999 57.51L37.8799 58.57C37.9266 58.6233 37.9499 58.67 37.9499 58.71C37.9499 58.73 37.9299 58.77 37.8899 58.83C37.5633 59.2433 37.1399 59.56 36.6199 59.78C36.0999 60.0067 35.5299 60.12 34.9099 60.12C34.0499 60.12 33.3233 59.9267 32.7299 59.54C32.1299 59.1467 31.6999 58.6 31.4399 57.9C31.2333 57.4 31.1299 56.7467 31.1299 55.94C31.1299 55.3867 31.2033 54.9 31.3499 54.48C31.5833 53.7733 31.9866 53.21 32.5599 52.79C33.1333 52.37 33.8166 52.16 34.6099 52.16C35.6099 52.16 36.4133 52.45 37.0199 53.03C37.6266 53.61 37.9933 54.3833 38.1199 55.35ZM34.6199 53.99C33.9933 53.99 33.5799 54.2833 33.3799 54.87C33.3399 55.0033 33.3033 55.1633 33.2699 55.35C33.2699 55.3967 33.2966 55.42 33.3499 55.42H35.9399C35.9999 55.42 36.0199 55.3967 35.9999 55.35C35.9533 55.0633 35.9299 54.9233 35.9299 54.93C35.8366 54.63 35.6799 54.3967 35.4599 54.23C35.2333 54.07 34.9533 53.99 34.6199 53.99ZM42.4499 60.1C41.7833 60.1 41.1999 60.0067 40.6999 59.82C40.1999 59.6333 39.8133 59.37 39.5399 59.03C39.2599 58.69 39.1199 58.3033 39.1199 57.87V57.72C39.1199 57.6733 39.1399 57.63 39.1799 57.59C39.2133 57.5567 39.2533 57.54 39.2999 57.54H40.9699C41.0166 57.54 41.0599 57.5567 41.0999 57.59C41.1333 57.63 41.1499 57.6733 41.1499 57.72V57.73C41.1499 57.9567 41.2733 58.1467 41.5199 58.3C41.7599 58.4533 42.0666 58.53 42.4399 58.53C42.7799 58.53 43.0533 58.4633 43.2599 58.33C43.4733 58.19 43.5799 58.0233 43.5799 57.83C43.5799 57.65 43.4899 57.5133 43.3099 57.42C43.1299 57.3333 42.8333 57.24 42.4199 57.14C41.9533 57.02 41.5833 56.9033 41.3099 56.79C40.6699 56.57 40.1599 56.3 39.7799 55.98C39.3999 55.66 39.2099 55.2 39.2099 54.6C39.2099 53.86 39.4999 53.2733 40.0799 52.84C40.6533 52.4067 41.4133 52.19 42.3599 52.19C42.9999 52.19 43.5599 52.29 44.0399 52.49C44.5199 52.6967 44.8933 52.9867 45.1599 53.36C45.4266 53.7267 45.5599 54.1467 45.5599 54.62C45.5599 54.6667 45.5433 54.7067 45.5099 54.74C45.4699 54.7733 45.4266 54.79 45.3799 54.79H43.7699C43.7233 54.79 43.6833 54.7733 43.6499 54.74C43.6099 54.7067 43.5899 54.6667 43.5899 54.62C43.5899 54.4 43.4799 54.2133 43.2599 54.06C43.0333 53.9067 42.7333 53.83 42.3599 53.83C42.0333 53.83 41.7633 53.8933 41.5499 54.02C41.3433 54.14 41.2399 54.3033 41.2399 54.51C41.2399 54.71 41.3433 54.86 41.5499 54.96C41.7499 55.06 42.0899 55.1667 42.5699 55.28L42.9499 55.37C43.0899 55.4033 43.2399 55.4467 43.3999 55.5C44.1066 55.7133 44.6666 55.9833 45.0799 56.31C45.4866 56.6433 45.6899 57.1233 45.6899 57.75C45.6899 58.49 45.3999 59.0667 44.8199 59.48C44.2333 59.8933 43.4433 60.1 42.4499 60.1ZM51.4099 52.47C51.4099 52.4233 51.4266 52.38 51.4599 52.34C51.4933 52.3067 51.5366 52.29 51.5899 52.29H53.3399C53.3933 52.29 53.4366 52.3067 53.4699 52.34C53.5033 52.38 53.5199 52.4233 53.5199 52.47V59.82C53.5199 59.8733 53.5033 59.9167 53.4699 59.95C53.4366 59.9833 53.3933 60 53.3399 60H51.5899C51.5366 60 51.4933 59.9833 51.4599 59.95C51.4266 59.9167 51.4099 59.8733 51.4099 59.82V59.31C51.4099 59.2833 51.3999 59.2667 51.3799 59.26C51.3599 59.2533 51.3399 59.2667 51.3199 59.3C50.9199 59.8333 50.2999 60.1 49.4599 60.1C48.6999 60.1 48.0733 59.8733 47.5799 59.42C47.0933 58.96 46.8499 58.3133 46.8499 57.48V52.47C46.8499 52.4233 46.8666 52.38 46.8999 52.34C46.9333 52.3067 46.9766 52.29 47.0299 52.29H48.7699C48.8166 52.29 48.8599 52.3067 48.8999 52.34C48.9333 52.38 48.9499 52.4233 48.9499 52.47V56.96C48.9499 57.36 49.0566 57.6833 49.2699 57.93C49.4833 58.1833 49.7799 58.31 50.1599 58.31C50.5066 58.31 50.7866 58.2067 50.9999 58C51.2199 57.7933 51.3566 57.5267 51.4099 57.2V52.47ZM55.2599 60C55.2133 60 55.1733 59.9833 55.1399 59.95C55.0999 59.9167 55.0799 59.8733 55.0799 59.82V49.68C55.0799 49.6333 55.0999 49.59 55.1399 49.55C55.1733 49.5167 55.2133 49.5 55.2599 49.5H57.0199C57.0666 49.5 57.1099 49.5167 57.1499 49.55C57.1833 49.59 57.1999 49.6333 57.1999 49.68V59.82C57.1999 59.8733 57.1833 59.9167 57.1499 59.95C57.1099 59.9833 57.0666 60 57.0199 60H55.2599ZM63.1699 53.81C63.1699 53.8567 63.1533 53.8967 63.1199 53.93C63.0799 53.97 63.0366 53.99 62.9899 53.99H61.5499C61.4966 53.99 61.4699 54.0133 61.4699 54.06V57.24C61.4699 57.5667 61.5399 57.8133 61.6799 57.98C61.8133 58.14 62.0299 58.22 62.3299 58.22H62.8199C62.8733 58.22 62.9166 58.2367 62.9499 58.27C62.9833 58.3033 62.9999 58.3467 62.9999 58.4V59.82C62.9999 59.9333 62.9399 59.9967 62.8199 60.01C62.3999 60.03 62.0999 60.04 61.9199 60.04C61.0933 60.04 60.4733 59.9033 60.0599 59.63C59.6533 59.3567 59.4433 58.84 59.4299 58.08V54.06C59.4299 54.0133 59.4066 53.99 59.3599 53.99H58.4999C58.4533 53.99 58.4133 53.97 58.3799 53.93C58.3399 53.8967 58.3199 53.8567 58.3199 53.81V52.47C58.3199 52.4233 58.3399 52.38 58.3799 52.34C58.4133 52.3067 58.4533 52.29 58.4999 52.29H59.3599C59.4066 52.29 59.4299 52.2633 59.4299 52.21V50.43C59.4299 50.3833 59.4499 50.34 59.4899 50.3C59.5233 50.2667 59.5633 50.25 59.6099 50.25H61.2899C61.3433 50.25 61.3866 50.2667 61.4199 50.3C61.4533 50.34 61.4699 50.3833 61.4699 50.43V52.21C61.4699 52.2633 61.4966 52.29 61.5499 52.29H62.9899C63.0366 52.29 63.0799 52.3067 63.1199 52.34C63.1533 52.38 63.1699 52.4233 63.1699 52.47V53.81ZM67.5199 60.1C66.8466 60.1 66.2599 60.0067 65.7599 59.82C65.2599 59.6333 64.8733 59.37 64.5999 59.03C64.3266 58.69 64.1899 58.3033 64.1899 57.87V57.72C64.1899 57.6733 64.2066 57.63 64.2399 57.59C64.2733 57.5567 64.3166 57.54 64.3699 57.54H66.0299C66.0833 57.54 66.1266 57.5567 66.16 57.59C66.1933 57.63 66.2099 57.6733 66.2099 57.72V57.73C66.2099 57.9567 66.3333 58.1467 66.5799 58.3C66.8266 58.4533 67.1333 58.53 67.4999 58.53C67.8399 58.53 68.1166 58.4633 68.3299 58.33C68.5366 58.19 68.6399 58.0233 68.6399 57.83C68.6399 57.65 68.5499 57.5133 68.3699 57.42C68.1899 57.3333 67.8966 57.24 67.4899 57.14C67.0166 57.02 66.6466 56.9033 66.3799 56.79C65.7399 56.57 65.2299 56.3 64.8499 55.98C64.4699 55.66 64.2799 55.2 64.2799 54.6C64.2799 53.86 64.5666 53.2733 65.1399 52.84C65.7133 52.4067 66.4766 52.19 67.4299 52.19C68.0699 52.19 68.6299 52.29 69.1099 52.49C69.5899 52.6967 69.9633 52.9867 70.2299 53.36C70.4899 53.7267 70.6199 54.1467 70.6199 54.62C70.6199 54.6667 70.6033 54.7067 70.5699 54.74C70.5366 54.7733 70.4933 54.79 70.4399 54.79H68.8399C68.7866 54.79 68.7433 54.7733 68.7099 54.74C68.6766 54.7067 68.66 54.6667 68.66 54.62C68.66 54.4 68.5466 54.2133 68.3199 54.06C68.0933 53.9067 67.7966 53.83 67.4299 53.83C67.0966 53.83 66.8266 53.8933 66.6199 54.02C66.4066 54.14 66.2999 54.3033 66.2999 54.51C66.2999 54.71 66.4033 54.86 66.6099 54.96C66.8166 55.06 67.1599 55.1667 67.6399 55.28C67.7466 55.3067 67.8699 55.3367 68.0099 55.37C68.1499 55.4033 68.2999 55.4467 68.4599 55.5C69.1733 55.7133 69.7333 55.9833 70.1399 56.31C70.5533 56.6433 70.7599 57.1233 70.7599 57.75C70.7599 58.49 70.4666 59.0667 69.8799 59.48C69.2933 59.8933 68.5066 60.1 67.5199 60.1ZM38.1699 39.53C38.1099 39.5567 38.1099 39.5867 38.1699 39.62C39.1166 40.1067 39.5899 40.92 39.5899 42.06C39.5899 43.0333 39.2599 43.7667 38.5999 44.26C37.9399 44.7533 37.0766 45 36.0099 45H32.1199C32.0733 45 32.0333 44.9833 31.9999 44.95C31.9599 44.9167 31.9399 44.8733 31.9399 44.82V34.68C31.9399 34.6333 31.9599 34.59 31.9999 34.55C32.0333 34.5167 32.0733 34.5 32.1199 34.5H35.8899C38.2566 34.5 39.4399 35.46 39.4399 37.38C39.4399 38.38 39.0166 39.0967 38.1699 39.53ZM34.1299 36.31C34.0833 36.31 34.0599 36.3367 34.0599 36.39V38.73C34.0599 38.7833 34.0833 38.81 34.1299 38.81H35.8899C36.3566 38.81 36.7233 38.7 36.9899 38.48C37.2433 38.26 37.3699 37.96 37.3699 37.58C37.3699 37.1867 37.2433 36.8767 36.9899 36.65C36.7233 36.4233 36.3566 36.31 35.8899 36.31H34.1299ZM36.0099 43.17C36.4699 43.17 36.8299 43.0533 37.0899 42.82C37.3499 42.5867 37.4799 42.2633 37.4799 41.85C37.4799 41.4433 37.3499 41.12 37.0899 40.88C36.8299 40.6467 36.4633 40.53 35.9899 40.53H34.1299C34.0833 40.53 34.0599 40.5567 34.0599 40.61V43.09C34.0599 43.1433 34.0833 43.17 34.1299 43.17H36.0099ZM47.9299 40.35C47.9899 40.73 48.0099 41.1533 47.9899 41.62C47.9833 41.7467 47.9199 41.81 47.7999 41.81H43.1599C43.0999 41.81 43.0799 41.8333 43.0999 41.88C43.1333 42.08 43.1899 42.28 43.2699 42.48C43.5299 43.04 44.0599 43.32 44.8599 43.32C45.4999 43.3133 46.0033 43.0533 46.3699 42.54C46.4099 42.48 46.4566 42.45 46.5099 42.45C46.5366 42.45 46.5699 42.47 46.6099 42.51L47.6899 43.57C47.7433 43.6233 47.7699 43.67 47.7699 43.71C47.7699 43.73 47.7499 43.77 47.7099 43.83C47.3766 44.2433 46.9499 44.56 46.4299 44.78C45.9166 45.0067 45.3466 45.12 44.7199 45.12C43.8599 45.12 43.1333 44.9267 42.5399 44.54C41.9466 44.1467 41.5199 43.6 41.2599 42.9C41.0466 42.4 40.9399 41.7467 40.9399 40.94C40.9399 40.3867 41.0166 39.9 41.1699 39.48C41.3966 38.7733 41.7999 38.21 42.3799 37.79C42.9533 37.37 43.6333 37.16 44.4199 37.16C45.4199 37.16 46.2233 37.45 46.8299 38.03C47.4366 38.61 47.8033 39.3833 47.9299 40.35ZM44.4399 38.99C43.8066 38.99 43.3899 39.2833 43.1899 39.87C43.1499 40.0033 43.1166 40.1633 43.0899 40.35C43.0899 40.3967 43.1133 40.42 43.1599 40.42H45.7599C45.8199 40.42 45.8399 40.3967 45.8199 40.35C45.7666 40.0633 45.7399 39.9233 45.7399 39.93C45.6533 39.63 45.4966 39.3967 45.2699 39.23C45.0433 39.07 44.7666 38.99 44.4399 38.99ZM52.2699 45.1C51.5966 45.1 51.0099 45.0067 50.5099 44.82C50.0099 44.6333 49.6233 44.37 49.3499 44.03C49.0766 43.69 48.9399 43.3033 48.9399 42.87V42.72C48.9399 42.6733 48.9566 42.63 48.9899 42.59C49.0233 42.5567 49.0666 42.54 49.1199 42.54H50.7799C50.8333 42.54 50.8766 42.5567 50.9099 42.59C50.9433 42.63 50.9599 42.6733 50.9599 42.72V42.73C50.9599 42.9567 51.0833 43.1467 51.3299 43.3C51.5766 43.4533 51.8833 43.53 52.2499 43.53C52.5899 43.53 52.8666 43.4633 53.0799 43.33C53.2866 43.19 53.3899 43.0233 53.3899 42.83C53.3899 42.65 53.2999 42.5133 53.1199 42.42C52.9399 42.3333 52.6466 42.24 52.2399 42.14C51.7666 42.02 51.3966 41.9033 51.1299 41.79C50.4899 41.57 49.9799 41.3 49.5999 40.98C49.2199 40.66 49.0299 40.2 49.0299 39.6C49.0299 38.86 49.3166 38.2733 49.8899 37.84C50.4633 37.4067 51.2266 37.19 52.1799 37.19C52.8199 37.19 53.3799 37.29 53.8599 37.49C54.3399 37.6967 54.7133 37.9867 54.9799 38.36C55.2399 38.7267 55.3699 39.1467 55.3699 39.62C55.3699 39.6667 55.3533 39.7067 55.3199 39.74C55.2866 39.7733 55.2433 39.79 55.1899 39.79H53.5899C53.5366 39.79 53.4933 39.7733 53.4599 39.74C53.4266 39.7067 53.4099 39.6667 53.4099 39.62C53.4099 39.4 53.2966 39.2133 53.0699 39.06C52.8433 38.9067 52.5466 38.83 52.1799 38.83C51.8466 38.83 51.5766 38.8933 51.3699 39.02C51.1566 39.14 51.0499 39.3033 51.0499 39.51C51.0499 39.71 51.1533 39.86 51.3599 39.96C51.5666 40.06 51.9099 40.1667 52.3899 40.28C52.4966 40.3067 52.6199 40.3367 52.7599 40.37C52.8999 40.4033 53.0499 40.4467 53.2099 40.5C53.9233 40.7133 54.4833 40.9833 54.8899 41.31C55.3033 41.6433 55.5099 42.1233 55.5099 42.75C55.5099 43.49 55.2166 44.0667 54.6299 44.48C54.0433 44.8933 53.2566 45.1 52.2699 45.1ZM61.1299 38.81C61.1299 38.8567 61.1133 38.8967 61.0799 38.93C61.0466 38.97 61.0033 38.99 60.9499 38.99H59.5099C59.4633 38.99 59.4399 39.0133 59.4399 39.06V42.24C59.4399 42.5667 59.5066 42.8133 59.6399 42.98C59.7733 43.14 59.9933 43.22 60.2999 43.22H60.7899C60.8366 43.22 60.8799 43.2367 60.9199 43.27C60.9533 43.3033 60.9699 43.3467 60.9699 43.4V44.82C60.9699 44.9333 60.9099 44.9967 60.7899 45.01C60.3699 45.03 60.0699 45.04 59.8899 45.04C59.0566 45.04 58.4366 44.9033 58.0299 44.63C57.6166 44.3567 57.4066 43.84 57.3999 43.08V39.06C57.3999 39.0133 57.3733 38.99 57.3199 38.99H56.4699C56.4166 38.99 56.3733 38.97 56.3399 38.93C56.3066 38.8967 56.2899 38.8567 56.2899 38.81V37.47C56.2899 37.4233 56.3066 37.38 56.3399 37.34C56.3733 37.3067 56.4166 37.29 56.4699 37.29H57.3199C57.3733 37.29 57.3999 37.2633 57.3999 37.21V35.43C57.3999 35.3833 57.4166 35.34 57.4499 35.3C57.4833 35.2667 57.5266 35.25 57.5799 35.25H59.2599C59.3066 35.25 59.3499 35.2667 59.3899 35.3C59.4233 35.34 59.4399 35.3833 59.4399 35.43V37.21C59.4399 37.2633 59.4633 37.29 59.5099 37.29H60.9499C61.0033 37.29 61.0466 37.3067 61.0799 37.34C61.1133 37.38 61.1299 37.4233 61.1299 37.47V38.81Z" fill="#252530"/>
<path d="M16.9 75.48C16.38 75.48 15.9266 75.3967 15.54 75.23C15.1533 75.0633 14.8533 74.83 14.64 74.53C14.4333 74.23 14.33 73.8767 14.33 73.47V73.22C14.33 73.1867 14.3433 73.1566 14.37 73.13C14.39 73.11 14.4166 73.1 14.45 73.1H15.34C15.3733 73.1 15.4033 73.11 15.43 73.13C15.45 73.1566 15.46 73.1867 15.46 73.22V73.41C15.46 73.7167 15.5966 73.97 15.87 74.17C16.1433 74.3766 16.5166 74.48 16.99 74.48C17.3966 74.48 17.7033 74.3933 17.91 74.22C18.1166 74.0467 18.22 73.8233 18.22 73.55C18.22 73.3633 18.1633 73.2033 18.05 73.07C17.9366 72.9433 17.7766 72.8267 17.57 72.72C17.3566 72.6133 17.04 72.48 16.62 72.32C16.1466 72.1467 15.7633 71.9833 15.47 71.83C15.1766 71.6767 14.9333 71.4666 14.74 71.2C14.54 70.94 14.44 70.6133 14.44 70.22C14.44 69.6333 14.6533 69.17 15.08 68.83C15.5066 68.49 16.0766 68.32 16.79 68.32C17.29 68.32 17.7333 68.4067 18.12 68.58C18.5 68.7533 18.7966 68.9966 19.01 69.31C19.2233 69.6166 19.33 69.9733 19.33 70.38V70.55C19.33 70.5833 19.3166 70.6133 19.29 70.64C19.27 70.66 19.2433 70.67 19.21 70.67H18.31C18.2766 70.67 18.25 70.66 18.23 70.64C18.2033 70.6133 18.19 70.5833 18.19 70.55V70.44C18.19 70.1267 18.0633 69.8633 17.81 69.65C17.55 69.43 17.1933 69.32 16.74 69.32C16.3733 69.32 16.09 69.3967 15.89 69.55C15.6833 69.7033 15.58 69.92 15.58 70.2C15.58 70.4 15.6333 70.5633 15.74 70.69C15.8466 70.8167 16.0066 70.93 16.22 71.03C16.4333 71.1367 16.7633 71.27 17.21 71.43C17.6833 71.61 18.0633 71.7733 18.35 71.92C18.63 72.0666 18.8733 72.27 19.08 72.53C19.28 72.7967 19.38 73.1266 19.38 73.52C19.38 74.12 19.1566 74.5966 18.71 74.95C18.27 75.3033 17.6666 75.48 16.9 75.48ZM25.91 70.21C26.4233 70.21 26.8266 70.3633 27.12 70.67C27.4066 70.9833 27.55 71.4167 27.55 71.97V75.28C27.55 75.3133 27.54 75.34 27.52 75.36C27.4933 75.3867 27.4633 75.4 27.43 75.4H26.52C26.4866 75.4 26.46 75.3867 26.44 75.36C26.4133 75.34 26.4 75.3133 26.4 75.28V72.21C26.4 71.9033 26.32 71.66 26.16 71.48C25.9933 71.3 25.7733 71.21 25.5 71.21C25.2266 71.21 25.0033 71.3 24.83 71.48C24.6566 71.66 24.57 71.9 24.57 72.2V75.28C24.57 75.3133 24.56 75.34 24.54 75.36C24.5133 75.3867 24.4833 75.4 24.45 75.4H23.54C23.5066 75.4 23.4766 75.3867 23.45 75.36C23.43 75.34 23.42 75.3133 23.42 75.28V72.21C23.42 71.9033 23.3366 71.66 23.17 71.48C23.0033 71.3 22.7833 71.21 22.51 71.21C22.2566 71.21 22.0466 71.2833 21.88 71.43C21.72 71.5767 21.6266 71.7767 21.6 72.03V75.28C21.6 75.3133 21.59 75.34 21.57 75.36C21.5433 75.3867 21.5133 75.4 21.48 75.4H20.56C20.5266 75.4 20.5 75.3867 20.48 75.36C20.4533 75.34 20.44 75.3133 20.44 75.28V70.41C20.44 70.3767 20.4533 70.3467 20.48 70.32C20.5 70.3 20.5266 70.29 20.56 70.29H21.48C21.5133 70.29 21.5433 70.3 21.57 70.32C21.59 70.3467 21.6 70.3767 21.6 70.41V70.74C21.6 70.76 21.6066 70.7733 21.62 70.78C21.6333 70.7867 21.6466 70.78 21.66 70.76C21.8066 70.5733 21.9866 70.4366 22.2 70.35C22.42 70.2566 22.6633 70.21 22.93 70.21C23.2566 70.21 23.5433 70.2767 23.79 70.41C24.0366 70.5433 24.2266 70.7366 24.36 70.99C24.38 71.0166 24.4033 71.0166 24.43 70.99C24.5766 70.7233 24.78 70.5267 25.04 70.4C25.3 70.2733 25.59 70.21 25.91 70.21ZM30.68 70.21C31.1 70.21 31.47 70.2833 31.79 70.43C32.11 70.5767 32.3566 70.7767 32.53 71.03C32.7033 71.29 32.79 71.5833 32.79 71.91V75.28C32.79 75.3133 32.78 75.34 32.76 75.36C32.7333 75.3867 32.7033 75.4 32.67 75.4H31.75C31.7166 75.4 31.69 75.3867 31.67 75.36C31.6433 75.34 31.63 75.3133 31.63 75.28V74.96C31.63 74.94 31.6233 74.9266 31.61 74.92C31.5966 74.92 31.5833 74.9267 31.57 74.94C31.2433 75.3 30.77 75.48 30.15 75.48C29.65 75.48 29.24 75.3533 28.92 75.1C28.5933 74.8466 28.43 74.47 28.43 73.97C28.43 73.45 28.6133 73.0433 28.98 72.75C29.34 72.4633 29.85 72.32 30.51 72.32H31.58C31.6133 72.32 31.63 72.3033 31.63 72.27V72.03C31.63 71.77 31.5533 71.5666 31.4 71.42C31.2466 71.28 31.0166 71.21 30.71 71.21C30.4566 71.21 30.2533 71.2566 30.1 71.35C29.94 71.4366 29.84 71.56 29.8 71.72C29.78 71.8 29.7333 71.8333 29.66 71.82L28.69 71.7C28.6566 71.6933 28.63 71.6833 28.61 71.67C28.5833 71.65 28.5733 71.6266 28.58 71.6C28.6333 71.1933 28.8533 70.86 29.24 70.6C29.62 70.34 30.1 70.21 30.68 70.21ZM30.44 74.56C30.7666 74.56 31.0466 74.4733 31.28 74.3C31.5133 74.1267 31.63 73.9067 31.63 73.64V73.17C31.63 73.1366 31.6133 73.12 31.58 73.12H30.74C30.3866 73.12 30.11 73.1867 29.91 73.32C29.7033 73.4533 29.6 73.6433 29.6 73.89C29.6 74.1033 29.68 74.2666 29.84 74.38C29.9933 74.5 30.1933 74.56 30.44 74.56ZM34.07 75.4C34.0366 75.4 34.01 75.3867 33.99 75.36C33.9633 75.34 33.95 75.3133 33.95 75.28V68.52C33.95 68.4866 33.9633 68.46 33.99 68.44C34.01 68.4133 34.0366 68.4 34.07 68.4H34.99C35.0233 68.4 35.0533 68.4133 35.08 68.44C35.1 68.46 35.11 68.4866 35.11 68.52V75.28C35.11 75.3133 35.1 75.34 35.08 75.36C35.0533 75.3867 35.0233 75.4 34.99 75.4H34.07ZM36.46 75.4C36.4266 75.4 36.4 75.3867 36.38 75.36C36.3533 75.34 36.34 75.3133 36.34 75.28V68.52C36.34 68.4866 36.3533 68.46 36.38 68.44C36.4 68.4133 36.4266 68.4 36.46 68.4H37.38C37.4133 68.4 37.4433 68.4133 37.47 68.44C37.49 68.46 37.5 68.4866 37.5 68.52V75.28C37.5 75.3133 37.49 75.34 37.47 75.36C37.4433 75.3867 37.4133 75.4 37.38 75.4H36.46ZM44.75 71.75C44.71 71.77 44.71 71.79 44.75 71.81C45.43 72.13 45.77 72.68 45.77 73.46C45.77 74.0933 45.56 74.5767 45.14 74.91C44.7133 75.2367 44.16 75.4 43.48 75.4H40.96C40.9266 75.4 40.9 75.3867 40.88 75.36C40.8533 75.34 40.84 75.3133 40.84 75.28V68.52C40.84 68.4866 40.8533 68.46 40.88 68.44C40.9 68.4133 40.9266 68.4 40.96 68.4H43.4C44.1266 68.4 44.6866 68.5567 45.08 68.87C45.4733 69.1833 45.67 69.6567 45.67 70.29C45.67 70.99 45.3633 71.4767 44.75 71.75ZM42.05 69.4C42.0166 69.4 42 69.4166 42 69.45V71.3C42 71.3333 42.0166 71.35 42.05 71.35H43.4C43.7533 71.35 44.0333 71.2666 44.24 71.1C44.44 70.9266 44.54 70.69 44.54 70.39C44.54 70.0833 44.44 69.84 44.24 69.66C44.0333 69.4867 43.7533 69.4 43.4 69.4H42.05ZM43.48 74.39C43.8266 74.39 44.1033 74.2967 44.31 74.11C44.51 73.9233 44.61 73.67 44.61 73.35C44.61 73.0233 44.5066 72.77 44.3 72.59C44.0933 72.4033 43.8133 72.31 43.46 72.31H42.05C42.0166 72.31 42 72.3267 42 72.36V74.34C42 74.3733 42.0166 74.39 42.05 74.39H43.48ZM49.88 70.41C49.88 70.3767 49.89 70.3467 49.91 70.32C49.9366 70.3 49.9666 70.29 50 70.29H50.91C50.9433 70.29 50.9733 70.3 51 70.32C51.02 70.3467 51.03 70.3767 51.03 70.41V75.28C51.03 75.3133 51.02 75.34 51 75.36C50.9733 75.3867 50.9433 75.4 50.91 75.4H50C49.9666 75.4 49.9366 75.3867 49.91 75.36C49.89 75.34 49.88 75.3133 49.88 75.28V74.96C49.88 74.94 49.8733 74.9266 49.86 74.92C49.8466 74.9133 49.8333 74.92 49.82 74.94C49.5466 75.2933 49.1366 75.47 48.59 75.47C48.0833 75.47 47.66 75.3233 47.32 75.03C46.9733 74.7367 46.8 74.32 46.8 73.78V70.41C46.8 70.3767 46.81 70.3467 46.83 70.32C46.8566 70.3 46.8866 70.29 46.92 70.29H47.84C47.8733 70.29 47.9033 70.3 47.93 70.32C47.95 70.3467 47.96 70.3767 47.96 70.41V73.45C47.96 73.7633 48.0433 74.0133 48.21 74.2C48.37 74.3866 48.5966 74.48 48.89 74.48C49.19 74.48 49.43 74.3866 49.61 74.2C49.79 74.0133 49.88 73.7633 49.88 73.45V70.41ZM54.17 75.46C53.75 75.46 53.38 75.3966 53.06 75.27C52.7466 75.15 52.5033 74.98 52.33 74.76C52.1566 74.5467 52.07 74.3067 52.07 74.04V73.95C52.07 73.9166 52.08 73.8867 52.1 73.86C52.1266 73.84 52.1566 73.83 52.19 73.83H53.07C53.1033 73.83 53.13 73.84 53.15 73.86C53.1766 73.8867 53.19 73.9166 53.19 73.95V73.97C53.19 74.1367 53.28 74.2833 53.46 74.41C53.6466 74.53 53.88 74.59 54.16 74.59C54.4266 74.59 54.6433 74.5367 54.81 74.43C54.9766 74.3167 55.06 74.1767 55.06 74.01C55.06 73.8567 54.99 73.74 54.85 73.66C54.7166 73.5867 54.4966 73.5066 54.19 73.42L53.81 73.3C53.47 73.2 53.1833 73.0933 52.95 72.98C52.7166 72.8667 52.52 72.71 52.36 72.51C52.2 72.3167 52.12 72.0667 52.12 71.76C52.12 71.2933 52.3033 70.9233 52.67 70.65C53.0366 70.37 53.52 70.23 54.12 70.23C54.5266 70.23 54.8833 70.2933 55.19 70.42C55.4966 70.5533 55.7333 70.7333 55.9 70.96C56.0666 71.1933 56.15 71.4567 56.15 71.75C56.15 71.7833 56.1366 71.8133 56.11 71.84C56.09 71.86 56.0633 71.87 56.03 71.87H55.18C55.1466 71.87 55.1166 71.86 55.09 71.84C55.07 71.8133 55.06 71.7833 55.06 71.75C55.06 71.5767 54.9733 71.4333 54.8 71.32C54.6333 71.2 54.4033 71.14 54.11 71.14C53.85 71.14 53.6366 71.1867 53.47 71.28C53.31 71.38 53.23 71.5167 53.23 71.69C53.23 71.85 53.3066 71.97 53.46 72.05C53.62 72.1367 53.8833 72.23 54.25 72.33L54.47 72.39C54.8233 72.4967 55.12 72.6033 55.36 72.71C55.6 72.8233 55.8033 72.9766 55.97 73.17C56.1366 73.37 56.22 73.6267 56.22 73.94C56.22 74.4133 56.0333 74.7833 55.66 75.05C55.2866 75.3233 54.79 75.46 54.17 75.46ZM57.86 69.59C57.6533 69.59 57.4833 69.5233 57.35 69.39C57.2166 69.2567 57.15 69.0866 57.15 68.88C57.15 68.6733 57.2166 68.5033 57.35 68.37C57.4833 68.2367 57.6533 68.17 57.86 68.17C58.0666 68.17 58.2366 68.2367 58.37 68.37C58.5033 68.5033 58.57 68.6733 58.57 68.88C58.57 69.0866 58.5033 69.2567 58.37 69.39C58.2366 69.5233 58.0666 69.59 57.86 69.59ZM57.38 75.4C57.3466 75.4 57.3166 75.3867 57.29 75.36C57.27 75.34 57.26 75.3133 57.26 75.28V70.4C57.26 70.3667 57.27 70.34 57.29 70.32C57.3166 70.2933 57.3466 70.28 57.38 70.28H58.3C58.3333 70.28 58.36 70.2933 58.38 70.32C58.4066 70.34 58.42 70.3667 58.42 70.4V75.28C58.42 75.3133 58.4066 75.34 58.38 75.36C58.36 75.3867 58.3333 75.4 58.3 75.4H57.38ZM62.2 70.21C62.74 70.21 63.17 70.37 63.49 70.69C63.8166 71.01 63.98 71.4467 63.98 72V75.28C63.98 75.3133 63.9666 75.34 63.94 75.36C63.92 75.3867 63.8933 75.4 63.86 75.4H62.94C62.9066 75.4 62.8766 75.3867 62.85 75.36C62.83 75.34 62.82 75.3133 62.82 75.28V72.24C62.82 71.9333 62.7333 71.6833 62.56 71.49C62.3866 71.3033 62.1566 71.21 61.87 71.21C61.5833 71.21 61.35 71.3033 61.17 71.49C60.9966 71.6766 60.91 71.9233 60.91 72.23V75.28C60.91 75.3133 60.8966 75.34 60.87 75.36C60.85 75.3867 60.8233 75.4 60.79 75.4H59.87C59.8366 75.4 59.8066 75.3867 59.78 75.36C59.76 75.34 59.75 75.3133 59.75 75.28V70.41C59.75 70.3767 59.76 70.3467 59.78 70.32C59.8066 70.3 59.8366 70.29 59.87 70.29H60.79C60.8233 70.29 60.85 70.3 60.87 70.32C60.8966 70.3467 60.91 70.3767 60.91 70.41V70.73C60.91 70.75 60.9166 70.7633 60.93 70.77C60.9433 70.7766 60.9533 70.77 60.96 70.75C61.2333 70.39 61.6466 70.21 62.2 70.21ZM69.46 72.27C69.4866 72.4366 69.5 72.6233 69.5 72.83L69.49 73.14C69.49 73.22 69.45 73.26 69.37 73.26H66.24C66.2066 73.26 66.19 73.2766 66.19 73.31C66.21 73.53 66.24 73.68 66.28 73.76C66.44 74.24 66.83 74.4833 67.45 74.49C67.9033 74.49 68.2633 74.3033 68.53 73.93C68.5566 73.89 68.59 73.87 68.63 73.87C68.6566 73.87 68.68 73.88 68.7 73.9L69.32 74.41C69.38 74.4567 69.39 74.51 69.35 74.57C69.1433 74.8633 68.8666 75.09 68.52 75.25C68.18 75.41 67.8 75.49 67.38 75.49C66.86 75.49 66.4166 75.3733 66.05 75.14C65.69 74.9067 65.4266 74.58 65.26 74.16C65.1066 73.8 65.03 73.3 65.03 72.66C65.03 72.2733 65.07 71.96 65.15 71.72C65.2833 71.2533 65.5333 70.8833 65.9 70.61C66.2733 70.3433 66.72 70.21 67.24 70.21C68.5533 70.21 69.2933 70.8966 69.46 72.27ZM67.24 71.21C66.9933 71.21 66.7866 71.2733 66.62 71.4C66.46 71.52 66.3466 71.69 66.28 71.91C66.24 72.0233 66.2133 72.17 66.2 72.35C66.1866 72.3833 66.2 72.4 66.24 72.4H68.27C68.3033 72.4 68.32 72.3833 68.32 72.35C68.3066 72.1833 68.2866 72.0567 68.26 71.97C68.2 71.73 68.08 71.5433 67.9 71.41C67.7266 71.2767 67.5066 71.21 67.24 71.21ZM72.38 75.46C71.96 75.46 71.59 75.3966 71.27 75.27C70.9566 75.15 70.7133 74.98 70.54 74.76C70.3666 74.5467 70.28 74.3067 70.28 74.04V73.95C70.28 73.9166 70.29 73.8867 70.31 73.86C70.3366 73.84 70.3666 73.83 70.4 73.83H71.28C71.3133 73.83 71.34 73.84 71.36 73.86C71.3866 73.8867 71.4 73.9166 71.4 73.95V73.97C71.4 74.1367 71.49 74.2833 71.67 74.41C71.8566 74.53 72.09 74.59 72.37 74.59C72.6366 74.59 72.8533 74.5367 73.02 74.43C73.1866 74.3167 73.27 74.1767 73.27 74.01C73.27 73.8567 73.2 73.74 73.06 73.66C72.9266 73.5867 72.7066 73.5066 72.4 73.42L72.02 73.3C71.68 73.2 71.3933 73.0933 71.16 72.98C70.9266 72.8667 70.73 72.71 70.57 72.51C70.41 72.3167 70.33 72.0667 70.33 71.76C70.33 71.2933 70.5133 70.9233 70.88 70.65C71.2466 70.37 71.73 70.23 72.33 70.23C72.7366 70.23 73.0933 70.2933 73.4 70.42C73.7066 70.5533 73.9433 70.7333 74.11 70.96C74.2766 71.1933 74.36 71.4567 74.36 71.75C74.36 71.7833 74.3466 71.8133 74.32 71.84C74.3 71.86 74.2733 71.87 74.24 71.87H73.39C73.3566 71.87 73.3266 71.86 73.3 71.84C73.28 71.8133 73.27 71.7833 73.27 71.75C73.27 71.5767 73.1833 71.4333 73.01 71.32C72.8433 71.2 72.6133 71.14 72.32 71.14C72.06 71.14 71.8466 71.1867 71.68 71.28C71.52 71.38 71.44 71.5167 71.44 71.69C71.44 71.85 71.5166 71.97 71.67 72.05C71.83 72.1367 72.0933 72.23 72.46 72.33L72.68 72.39C73.0333 72.4967 73.33 72.6033 73.57 72.71C73.81 72.8233 74.0133 72.9766 74.18 73.17C74.3466 73.37 74.43 73.6267 74.43 73.94C74.43 74.4133 74.2433 74.7833 73.87 75.05C73.4966 75.3233 73 75.46 72.38 75.46ZM77.21 75.46C76.79 75.46 76.42 75.3966 76.1 75.27C75.7866 75.15 75.5433 74.98 75.37 74.76C75.1966 74.5467 75.11 74.3067 75.11 74.04V73.95C75.11 73.9166 75.12 73.8867 75.14 73.86C75.1666 73.84 75.1966 73.83 75.23 73.83H76.11C76.1433 73.83 76.17 73.84 76.19 73.86C76.2166 73.8867 76.23 73.9166 76.23 73.95V73.97C76.23 74.1367 76.32 74.2833 76.5 74.41C76.6866 74.53 76.92 74.59 77.2 74.59C77.4666 74.59 77.6833 74.5367 77.85 74.43C78.0166 74.3167 78.1 74.1767 78.1 74.01C78.1 73.8567 78.03 73.74 77.89 73.66C77.7566 73.5867 77.5366 73.5066 77.23 73.42L76.85 73.3C76.51 73.2 76.2233 73.0933 75.99 72.98C75.7566 72.8667 75.56 72.71 75.4 72.51C75.24 72.3167 75.16 72.0667 75.16 71.76C75.16 71.2933 75.3433 70.9233 75.71 70.65C76.0766 70.37 76.56 70.23 77.16 70.23C77.5666 70.23 77.9233 70.2933 78.23 70.42C78.5366 70.5533 78.7733 70.7333 78.94 70.96C79.1066 71.1933 79.19 71.4567 79.19 71.75C79.19 71.7833 79.1766 71.8133 79.15 71.84C79.13 71.86 79.1033 71.87 79.07 71.87H78.22C78.1866 71.87 78.1566 71.86 78.13 71.84C78.11 71.8133 78.1 71.7833 78.1 71.75C78.1 71.5767 78.0133 71.4333 77.84 71.32C77.6733 71.2 77.4433 71.14 77.15 71.14C76.89 71.14 76.6766 71.1867 76.51 71.28C76.35 71.38 76.27 71.5167 76.27 71.69C76.27 71.85 76.3466 71.97 76.5 72.05C76.66 72.1367 76.9233 72.23 77.29 72.33L77.51 72.39C77.8633 72.4967 78.16 72.6033 78.4 72.71C78.64 72.8233 78.8433 72.9766 79.01 73.17C79.1766 73.37 79.26 73.6267 79.26 73.94C79.26 74.4133 79.0733 74.7833 78.7 75.05C78.3266 75.3233 77.83 75.46 77.21 75.46Z" fill="white"/>
<path d="M33.15 89.58C32.6167 89.58 32.15 89.4933 31.75 89.32C31.35 89.1533 31.0433 88.91 30.83 88.59C30.61 88.2766 30.5 87.91 30.5 87.49V87.27C30.5 87.2366 30.5133 87.21 30.54 87.19C30.56 87.1633 30.5867 87.15 30.62 87.15H31.76C31.7933 87.15 31.8233 87.1633 31.85 87.19C31.87 87.21 31.88 87.2366 31.88 87.27V87.42C31.88 87.6866 32.0033 87.91 32.25 88.09C32.4967 88.2766 32.83 88.37 33.25 88.37C33.6033 88.37 33.8667 88.2967 34.04 88.15C34.2133 87.9967 34.3 87.81 34.3 87.59C34.3 87.43 34.2467 87.2967 34.14 87.19C34.0333 87.0767 33.8867 86.98 33.7 86.9C33.52 86.8133 33.23 86.6967 32.83 86.55C32.3833 86.3967 32.0033 86.24 31.69 86.08C31.3833 85.92 31.1267 85.7 30.92 85.42C30.7067 85.1466 30.6 84.8067 30.6 84.4C30.6 84 30.7033 83.65 30.91 83.35C31.1167 83.05 31.4033 82.82 31.77 82.66C32.1367 82.5 32.56 82.42 33.04 82.42C33.5467 82.42 33.9967 82.51 34.39 82.69C34.79 82.87 35.1033 83.1233 35.33 83.45C35.55 83.77 35.66 84.1433 35.66 84.57V84.72C35.66 84.7533 35.65 84.78 35.63 84.8C35.6033 84.8267 35.5733 84.84 35.54 84.84H34.39C34.3567 84.84 34.33 84.8267 34.31 84.8C34.2833 84.78 34.27 84.7533 34.27 84.72V84.64C34.27 84.36 34.1567 84.12 33.93 83.92C33.6967 83.7266 33.38 83.63 32.98 83.63C32.6667 83.63 32.42 83.6967 32.24 83.83C32.0667 83.9633 31.98 84.1466 31.98 84.38C31.98 84.5466 32.0333 84.6867 32.14 84.8C32.24 84.9133 32.3933 85.0133 32.6 85.1C32.8 85.1933 33.1133 85.3167 33.54 85.47C34.0133 85.6433 34.3833 85.7967 34.65 85.93C34.9233 86.0633 35.17 86.26 35.39 86.52C35.6033 86.7866 35.71 87.13 35.71 87.55C35.71 88.1767 35.48 88.67 35.02 89.03C34.56 89.3967 33.9367 89.58 33.15 89.58ZM39.59 82.49C40.03 82.49 40.4167 82.58 40.75 82.76C41.0833 82.94 41.3433 83.1933 41.53 83.52C41.71 83.8533 41.8 84.2333 41.8 84.66C41.8 85.08 41.7067 85.45 41.52 85.77C41.3267 86.09 41.0567 86.34 40.71 86.52C40.37 86.6933 39.9767 86.78 39.53 86.78H38.11C38.0767 86.78 38.06 86.7967 38.06 86.83V89.38C38.06 89.4133 38.0467 89.44 38.02 89.46C38 89.4867 37.9733 89.5 37.94 89.5H36.77C36.7367 89.5 36.7067 89.4867 36.68 89.46C36.66 89.44 36.65 89.4133 36.65 89.38V82.61C36.65 82.5767 36.66 82.5466 36.68 82.52C36.7067 82.5 36.7367 82.49 36.77 82.49H39.59ZM39.38 85.65C39.6867 85.65 39.9333 85.56 40.12 85.38C40.3067 85.2066 40.4 84.9767 40.4 84.69C40.4 84.3967 40.3067 84.16 40.12 83.98C39.9333 83.8 39.6867 83.71 39.38 83.71H38.11C38.0767 83.71 38.06 83.7267 38.06 83.76V85.6C38.06 85.6333 38.0767 85.65 38.11 85.65H39.38ZM46.51 89.5C46.4433 89.5 46.3967 89.47 46.37 89.41L45.12 86.64C45.1067 86.6133 45.0867 86.6 45.06 86.6H44.13C44.0967 86.6 44.08 86.6167 44.08 86.65V89.38C44.08 89.4133 44.0667 89.44 44.04 89.46C44.02 89.4867 43.9933 89.5 43.96 89.5H42.79C42.7567 89.5 42.7267 89.4867 42.7 89.46C42.68 89.44 42.67 89.4133 42.67 89.38V82.62C42.67 82.5867 42.68 82.56 42.7 82.54C42.7267 82.5133 42.7567 82.5 42.79 82.5H45.65C46.0767 82.5 46.45 82.5867 46.77 82.76C47.0967 82.9333 47.3467 83.18 47.52 83.5C47.7 83.82 47.79 84.19 47.79 84.61C47.79 85.0633 47.6767 85.45 47.45 85.77C47.2233 86.0966 46.9067 86.3267 46.5 86.46C46.4667 86.4733 46.4567 86.4967 46.47 86.53L47.83 89.36C47.8433 89.3867 47.85 89.4066 47.85 89.42C47.85 89.4733 47.8133 89.5 47.74 89.5H46.51ZM44.13 83.71C44.0967 83.71 44.08 83.7267 44.08 83.76V85.47C44.08 85.5033 44.0967 85.52 44.13 85.52H45.44C45.72 85.52 45.9467 85.4366 46.12 85.27C46.3 85.1033 46.39 84.8867 46.39 84.62C46.39 84.3533 46.3 84.1333 46.12 83.96C45.9467 83.7933 45.72 83.71 45.44 83.71H44.13ZM48.93 89.5C48.8967 89.5 48.87 89.4867 48.85 89.46C48.8233 89.44 48.81 89.4133 48.81 89.38V82.62C48.81 82.5867 48.8233 82.56 48.85 82.54C48.87 82.5133 48.8967 82.5 48.93 82.5H50.1C50.1333 82.5 50.1633 82.5133 50.19 82.54C50.21 82.56 50.22 82.5867 50.22 82.62V89.38C50.22 89.4133 50.21 89.44 50.19 89.46C50.1633 89.4867 50.1333 89.5 50.1 89.5H48.93ZM55.46 82.62C55.46 82.5867 55.4733 82.56 55.5 82.54C55.52 82.5133 55.5467 82.5 55.58 82.5H56.75C56.7833 82.5 56.8133 82.5133 56.84 82.54C56.86 82.56 56.87 82.5867 56.87 82.62V89.38C56.87 89.4133 56.86 89.44 56.84 89.46C56.8133 89.4867 56.7833 89.5 56.75 89.5H55.62C55.5533 89.5 55.5067 89.4733 55.48 89.42L52.89 85.14C52.8767 85.12 52.8633 85.1133 52.85 85.12C52.8367 85.12 52.83 85.1333 52.83 85.16L52.85 89.38C52.85 89.4133 52.84 89.44 52.82 89.46C52.7933 89.4867 52.7633 89.5 52.73 89.5H51.56C51.5267 89.5 51.5 89.4867 51.48 89.46C51.4533 89.44 51.44 89.4133 51.44 89.38V82.62C51.44 82.5867 51.4533 82.56 51.48 82.54C51.5 82.5133 51.5267 82.5 51.56 82.5H52.69C52.7567 82.5 52.8033 82.5267 52.83 82.58L55.41 86.84C55.4233 86.86 55.4367 86.8667 55.45 86.86C55.4633 86.86 55.47 86.8467 55.47 86.82L55.46 82.62ZM60.55 89.58C60.0367 89.58 59.5833 89.4766 59.19 89.27C58.7967 89.0633 58.4933 88.7767 58.28 88.41C58.06 88.0367 57.95 87.6067 57.95 87.12V84.88C57.95 84.3933 58.06 83.9633 58.28 83.59C58.4933 83.2166 58.7967 82.9267 59.19 82.72C59.5833 82.52 60.0367 82.42 60.55 82.42C61.0567 82.42 61.5067 82.52 61.9 82.72C62.2867 82.92 62.59 83.1933 62.81 83.54C63.0233 83.88 63.13 84.26 63.13 84.68V84.75C63.13 84.7833 63.12 84.81 63.1 84.83C63.0733 84.8567 63.0433 84.87 63.01 84.87H61.84C61.8067 84.87 61.78 84.8567 61.76 84.83C61.7333 84.81 61.72 84.7833 61.72 84.75V84.72C61.72 84.4133 61.6133 84.1566 61.4 83.95C61.1867 83.7366 60.9033 83.63 60.55 83.63C60.19 83.63 59.9033 83.74 59.69 83.96C59.47 84.1867 59.36 84.48 59.36 84.84V87.16C59.36 87.52 59.4767 87.81 59.71 88.03C59.9433 88.2567 60.24 88.37 60.6 88.37C60.9467 88.37 61.2233 88.2766 61.43 88.09C61.6367 87.91 61.74 87.6567 61.74 87.33V86.88C61.74 86.8466 61.7233 86.83 61.69 86.83H60.57C60.5367 86.83 60.51 86.8167 60.49 86.79C60.4633 86.77 60.45 86.7433 60.45 86.71V85.79C60.45 85.7567 60.4633 85.73 60.49 85.71C60.51 85.6833 60.5367 85.67 60.57 85.67H63.01C63.0433 85.67 63.0733 85.6833 63.1 85.71C63.12 85.73 63.13 85.7567 63.13 85.79V87.11C63.13 87.6167 63.0233 88.0567 62.81 88.43C62.5967 88.8033 62.2967 89.09 61.91 89.29C61.5167 89.4833 61.0633 89.58 60.55 89.58ZM38.06 97.63C38.0467 97.6433 38.0433 97.6566 38.05 97.67C38.0567 97.6833 38.07 97.69 38.09 97.69H40.8C40.8333 97.69 40.8633 97.7 40.89 97.72C40.91 97.7467 40.92 97.7766 40.92 97.81V98.78C40.92 98.8133 40.91 98.84 40.89 98.86C40.8633 98.8867 40.8333 98.9 40.8 98.9H36.3C36.2667 98.9 36.2367 98.8867 36.21 98.86C36.19 98.84 36.18 98.8133 36.18 98.78V97.86C36.18 97.8 36.2 97.75 36.24 97.71C36.5667 97.39 36.9 97.0433 37.24 96.67C37.58 96.29 37.7933 96.0533 37.88 95.96C38.0667 95.74 38.2567 95.53 38.45 95.33C39.0567 94.6567 39.36 94.1567 39.36 93.83C39.36 93.5967 39.2767 93.4033 39.11 93.25C38.9433 93.1033 38.7267 93.03 38.46 93.03C38.1933 93.03 37.9767 93.1033 37.81 93.25C37.6433 93.4033 37.56 93.6033 37.56 93.85V94.1C37.56 94.1333 37.5467 94.1633 37.52 94.19C37.5 94.21 37.4733 94.22 37.44 94.22H36.26C36.2267 94.22 36.2 94.21 36.18 94.19C36.1533 94.1633 36.14 94.1333 36.14 94.1V93.63C36.16 93.27 36.2733 92.95 36.48 92.67C36.6867 92.3966 36.96 92.1867 37.3 92.04C37.6467 91.8933 38.0333 91.82 38.46 91.82C38.9333 91.82 39.3467 91.9067 39.7 92.08C40.0467 92.26 40.3167 92.5 40.51 92.8C40.6967 93.1 40.79 93.4333 40.79 93.8C40.79 94.08 40.72 94.3667 40.58 94.66C40.44 94.9533 40.23 95.27 39.95 95.61C39.7433 95.87 39.52 96.1266 39.28 96.38C39.04 96.6333 38.6833 97 38.21 97.48L38.06 97.63ZM44.17 99.01C43.4367 99.01 42.8567 98.8033 42.43 98.39C42.0033 97.9833 41.79 97.4267 41.79 96.72V94.08C41.79 93.3867 42.0033 92.8367 42.43 92.43C42.8567 92.0233 43.4367 91.82 44.17 91.82C44.9033 91.82 45.4867 92.0233 45.92 92.43C46.3467 92.8367 46.56 93.3867 46.56 94.08V96.72C46.56 97.4267 46.3467 97.9833 45.92 98.39C45.4867 98.8033 44.9033 99.01 44.17 99.01ZM44.17 97.8C44.47 97.8 44.71 97.7066 44.89 97.52C45.0633 97.34 45.15 97.0967 45.15 96.79V94.04C45.15 93.7333 45.0633 93.49 44.89 93.31C44.71 93.1233 44.47 93.03 44.17 93.03C43.8767 93.03 43.6433 93.1233 43.47 93.31C43.29 93.49 43.2 93.7333 43.2 94.04V96.79C43.2 97.0967 43.29 97.34 43.47 97.52C43.6433 97.7066 43.8767 97.8 44.17 97.8ZM49.36 97.63C49.3467 97.6433 49.3433 97.6566 49.35 97.67C49.3567 97.6833 49.37 97.69 49.39 97.69H52.1C52.1333 97.69 52.1633 97.7 52.19 97.72C52.21 97.7467 52.22 97.7766 52.22 97.81V98.78C52.22 98.8133 52.21 98.84 52.19 98.86C52.1633 98.8867 52.1333 98.9 52.1 98.9H47.6C47.5667 98.9 47.54 98.8867 47.52 98.86C47.4933 98.84 47.48 98.8133 47.48 98.78V97.86C47.48 97.8 47.5 97.75 47.54 97.71C47.8667 97.39 48.2 97.0433 48.54 96.67C48.88 96.29 49.0933 96.0533 49.18 95.96C49.3667 95.74 49.5567 95.53 49.75 95.33C50.3567 94.6567 50.66 94.1567 50.66 93.83C50.66 93.5967 50.5767 93.4033 50.41 93.25C50.2433 93.1033 50.0267 93.03 49.76 93.03C49.4933 93.03 49.2767 93.1033 49.11 93.25C48.9433 93.4033 48.86 93.6033 48.86 93.85V94.1C48.86 94.1333 48.85 94.1633 48.83 94.19C48.8033 94.21 48.7733 94.22 48.74 94.22H47.56C47.5267 94.22 47.5 94.21 47.48 94.19C47.4533 94.1633 47.44 94.1333 47.44 94.1V93.63C47.46 93.27 47.5733 92.95 47.78 92.67C47.9867 92.3966 48.2633 92.1867 48.61 92.04C48.95 91.8933 49.3333 91.82 49.76 91.82C50.2333 91.82 50.6467 91.9067 51 92.08C51.3467 92.26 51.6167 92.5 51.81 92.8C51.9967 93.1 52.09 93.4333 52.09 93.8C52.09 94.08 52.02 94.3667 51.88 94.66C51.74 94.9533 51.53 95.27 51.25 95.61C51.0433 95.87 50.82 96.1266 50.58 96.38C50.34 96.6333 49.9833 97 49.51 97.48L49.36 97.63ZM57.26 95.56C57.3933 95.8666 57.46 96.22 57.46 96.62C57.46 96.98 57.4 97.3133 57.28 97.62C57.12 98.0467 56.8533 98.38 56.48 98.62C56.1 98.86 55.6533 98.98 55.14 98.98C54.6333 98.98 54.19 98.8533 53.81 98.6C53.4233 98.3466 53.1467 98.0033 52.98 97.57C52.8867 97.31 52.8333 97.03 52.82 96.73C52.82 96.65 52.86 96.61 52.94 96.61H54.12C54.2 96.61 54.24 96.65 54.24 96.73C54.2667 96.95 54.3033 97.1133 54.35 97.22C54.41 97.3933 54.51 97.5267 54.65 97.62C54.7833 97.72 54.9433 97.77 55.13 97.77C55.5033 97.77 55.76 97.6067 55.9 97.28C55.9933 97.08 56.04 96.8467 56.04 96.58C56.04 96.2667 55.99 96.01 55.89 95.81C55.7367 95.4966 55.48 95.34 55.12 95.34C55.0467 95.34 54.97 95.36 54.89 95.4C54.81 95.4467 54.7133 95.51 54.6 95.59C54.5733 95.61 54.5467 95.62 54.52 95.62C54.48 95.62 54.45 95.6 54.43 95.56L53.84 94.73C53.8267 94.71 53.82 94.6867 53.82 94.66C53.82 94.62 53.8333 94.5866 53.86 94.56L55.45 93.17C55.4633 93.1566 55.47 93.1433 55.47 93.13C55.4633 93.1166 55.45 93.11 55.43 93.11H53.08C53.0467 93.11 53.02 93.0967 53 93.07C52.9733 93.05 52.96 93.0233 52.96 92.99V92.02C52.96 91.9866 52.9733 91.96 53 91.94C53.02 91.9133 53.0467 91.9 53.08 91.9H57.25C57.2833 91.9 57.3133 91.9133 57.34 91.94C57.36 91.96 57.37 91.9866 57.37 92.02V93.12C57.37 93.1733 57.3467 93.2233 57.3 93.27L55.99 94.47C55.9767 94.4833 55.9733 94.4967 55.98 94.51C55.98 94.5233 55.9933 94.53 56.02 94.53C56.6 94.6433 57.0133 94.9866 57.26 95.56Z" fill="#252530"/>
</svg>
