<svg width="296" height="317" viewBox="0 0 296 317" fill="none" xmlns="http://www.w3.org/2000/svg">
<path d="M78.4741 183.332H76.3641V174.076L72.4455 183.332H70.6015L66.7184 174.112V183.332H64.6439V170.761H67.4808L71.559 180.353L75.5839 170.761H78.4741V183.332ZM79.9328 180.992C79.9328 180.259 80.1692 179.674 80.642 179.236C81.1267 178.787 81.7591 178.503 82.5392 178.385L84.7556 178.048C85.1812 177.989 85.3939 177.782 85.3939 177.428C85.3939 177.037 85.258 176.724 84.9861 176.488C84.7143 176.24 84.3064 176.115 83.7627 176.115C83.2426 176.115 82.8288 176.263 82.5215 176.559C82.2142 176.842 82.0369 177.215 81.9896 177.676L80.1101 177.25C80.1928 176.47 80.5652 175.808 81.2271 175.264C81.8891 174.709 82.7284 174.431 83.745 174.431C84.998 174.431 85.92 174.732 86.511 175.335C87.1139 175.938 87.4153 176.712 87.4153 177.658V181.949C87.4153 182.516 87.4508 182.977 87.5217 183.332H85.6067C85.5476 183.155 85.5181 182.788 85.5181 182.233C84.9507 183.143 84.0641 183.598 82.8584 183.598C81.9837 183.598 81.2744 183.344 80.7307 182.836C80.1987 182.315 79.9328 181.701 79.9328 180.992ZM83.2485 181.984C83.8868 181.984 84.401 181.813 84.7911 181.47C85.193 181.116 85.3939 180.542 85.3939 179.75V179.36L83.1421 179.697C82.3737 179.827 81.9896 180.217 81.9896 180.867C81.9896 181.175 82.1019 181.441 82.3265 181.665C82.5511 181.878 82.8584 181.984 83.2485 181.984ZM94.1571 174.644V176.736C93.9207 176.701 93.6961 176.683 93.4833 176.683C91.9348 176.683 91.1606 177.528 91.1606 179.218V183.332H89.1038V174.697H91.1074V176.08C91.3083 175.619 91.6334 175.258 92.0826 174.998C92.5318 174.727 93.0401 174.591 93.6075 174.591C93.7966 174.591 93.9798 174.608 94.1571 174.644ZM97.1153 183.332H95.0762V174.697H97.1153V183.332ZM95.1472 172.605C94.8871 172.345 94.7571 172.031 94.7571 171.665C94.7571 171.299 94.8871 170.985 95.1472 170.725C95.4072 170.453 95.7205 170.317 96.0869 170.317C96.4652 170.317 96.7843 170.447 97.0444 170.707C97.3044 170.968 97.4345 171.287 97.4345 171.665C97.4345 172.031 97.3044 172.345 97.0444 172.605C96.7843 172.865 96.4652 172.995 96.0869 172.995C95.7205 172.995 95.4072 172.865 95.1472 172.605ZM98.4389 180.992C98.4389 180.259 98.6753 179.674 99.1481 179.236C99.6328 178.787 100.265 178.503 101.045 178.385L103.262 178.048C103.687 177.989 103.9 177.782 103.9 177.428C103.9 177.037 103.764 176.724 103.492 176.488C103.22 176.24 102.813 176.115 102.269 176.115C101.749 176.115 101.335 176.263 101.028 176.559C100.72 176.842 100.543 177.215 100.496 177.676L98.6162 177.25C98.699 176.47 99.0713 175.808 99.7333 175.264C100.395 174.709 101.235 174.431 102.251 174.431C103.504 174.431 104.426 174.732 105.017 175.335C105.62 175.938 105.921 176.712 105.921 177.658V181.949C105.921 182.516 105.957 182.977 106.028 183.332H104.113C104.054 183.155 104.024 182.788 104.024 182.233C103.457 183.143 102.57 183.598 101.365 183.598C100.49 183.598 99.7806 183.344 99.2368 182.836C98.7049 182.315 98.4389 181.701 98.4389 180.992ZM101.755 181.984C102.393 181.984 102.907 181.813 103.297 181.47C103.699 181.116 103.9 180.542 103.9 179.75V179.36L101.648 179.697C100.88 179.827 100.496 180.217 100.496 180.867C100.496 181.175 100.608 181.441 100.833 181.665C101.057 181.878 101.365 181.984 101.755 181.984ZM110.678 180.992C110.678 180.259 110.915 179.674 111.387 179.236C111.872 178.787 112.505 178.503 113.285 178.385L115.501 178.048C115.927 177.989 116.139 177.782 116.139 177.428C116.139 177.037 116.003 176.724 115.732 176.488C115.46 176.24 115.052 176.115 114.508 176.115C113.988 176.115 113.574 176.263 113.267 176.559C112.96 176.842 112.782 177.215 112.735 177.676L110.856 177.25C110.938 176.47 111.311 175.808 111.973 175.264C112.635 174.709 113.474 174.431 114.49 174.431C115.743 174.431 116.665 174.732 117.256 175.335C117.859 175.938 118.161 176.712 118.161 177.658V181.949C118.161 182.516 118.196 182.977 118.267 183.332H116.352C116.293 183.155 116.263 182.788 116.263 182.233C115.696 183.143 114.81 183.598 113.604 183.598C112.729 183.598 112.02 183.344 111.476 182.836C110.944 182.315 110.678 181.701 110.678 180.992ZM113.994 181.984C114.632 181.984 115.146 181.813 115.537 181.47C115.938 181.116 116.139 180.542 116.139 179.75V179.36L113.888 179.697C113.119 179.827 112.735 180.217 112.735 180.867C112.735 181.175 112.847 181.441 113.072 181.665C113.296 181.878 113.604 181.984 113.994 181.984ZM121.215 178.988C121.215 179.815 121.428 180.483 121.853 180.992C122.279 181.488 122.84 181.736 123.538 181.736C124.211 181.736 124.761 181.482 125.187 180.974C125.612 180.466 125.825 179.798 125.825 178.97C125.825 178.155 125.618 177.504 125.204 177.02C124.791 176.535 124.241 176.293 123.555 176.293C122.87 176.293 122.308 176.541 121.871 177.037C121.434 177.522 121.215 178.172 121.215 178.988ZM127.811 170.495V181.754C127.811 182.333 127.84 182.859 127.9 183.332H125.931C125.872 183.001 125.843 182.629 125.843 182.215C125.63 182.605 125.299 182.924 124.85 183.172C124.401 183.421 123.886 183.545 123.307 183.545C122.078 183.545 121.079 183.113 120.311 182.25C119.542 181.388 119.158 180.3 119.158 178.988C119.158 177.723 119.542 176.653 120.311 175.779C121.091 174.904 122.078 174.466 123.272 174.466C123.957 174.466 124.507 174.591 124.921 174.839C125.346 175.087 125.642 175.377 125.807 175.708V170.495H127.811ZM128.938 180.992L130.729 180.495C130.764 180.909 130.936 181.257 131.243 181.541C131.55 181.825 131.964 181.967 132.484 181.967C132.886 181.967 133.199 181.872 133.424 181.683C133.66 181.494 133.778 181.257 133.778 180.974C133.778 180.477 133.442 180.158 132.768 180.016L131.491 179.733C130.746 179.567 130.173 179.26 129.771 178.811C129.369 178.361 129.168 177.829 129.168 177.215C129.168 176.458 129.476 175.808 130.09 175.264C130.705 174.709 131.456 174.431 132.342 174.431C132.91 174.431 133.412 174.514 133.849 174.679C134.287 174.845 134.624 175.063 134.86 175.335C135.108 175.595 135.297 175.85 135.427 176.098C135.558 176.346 135.64 176.594 135.676 176.842L133.938 177.339C133.891 177.008 133.737 176.712 133.477 176.452C133.229 176.18 132.851 176.045 132.342 176.045C131.988 176.045 131.692 176.145 131.456 176.346C131.219 176.535 131.101 176.766 131.101 177.037C131.101 177.522 131.391 177.824 131.97 177.942L133.282 178.208C134.086 178.385 134.7 178.704 135.126 179.165C135.552 179.626 135.764 180.182 135.764 180.832C135.764 181.553 135.475 182.197 134.896 182.765C134.328 183.32 133.53 183.598 132.502 183.598C131.911 183.598 131.379 183.509 130.906 183.332C130.445 183.155 130.079 182.93 129.807 182.658C129.547 182.375 129.34 182.097 129.186 181.825C129.044 181.541 128.962 181.263 128.938 180.992Z" fill="#121619"/>
<path d="M73.7862 194.471H69.6903V205.039H67.5626V194.471H63.4844V192.468H73.7862V194.471ZM78.2551 196.404H80.3828L82.4219 202.379L84.1418 196.404H86.2341L83.468 205.039H81.4112L79.2658 198.833L77.1735 205.039H75.0635L72.262 196.404H74.4606L76.216 202.379L78.2551 196.404ZM89.0436 205.039H87.0046V196.404H89.0436V205.039ZM87.0755 194.312C86.8154 194.052 86.6854 193.738 86.6854 193.372C86.6854 193.006 86.8154 192.692 87.0755 192.432C87.3355 192.16 87.6488 192.024 88.0152 192.024C88.3935 192.024 88.7127 192.154 88.9727 192.415C89.2328 192.675 89.3628 192.994 89.3628 193.372C89.3628 193.738 89.2328 194.052 88.9727 194.312C88.7127 194.572 88.3935 194.702 88.0152 194.702C87.6488 194.702 87.3355 194.572 87.0755 194.312ZM93.5056 193.762V196.404H95.2965V198.23H93.5056V202.238C93.5056 202.616 93.5943 202.894 93.7716 203.071C93.9489 203.236 94.2267 203.319 94.605 203.319C94.8414 203.319 95.0778 203.296 95.3142 203.248V204.95C95.0069 205.08 94.5872 205.145 94.0553 205.145C93.2515 205.145 92.6191 204.921 92.1581 204.472C91.6971 204.011 91.4666 203.378 91.4666 202.574V198.23H89.8708V196.404H90.314C90.7514 196.404 91.0824 196.28 91.307 196.032C91.5316 195.783 91.6439 195.458 91.6439 195.056V193.762H93.5056ZM99.1837 193.762V196.404H100.975V198.23H99.1837V202.238C99.1837 202.616 99.2724 202.894 99.4497 203.071C99.627 203.236 99.9048 203.319 100.283 203.319C100.519 203.319 100.756 203.296 100.992 203.248V204.95C100.685 205.08 100.265 205.145 99.7334 205.145C98.9296 205.145 98.2972 204.921 97.8362 204.472C97.3752 204.011 97.1447 203.378 97.1447 202.574V198.23H95.5489V196.404H95.9921C96.4295 196.404 96.7605 196.28 96.9851 196.032C97.2097 195.783 97.322 195.458 97.322 195.056V193.762H99.1837ZM103.64 199.773H107.877C107.854 199.229 107.659 198.774 107.292 198.408C106.938 198.041 106.423 197.858 105.75 197.858C105.135 197.858 104.638 198.053 104.26 198.443C103.882 198.821 103.675 199.265 103.64 199.773ZM108.108 202.025L109.846 202.574C109.597 203.366 109.13 204.022 108.445 204.543C107.771 205.051 106.938 205.305 105.945 205.305C104.715 205.305 103.669 204.885 102.806 204.046C101.955 203.207 101.53 202.084 101.53 200.677C101.53 199.353 101.943 198.266 102.771 197.415C103.61 196.564 104.597 196.138 105.732 196.138C107.056 196.138 108.09 196.546 108.835 197.362C109.58 198.165 109.952 199.253 109.952 200.624C109.952 200.99 109.934 201.209 109.899 201.28H103.586C103.61 201.93 103.847 202.468 104.296 202.894C104.757 203.319 105.306 203.532 105.945 203.532C107.056 203.532 107.777 203.03 108.108 202.025ZM116.173 196.351V198.443C115.936 198.408 115.712 198.39 115.499 198.39C113.951 198.39 113.176 199.235 113.176 200.925V205.039H111.12V196.404H113.123V197.787C113.324 197.326 113.649 196.966 114.098 196.705C114.548 196.434 115.056 196.298 115.623 196.298C115.812 196.298 115.996 196.315 116.173 196.351Z" fill="#121619" fill-opacity="0.5"/>
<path d="M67.2869 224.66H65.8942V218.03H63.6166V217.029C64.2549 217.019 64.7917 216.855 65.2269 216.536C65.6621 216.207 65.9329 215.781 66.0393 215.259H67.2869V224.66ZM68.2232 222.106L69.5869 221.7C69.6256 222.28 69.8383 222.75 70.2252 223.107C70.6217 223.465 71.115 223.644 71.7049 223.644C72.2756 223.644 72.7543 223.47 73.1412 223.122C73.528 222.774 73.7215 222.314 73.7215 221.744C73.7215 221.125 73.528 220.646 73.1412 220.307C72.7543 219.969 72.2707 219.8 71.6904 219.8C70.9844 219.8 70.4138 220.027 69.9786 220.482C69.8432 220.433 69.6207 220.346 69.3113 220.22C69.0018 220.095 68.76 219.998 68.5859 219.93L69.8045 215.259H74.766V216.565H70.7475L70.0511 219.263C70.467 218.799 71.1053 218.567 71.9661 218.567C72.9042 218.567 73.6683 218.847 74.2582 219.408C74.8579 219.969 75.1577 220.728 75.1577 221.686C75.1577 222.595 74.8385 223.359 74.2002 223.978C73.5619 224.587 72.7301 224.892 71.7049 224.892C70.7378 224.892 69.9302 224.621 69.2822 224.079C68.6439 223.538 68.2909 222.88 68.2232 222.106ZM77.5202 224.66H76.171V217.682H77.4767V218.61C77.6895 218.243 77.9893 217.962 78.3761 217.769C78.763 217.575 79.1692 217.479 79.5947 217.479C80.0493 217.479 80.4652 217.59 80.8424 217.812C81.2196 218.035 81.5 218.364 81.6838 218.799C82.1674 217.919 82.9459 217.479 84.0195 217.479C84.6868 217.479 85.2526 217.706 85.7168 218.16C86.1907 218.615 86.4277 219.273 86.4277 220.133V224.66H85.0785V220.278C85.0785 219.795 84.9528 219.408 84.7013 219.118C84.4595 218.828 84.092 218.683 83.5987 218.683C83.1248 218.683 82.738 218.852 82.4382 219.19C82.1383 219.519 81.9884 219.935 81.9884 220.438V224.66H80.6248V220.278C80.6248 219.795 80.499 219.408 80.2476 219.118C80.0058 218.828 79.6383 218.683 79.145 218.683C78.6614 218.683 78.2697 218.847 77.9699 219.176C77.6701 219.505 77.5202 219.93 77.5202 220.453V224.66ZM89.3062 224.66H87.957V217.682H89.3062V224.66ZM87.928 215.738C87.7443 215.544 87.6524 215.312 87.6524 215.041C87.6524 214.771 87.7443 214.538 87.928 214.345C88.1215 214.152 88.3536 214.055 88.6244 214.055C88.8952 214.055 89.1273 214.152 89.3207 214.345C89.5142 214.529 89.6109 214.761 89.6109 215.041C89.6109 215.312 89.5142 215.544 89.3207 215.738C89.1273 215.921 88.8952 216.013 88.6244 216.013C88.3536 216.013 88.1215 215.921 87.928 215.738ZM92.3372 220.627V224.66H90.9735V217.682H92.3082V218.683C92.7724 217.88 93.4881 217.479 94.4553 217.479C95.258 217.479 95.8721 217.735 96.2977 218.247C96.7329 218.76 96.9505 219.423 96.9505 220.235V224.66H95.5868V220.467C95.5868 219.297 95.0452 218.712 93.962 218.712C93.4494 218.712 93.0481 218.895 92.7579 219.263C92.4774 219.621 92.3372 220.075 92.3372 220.627Z" fill="#121619" fill-opacity="0.48"/>
<rect x="7.06649" y="166.633" width="39.6809" height="96.2473" rx="19.8405" fill="#67AE80"/>
<g filter="url(#filter0_d_69_7907)">
<rect x="2" y="154.814" width="50.4208" height="50.4208" rx="25.2104" fill="white"/>
<path d="M22.4705 193.687C18.7981 193.687 15.3748 192.619 12.4935 190.776C14.9398 190.934 19.2571 190.555 21.9424 187.994C17.9028 187.809 16.081 184.71 15.8434 183.386C16.1866 183.519 17.8236 183.678 18.7477 183.307C14.1008 182.142 13.3879 178.064 13.5464 176.819C14.4177 177.428 15.8962 177.64 16.4771 177.587C12.147 174.489 13.7048 169.828 14.4705 168.822C17.5779 173.127 22.2349 175.545 27.9962 175.68C27.8876 175.203 27.8302 174.707 27.8302 174.198C27.8302 170.542 30.7854 167.578 34.4309 167.578C36.3356 167.578 38.0518 168.387 39.2566 169.681C40.5294 169.383 42.445 168.685 43.3814 168.081C42.9094 169.776 41.4399 171.189 40.551 171.713C40.5584 171.731 40.5438 171.695 40.551 171.713C41.3318 171.595 43.4445 171.189 44.2791 170.623C43.8664 171.575 42.3084 173.158 41.0298 174.044C41.2677 184.535 33.241 193.687 22.4705 193.687Z" fill="#47ACDF"/>
<rect x="2.84427" y="155.658" width="48.7322" height="48.7322" rx="24.3661" stroke="white" stroke-width="1.68855"/>
</g>
<path d="M115.738 19.8062H113.628V10.5505L109.709 19.8062H107.865L103.982 10.586V19.8062H101.908V7.23481H104.745L108.823 16.8273L112.848 7.23481H115.738V19.8062ZM117.196 17.4656C117.196 16.7328 117.433 16.1476 117.906 15.7103C118.39 15.2611 119.023 14.9774 119.803 14.8592L122.019 14.5223C122.445 14.4632 122.658 14.2563 122.658 13.9017C122.658 13.5116 122.522 13.1984 122.25 12.962C121.978 12.7137 121.57 12.5896 121.026 12.5896C120.506 12.5896 120.093 12.7374 119.785 13.0329C119.478 13.3166 119.301 13.6889 119.253 14.1499L117.374 13.7244C117.456 12.9442 117.829 12.2823 118.491 11.7385C119.153 11.1829 119.992 10.9051 121.009 10.9051C122.262 10.9051 123.184 11.2066 123.775 11.8094C124.378 12.4123 124.679 13.1865 124.679 14.1322V18.4231C124.679 18.9905 124.714 19.4515 124.785 19.8062H122.87C122.811 19.6288 122.782 19.2624 122.782 18.7068C122.214 19.617 121.328 20.0721 120.122 20.0721C119.247 20.0721 118.538 19.818 117.994 19.3097C117.462 18.7896 117.196 18.1749 117.196 17.4656ZM120.512 18.4586C121.15 18.4586 121.665 18.2872 122.055 17.9444C122.457 17.5898 122.658 17.0165 122.658 16.2245V15.8344L120.406 16.1713C119.637 16.3013 119.253 16.6914 119.253 17.3415C119.253 17.6489 119.366 17.9148 119.59 18.1394C119.815 18.3522 120.122 18.4586 120.512 18.4586ZM131.421 11.1179V13.2102C131.184 13.1747 130.96 13.157 130.747 13.157C129.198 13.157 128.424 14.0022 128.424 15.6925V19.8062H126.367V11.1711H128.371V12.5541C128.572 12.0931 128.897 11.7326 129.346 11.4725C129.795 11.2007 130.304 11.0647 130.871 11.0647C131.06 11.0647 131.243 11.0825 131.421 11.1179ZM136.012 12.8024C135.35 12.8024 134.789 13.0447 134.328 13.5293C133.867 14.0022 133.636 14.6523 133.636 15.4798C133.636 16.319 133.867 16.981 134.328 17.4656C134.801 17.9503 135.374 18.1926 136.048 18.1926C136.651 18.1926 137.129 18.033 137.484 17.7139C137.85 17.3829 138.093 17.0106 138.211 16.5968L140.02 17.2529C139.783 18.0212 139.322 18.6832 138.637 19.2388C137.963 19.7943 137.1 20.0721 136.048 20.0721C134.783 20.0721 133.719 19.6348 132.856 18.76C132.005 17.8853 131.58 16.7919 131.58 15.4798C131.58 14.1558 131.999 13.0624 132.838 12.1995C133.69 11.3366 134.742 10.9051 135.995 10.9051C137.07 10.9051 137.945 11.1829 138.619 11.7385C139.304 12.2941 139.748 12.962 139.949 13.7421L138.105 14.4159C137.986 13.9667 137.756 13.5885 137.413 13.2811C137.082 12.962 136.615 12.8024 136.012 12.8024ZM146.548 18.8487C146.347 19.2269 146.016 19.5225 145.555 19.7352C145.106 19.948 144.621 20.0544 144.101 20.0544C143.096 20.0544 142.298 19.7293 141.707 19.0792C141.128 18.429 140.838 17.6075 140.838 16.6146V11.1711H142.895V16.2422C142.895 16.8214 143.037 17.2942 143.321 17.6607C143.604 18.0271 144.042 18.2104 144.633 18.2104C145.212 18.2104 145.655 18.033 145.963 17.6784C146.282 17.3238 146.441 16.8569 146.441 16.2777V11.1711H148.498V18.2281C148.498 18.7482 148.528 19.2742 148.587 19.8062H146.619C146.571 19.5461 146.548 19.2269 146.548 18.8487ZM149.6 17.4656L151.391 16.9692C151.426 17.3829 151.598 17.7316 151.905 18.0153C152.213 18.299 152.626 18.4409 153.146 18.4409C153.548 18.4409 153.862 18.3463 154.086 18.1572C154.323 17.968 154.441 17.7316 154.441 17.4479C154.441 16.9514 154.104 16.6323 153.43 16.4904L152.153 16.2067C151.409 16.0413 150.835 15.7339 150.434 15.2847C150.032 14.8355 149.831 14.3036 149.831 13.6889C149.831 12.9324 150.138 12.2823 150.753 11.7385C151.367 11.1829 152.118 10.9051 153.005 10.9051C153.572 10.9051 154.074 10.9879 154.512 11.1534C154.949 11.3189 155.286 11.5376 155.522 11.8094C155.771 12.0695 155.96 12.3236 156.09 12.5719C156.22 12.8201 156.302 13.0683 156.338 13.3166L154.6 13.813C154.553 13.4821 154.399 13.1865 154.139 12.9265C153.891 12.6546 153.513 12.5187 153.005 12.5187C152.65 12.5187 152.354 12.6192 152.118 12.8201C151.882 13.0092 151.763 13.2397 151.763 13.5116C151.763 13.9963 152.053 14.2977 152.632 14.4159L153.944 14.6819C154.748 14.8592 155.363 15.1783 155.788 15.6393C156.214 16.1004 156.427 16.6559 156.427 17.3061C156.427 18.0271 156.137 18.6714 155.558 19.2388C154.99 19.7943 154.192 20.0721 153.164 20.0721C152.573 20.0721 152.041 19.9835 151.568 19.8062C151.107 19.6288 150.741 19.4042 150.469 19.1324C150.209 18.8487 150.002 18.5709 149.848 18.299C149.707 18.0153 149.624 17.7375 149.6 17.4656ZM168.454 15.533H163.454V13.7067H168.454V15.533ZM180.446 19.8062H172.68V7.23481H180.446V9.22069H174.807V12.5541H179.914V14.4868H174.807V17.8203H180.446V19.8062ZM181.21 17.4656L183.001 16.9692C183.036 17.3829 183.208 17.7316 183.515 18.0153C183.822 18.299 184.236 18.4409 184.756 18.4409C185.158 18.4409 185.471 18.3463 185.696 18.1572C185.932 17.968 186.051 17.7316 186.051 17.4479C186.051 16.9514 185.714 16.6323 185.04 16.4904L183.763 16.2067C183.019 16.0413 182.445 15.7339 182.043 15.2847C181.641 14.8355 181.44 14.3036 181.44 13.6889C181.44 12.9324 181.748 12.2823 182.362 11.7385C182.977 11.1829 183.728 10.9051 184.614 10.9051C185.182 10.9051 185.684 10.9879 186.121 11.1534C186.559 11.3189 186.896 11.5376 187.132 11.8094C187.38 12.0695 187.57 12.3236 187.7 12.5719C187.83 12.8201 187.912 13.0683 187.948 13.3166L186.21 13.813C186.163 13.4821 186.009 13.1865 185.749 12.9265C185.501 12.6546 185.123 12.5187 184.614 12.5187C184.26 12.5187 183.964 12.6192 183.728 12.8201C183.491 13.0092 183.373 13.2397 183.373 13.5116C183.373 13.9963 183.663 14.2977 184.242 14.4159L185.554 14.6819C186.358 14.8592 186.973 15.1783 187.398 15.6393C187.824 16.1004 188.036 16.6559 188.036 17.3061C188.036 18.0271 187.747 18.6714 187.168 19.2388C186.6 19.7943 185.802 20.0721 184.774 20.0721C184.183 20.0721 183.651 19.9835 183.178 19.8062C182.717 19.6288 182.351 19.4042 182.079 19.1324C181.819 18.8487 181.612 18.5709 181.458 18.299C181.316 18.0153 181.234 17.7375 181.21 17.4656ZM191.885 8.52918V11.1711H193.675V12.9974H191.885V17.0046C191.885 17.3829 191.973 17.6607 192.151 17.838C192.328 18.0035 192.606 18.0862 192.984 18.0862C193.22 18.0862 193.457 18.0626 193.693 18.0153V19.7175C193.386 19.8475 192.966 19.9125 192.434 19.9125C191.63 19.9125 190.998 19.6879 190.537 19.2388C190.076 18.7777 189.846 18.1453 189.846 17.3415V12.9974H188.25V11.1711H188.693C189.13 11.1711 189.461 11.047 189.686 10.7988C189.911 10.5505 190.023 10.2255 190.023 9.82355V8.52918H191.885ZM197.03 19.8062H194.991V11.1711H197.03V19.8062ZM195.062 9.07884C194.802 8.81879 194.672 8.50554 194.672 8.1391C194.672 7.77265 194.802 7.4594 195.062 7.19935C195.322 6.92747 195.635 6.79153 196.002 6.79153C196.38 6.79153 196.699 6.92156 196.959 7.18162C197.219 7.44167 197.349 7.76083 197.349 8.1391C197.349 8.50554 197.219 8.81879 196.959 9.07884C196.699 9.3389 196.38 9.46893 196.002 9.46893C195.635 9.46893 195.322 9.3389 195.062 9.07884ZM200.925 19.8062H198.886V11.1711H200.854V12.2704C201.09 11.8449 201.445 11.5139 201.918 11.2775C202.402 11.0411 202.899 10.9229 203.407 10.9229C203.986 10.9229 204.506 11.0529 204.967 11.313C205.428 11.573 205.771 11.9513 205.996 12.4478C206.599 11.4312 207.532 10.9229 208.797 10.9229C209.648 10.9229 210.369 11.2007 210.96 11.7562C211.551 12.3118 211.847 13.1274 211.847 14.2031V19.8062H209.861V14.54C209.861 14.0081 209.719 13.5825 209.436 13.2634C209.164 12.9324 208.75 12.7669 208.194 12.7669C207.662 12.7669 207.231 12.9501 206.9 13.3166C206.569 13.683 206.403 14.1381 206.403 14.6819V19.8062H204.382V14.54C204.382 14.0081 204.24 13.5825 203.957 13.2634C203.685 12.9324 203.271 12.7669 202.715 12.7669C202.172 12.7669 201.734 12.9501 201.403 13.3166C201.084 13.6712 200.925 14.1263 200.925 14.6819V19.8062ZM213.036 17.4656C213.036 16.7328 213.272 16.1476 213.745 15.7103C214.23 15.2611 214.862 14.9774 215.642 14.8592L217.859 14.5223C218.284 14.4632 218.497 14.2563 218.497 13.9017C218.497 13.5116 218.361 13.1984 218.089 12.962C217.817 12.7137 217.409 12.5896 216.866 12.5896C216.346 12.5896 215.932 12.7374 215.624 13.0329C215.317 13.3166 215.14 13.6889 215.093 14.1499L213.213 13.7244C213.296 12.9442 213.668 12.2823 214.33 11.7385C214.992 11.1829 215.831 10.9051 216.848 10.9051C218.101 10.9051 219.023 11.2066 219.614 11.8094C220.217 12.4123 220.518 13.1865 220.518 14.1322V18.4231C220.518 18.9905 220.554 19.4515 220.625 19.8062H218.71C218.651 19.6288 218.621 19.2624 218.621 18.7068C218.054 19.617 217.167 20.0721 215.961 20.0721C215.087 20.0721 214.377 19.818 213.834 19.3097C213.302 18.7896 213.036 18.1749 213.036 17.4656ZM216.351 18.4586C216.99 18.4586 217.504 18.2872 217.894 17.9444C218.296 17.5898 218.497 17.0165 218.497 16.2245V15.8344L216.245 16.1713C215.477 16.3013 215.093 16.6914 215.093 17.3415C215.093 17.6489 215.205 17.9148 215.429 18.1394C215.654 18.3522 215.961 18.4586 216.351 18.4586ZM224.779 8.52918V11.1711H226.569V12.9974H224.779V17.0046C224.779 17.3829 224.867 17.6607 225.045 17.838C225.222 18.0035 225.5 18.0862 225.878 18.0862C226.114 18.0862 226.351 18.0626 226.587 18.0153V19.7175C226.28 19.8475 225.86 19.9125 225.328 19.9125C224.524 19.9125 223.892 19.6879 223.431 19.2388C222.97 18.7777 222.739 18.1453 222.739 17.3415V12.9974H221.144V11.1711H221.587C222.024 11.1711 222.355 11.047 222.58 10.7988C222.805 10.5505 222.917 10.2255 222.917 9.82355V8.52918H224.779ZM229.924 19.8062H227.885V11.1711H229.924V19.8062ZM227.956 9.07884C227.696 8.81879 227.566 8.50554 227.566 8.1391C227.566 7.77265 227.696 7.4594 227.956 7.19935C228.216 6.92747 228.529 6.79153 228.896 6.79153C229.274 6.79153 229.593 6.92156 229.853 7.18162C230.113 7.44167 230.243 7.76083 230.243 8.1391C230.243 8.50554 230.113 8.81879 229.853 9.07884C229.593 9.3389 229.274 9.46893 228.896 9.46893C228.529 9.46893 228.216 9.3389 227.956 9.07884ZM233.854 17.5011C234.327 17.9858 234.9 18.2281 235.574 18.2281C236.248 18.2281 236.815 17.9858 237.276 17.5011C237.749 17.0165 237.985 16.3427 237.985 15.4798C237.985 14.6287 237.749 13.9667 237.276 13.4939C236.815 13.0092 236.248 12.7669 235.574 12.7669C234.9 12.7669 234.327 13.0092 233.854 13.4939C233.393 13.9667 233.162 14.6287 233.162 15.4798C233.162 16.3309 233.393 17.0046 233.854 17.5011ZM235.574 10.9051C236.874 10.9051 237.944 11.3366 238.783 12.1995C239.634 13.0624 240.06 14.1558 240.06 15.4798C240.06 16.8037 239.634 17.903 238.783 18.7777C237.944 19.6407 236.874 20.0721 235.574 20.0721C234.285 20.0721 233.216 19.6407 232.365 18.7777C231.525 17.903 231.106 16.8037 231.106 15.4798C231.106 14.1558 231.525 13.0624 232.365 12.1995C233.216 11.3366 234.285 10.9051 235.574 10.9051ZM243.306 14.8237V19.8062H241.25V11.1711H243.253V12.3236C243.525 11.8508 243.886 11.5021 244.335 11.2775C244.796 11.0411 245.286 10.9229 245.807 10.9229C246.823 10.9229 247.597 11.242 248.129 11.8804C248.661 12.5187 248.927 13.3402 248.927 14.345V19.8062H246.87V14.6996C246.87 14.1204 246.729 13.6594 246.445 13.3166C246.161 12.962 245.712 12.7846 245.097 12.7846C244.53 12.7846 244.087 12.9797 243.767 13.3698C243.46 13.748 243.306 14.2327 243.306 14.8237Z" fill="#121619"/>
<path d="M113.06 41.8062H111.34L111.181 40.2104C110.874 40.7305 110.389 41.1737 109.727 41.5402C109.065 41.8948 108.267 42.0721 107.333 42.0721C105.619 42.0721 104.159 41.4811 102.954 40.299C101.748 39.1051 101.145 37.5093 101.145 35.5116C101.145 34.1877 101.447 33.0174 102.049 32.0009C102.664 30.9843 103.444 30.2278 104.39 29.7313C105.336 29.223 106.364 28.9688 107.475 28.9688C108.929 28.9688 110.147 29.3294 111.128 30.0504C112.121 30.7715 112.794 31.6876 113.149 32.7988L111.145 33.5612C110.921 32.8047 110.489 32.1782 109.851 31.6817C109.213 31.1852 108.421 30.937 107.475 30.937C106.352 30.937 105.377 31.333 104.549 32.125C103.722 32.917 103.308 34.0458 103.308 35.5116C103.308 36.9656 103.71 38.1004 104.514 38.916C105.318 39.7198 106.299 40.1217 107.457 40.1217C108.592 40.1217 109.455 39.8262 110.046 39.2351C110.649 38.6323 110.986 37.9881 111.057 37.3025H106.908V35.4407H113.06V41.8062ZM116.703 41.8062H114.664V33.1711H116.632V34.2704C116.868 33.8449 117.223 33.5139 117.696 33.2775C118.18 33.0411 118.677 32.9229 119.185 32.9229C119.764 32.9229 120.284 33.0529 120.745 33.313C121.206 33.573 121.549 33.9513 121.774 34.4478C122.377 33.4312 123.31 32.9229 124.575 32.9229C125.426 32.9229 126.147 33.2007 126.738 33.7562C127.329 34.3118 127.625 35.1274 127.625 36.2031V41.8062H125.639V36.54C125.639 36.0081 125.497 35.5825 125.214 35.2634C124.942 34.9324 124.528 34.7669 123.972 34.7669C123.44 34.7669 123.009 34.9501 122.678 35.3166C122.347 35.683 122.182 36.1381 122.182 36.6819V41.8062H120.16V36.54C120.16 36.0081 120.018 35.5825 119.735 35.2634C119.463 34.9324 119.049 34.7669 118.493 34.7669C117.95 34.7669 117.512 34.9501 117.181 35.3166C116.862 35.6712 116.703 36.1263 116.703 36.6819V41.8062ZM128.814 39.4656C128.814 38.7328 129.05 38.1476 129.523 37.7103C130.008 37.2611 130.64 36.9774 131.42 36.8592L133.637 36.5223C134.062 36.4632 134.275 36.2563 134.275 35.9017C134.275 35.5116 134.139 35.1984 133.867 34.962C133.595 34.7137 133.187 34.5896 132.644 34.5896C132.124 34.5896 131.71 34.7374 131.403 35.0329C131.095 35.3166 130.918 35.6889 130.871 36.1499L128.991 35.7244C129.074 34.9442 129.446 34.2823 130.108 33.7385C130.77 33.1829 131.609 32.9051 132.626 32.9051C133.879 32.9051 134.801 33.2066 135.392 33.8094C135.995 34.4123 136.296 35.1865 136.296 36.1322V40.4231C136.296 40.9905 136.332 41.4515 136.403 41.8062H134.488C134.429 41.6288 134.399 41.2624 134.399 40.7068C133.832 41.617 132.945 42.0721 131.739 42.0721C130.865 42.0721 130.155 41.818 129.612 41.3097C129.08 40.7896 128.814 40.1749 128.814 39.4656ZM132.129 40.4586C132.768 40.4586 133.282 40.2872 133.672 39.9444C134.074 39.5898 134.275 39.0165 134.275 38.2245V37.8344L132.023 38.1713C131.255 38.3013 130.871 38.6914 130.871 39.3415C130.871 39.6489 130.983 39.9148 131.207 40.1394C131.432 40.3522 131.739 40.4586 132.129 40.4586ZM140.024 41.8062H137.985V33.1711H140.024V41.8062ZM138.056 31.0788C137.796 30.8188 137.666 30.5055 137.666 30.1391C137.666 29.7727 137.796 29.4594 138.056 29.1993C138.316 28.9275 138.629 28.7915 138.995 28.7915C139.374 28.7915 139.693 28.9216 139.953 29.1816C140.213 29.4417 140.343 29.7608 140.343 30.1391C140.343 30.5055 140.213 30.8188 139.953 31.0788C139.693 31.3389 139.374 31.4689 138.995 31.4689C138.629 31.4689 138.316 31.3389 138.056 31.0788ZM143.936 41.8062H141.879V28.9688H143.936V41.8062Z" fill="#121619" fill-opacity="0.5"/>
<path d="M104.433 61.1338H103.041V54.504H100.763V53.503C101.401 53.4933 101.938 53.3289 102.373 53.0097C102.809 52.6809 103.079 52.2553 103.186 51.7331H104.433V61.1338ZM105.37 58.5805L106.733 58.1743C106.772 58.7546 106.985 59.2237 107.372 59.5815C107.768 59.9394 108.261 60.1183 108.851 60.1183C109.422 60.1183 109.901 59.9442 110.288 59.596C110.675 59.2478 110.868 58.7884 110.868 58.2178C110.868 57.5989 110.675 57.1201 110.288 56.7816C109.901 56.4431 109.417 56.2739 108.837 56.2739C108.131 56.2739 107.56 56.5011 107.125 56.9557C106.99 56.9073 106.767 56.8203 106.458 56.6946C106.148 56.5688 105.906 56.4721 105.732 56.4044L106.951 51.7331H111.912V53.0387H107.894L107.198 55.7371C107.613 55.2729 108.252 55.0407 109.113 55.0407C110.051 55.0407 110.815 55.3212 111.405 55.8822C112.004 56.4431 112.304 57.2023 112.304 58.1598C112.304 59.0689 111.985 59.833 111.347 60.4519C110.708 61.0613 109.877 61.3659 108.851 61.3659C107.884 61.3659 107.077 61.0951 106.429 60.5535C105.79 60.0119 105.437 59.3542 105.37 58.5805ZM114.667 61.1338H113.318V54.1558H114.623V55.0843C114.836 54.7167 115.136 54.4363 115.523 54.2428C115.909 54.0494 116.316 53.9527 116.741 53.9527C117.196 53.9527 117.612 54.0639 117.989 54.2864C118.366 54.5088 118.647 54.8376 118.83 55.2729C119.314 54.3928 120.092 53.9527 121.166 53.9527C121.833 53.9527 122.399 54.18 122.863 54.6345C123.337 55.0891 123.574 55.7468 123.574 56.6075V61.1338H122.225V56.7526C122.225 56.269 122.099 55.8822 121.848 55.592C121.606 55.3019 121.238 55.1568 120.745 55.1568C120.271 55.1568 119.884 55.3261 119.585 55.6646C119.285 55.9934 119.135 56.4093 119.135 56.9122V61.1338H117.771V56.7526C117.771 56.269 117.646 55.8822 117.394 55.592C117.152 55.3019 116.785 55.1568 116.292 55.1568C115.808 55.1568 115.416 55.3212 115.116 55.65C114.817 55.9789 114.667 56.4044 114.667 56.9267V61.1338ZM126.453 61.1338H125.104V54.1558H126.453V61.1338ZM125.075 52.2118C124.891 52.0184 124.799 51.7863 124.799 51.5155C124.799 51.2447 124.891 51.0126 125.075 50.8191C125.268 50.6257 125.5 50.529 125.771 50.529C126.042 50.529 126.274 50.6257 126.467 50.8191C126.661 51.0029 126.757 51.235 126.757 51.5155C126.757 51.7863 126.661 52.0184 126.467 52.2118C126.274 52.3956 126.042 52.4875 125.771 52.4875C125.5 52.4875 125.268 52.3956 125.075 52.2118ZM129.484 57.1008V61.1338H128.12V54.1558H129.455V55.1568C129.919 54.3541 130.635 53.9527 131.602 53.9527C132.404 53.9527 133.019 54.209 133.444 54.7216C133.879 55.2342 134.097 55.8967 134.097 56.7091V61.1338H132.733V56.9412C132.733 55.7709 132.192 55.1858 131.109 55.1858C130.596 55.1858 130.195 55.3696 129.904 55.7371C129.624 56.0949 129.484 56.5495 129.484 57.1008Z" fill="#121619" fill-opacity="0.48"/>
<g filter="url(#filter1_i_69_7907)">
<rect x="44.4648" y="13.5181" width="39.4274" height="125.37" rx="19.7137" fill="#FBBC05"/>
</g>
<g filter="url(#filter2_d_69_7907)">
<rect x="39.1465" y="2" width="50.4208" height="50.4208" rx="25.2104" fill="white"/>
<g filter="url(#filter3_d_69_7907)">
<path d="M73.0537 16.1172L64.2254 23.0068L55.1954 16.1172V16.119L55.2063 16.1284V25.7757L64.1236 32.8144L73.0537 26.0476V16.1172Z" fill="#EA4335"/>
<path d="M75.3719 14.4408L73.0535 16.1167V26.0471L80.3488 20.446V17.0719C80.3488 17.0719 79.4633 12.2529 75.3719 14.4408Z" fill="#FBBC05"/>
<path d="M73.0535 26.0474V38.9273H78.645C78.645 38.9273 80.2361 38.7635 80.3506 36.9498V20.4463L73.0535 26.0474Z" fill="#34A853"/>
<path d="M55.2067 38.9379V25.7749L55.1954 25.7656L55.2067 38.9379Z" fill="#C5221F"/>
<path d="M55.1953 16.1188L52.8896 14.4522C48.7982 12.2643 47.9109 17.0815 47.9109 17.0815V20.4555L55.1953 25.7662V16.1188Z" fill="#C5221F"/>
<path d="M55.1954 16.1187V25.766L55.2067 25.7754V16.128L55.1954 16.1187Z" fill="#C5221F"/>
<path d="M47.9109 20.457V36.9606C48.0236 38.7761 49.6165 38.9381 49.6165 38.9381H55.208L55.1953 25.7658L47.9109 20.457Z" fill="#4285F4"/>
</g>
<rect x="39.9908" y="2.84427" width="48.7322" height="48.7322" rx="24.3661" stroke="white" stroke-width="1.68855"/>
</g>
<path d="M217.896 101.701H215.786V92.4451L211.867 101.701H210.023L206.14 92.4805V101.701H204.066V89.1293H206.903L210.981 98.7219L215.006 89.1293H217.896V101.701ZM221.978 101.701H219.939V93.0656H221.978V101.701ZM220.009 90.9734C219.749 90.7133 219.619 90.4001 219.619 90.0336C219.619 89.6672 219.749 89.3539 220.009 89.0939C220.27 88.822 220.583 88.6861 220.949 88.6861C221.327 88.6861 221.647 88.8161 221.907 89.0761C222.167 89.3362 222.297 89.6554 222.297 90.0336C222.297 90.4001 222.167 90.7133 221.907 90.9734C221.647 91.2334 221.327 91.3635 220.949 91.3635C220.583 91.3635 220.27 91.2334 220.009 90.9734ZM223.213 102.179L225.11 101.683C225.181 102.227 225.411 102.67 225.801 103.013C226.203 103.367 226.694 103.545 227.273 103.545C228.904 103.545 229.72 102.682 229.72 100.956V100.052C229.519 100.418 229.2 100.72 228.762 100.956C228.325 101.192 227.811 101.311 227.22 101.311C226.061 101.311 225.104 100.915 224.347 100.123C223.603 99.3306 223.23 98.3259 223.23 97.1083C223.23 95.9381 223.603 94.9451 224.347 94.1295C225.092 93.3139 226.05 92.9061 227.22 92.9061C228.485 92.9061 229.336 93.3257 229.773 94.165V93.0656H231.759V100.885C231.759 102.162 231.398 103.22 230.677 104.059C229.956 104.91 228.839 105.336 227.326 105.336C226.215 105.336 225.281 105.034 224.525 104.431C223.768 103.828 223.331 103.078 223.213 102.179ZM227.557 99.5552C228.219 99.5552 228.751 99.3365 229.152 98.8992C229.566 98.45 229.773 97.853 229.773 97.1083C229.773 96.3754 229.566 95.7903 229.152 95.353C228.739 94.9038 228.207 94.6792 227.557 94.6792C226.895 94.6792 226.351 94.9038 225.925 95.353C225.512 95.7903 225.305 96.3754 225.305 97.1083C225.305 97.853 225.512 98.45 225.925 98.8992C226.339 99.3365 226.883 99.5552 227.557 99.5552ZM239.011 100.743C238.81 101.121 238.479 101.417 238.018 101.63C237.569 101.843 237.084 101.949 236.564 101.949C235.559 101.949 234.761 101.624 234.17 100.974C233.591 100.324 233.301 99.502 233.301 98.5091V93.0656H235.358V98.1367C235.358 98.716 235.5 99.1888 235.784 99.5552C236.067 99.9217 236.505 100.105 237.096 100.105C237.675 100.105 238.118 99.9276 238.426 99.573C238.745 99.2183 238.904 98.7514 238.904 98.1722V93.0656H240.961V100.123C240.961 100.643 240.991 101.169 241.05 101.701H239.082C239.034 101.441 239.011 101.121 239.011 100.743ZM244.21 96.4345H248.447C248.424 95.8908 248.229 95.4357 247.862 95.0693C247.508 94.7028 246.994 94.5196 246.32 94.5196C245.705 94.5196 245.209 94.7146 244.83 95.1047C244.452 95.483 244.245 95.9263 244.21 96.4345ZM248.678 98.6864L250.416 99.2361C250.167 100.028 249.7 100.684 249.015 101.204C248.341 101.713 247.508 101.967 246.515 101.967C245.285 101.967 244.239 101.547 243.376 100.708C242.525 99.8685 242.1 98.7455 242.1 97.3388C242.1 96.0149 242.513 94.9274 243.341 94.0763C244.18 93.2252 245.167 92.7997 246.302 92.7997C247.626 92.7997 248.66 93.2075 249.405 94.0231C250.15 94.8269 250.522 95.9144 250.522 97.2856C250.522 97.6521 250.504 97.8708 250.469 97.9417H244.157C244.18 98.5918 244.417 99.1297 244.866 99.5552C245.327 99.9808 245.876 100.194 246.515 100.194C247.626 100.194 248.347 99.6912 248.678 98.6864ZM253.746 101.701H251.69V88.8634H253.746V101.701ZM262.787 97.4275H257.787V95.6012H262.787V97.4275ZM275.612 101.701L274.424 98.5445H269.105L267.935 101.701H265.683L270.576 89.1293H273.041L277.935 101.701H275.612ZM271.764 91.4344L269.849 96.5764H273.679L271.764 91.4344ZM279.853 97.3566C279.853 98.184 280.066 98.8519 280.491 99.3602C280.917 99.8567 281.478 100.105 282.176 100.105C282.849 100.105 283.399 99.8507 283.825 99.3424C284.25 98.8342 284.463 98.1663 284.463 97.3388C284.463 96.5232 284.256 95.8731 283.842 95.3884C283.429 94.9038 282.879 94.6614 282.193 94.6614C281.508 94.6614 280.946 94.9097 280.509 95.4061C280.072 95.8908 279.853 96.5409 279.853 97.3566ZM286.449 88.8634V100.123C286.449 100.702 286.478 101.228 286.537 101.701H284.569C284.51 101.37 284.481 100.997 284.481 100.584C284.268 100.974 283.937 101.293 283.488 101.541C283.039 101.789 282.524 101.913 281.945 101.913C280.716 101.913 279.717 101.482 278.949 100.619C278.18 99.7562 277.796 98.6687 277.796 97.3566C277.796 96.0917 278.18 95.022 278.949 94.1472C279.729 93.2725 280.716 92.8351 281.91 92.8351C282.595 92.8351 283.145 92.9593 283.559 93.2075C283.984 93.4557 284.28 93.7453 284.445 94.0763V88.8634H286.449ZM287.576 99.3602L289.367 98.8637C289.402 99.2774 289.574 99.6261 289.881 99.9098C290.188 100.194 290.602 100.335 291.122 100.335C291.524 100.335 291.837 100.241 292.062 100.052C292.298 99.8626 292.416 99.6261 292.416 99.3424C292.416 98.846 292.08 98.5268 291.406 98.385L290.129 98.1013C289.384 97.9358 288.811 97.6284 288.409 97.1793C288.007 96.7301 287.806 96.1981 287.806 95.5835C287.806 94.8269 288.114 94.1768 288.728 93.633C289.343 93.0775 290.094 92.7997 290.98 92.7997C291.548 92.7997 292.05 92.8824 292.487 93.0479C292.925 93.2134 293.262 93.4321 293.498 93.704C293.746 93.964 293.935 94.2182 294.065 94.4664C294.195 94.7146 294.278 94.9629 294.314 95.2111L292.576 95.7076C292.529 95.3766 292.375 95.0811 292.115 94.821C291.867 94.5491 291.489 94.4132 290.98 94.4132C290.626 94.4132 290.33 94.5137 290.094 94.7146C289.857 94.9038 289.739 95.1343 289.739 95.4061C289.739 95.8908 290.029 96.1922 290.608 96.3104L291.92 96.5764C292.724 96.7537 293.338 97.0729 293.764 97.5339C294.19 97.9949 294.402 98.5505 294.402 99.2006C294.402 99.9217 294.113 100.566 293.533 101.133C292.966 101.689 292.168 101.967 291.14 101.967C290.549 101.967 290.017 101.878 289.544 101.701C289.083 101.523 288.717 101.299 288.445 101.027C288.185 100.743 287.978 100.465 287.824 100.194C287.682 99.9098 287.599 99.6321 287.576 99.3602Z" fill="#121619"/>
<path d="M212.328 114.073L210.413 114.676C210.331 114.191 210.088 113.748 209.686 113.346C209.285 112.944 208.705 112.743 207.949 112.743C207.322 112.743 206.802 112.92 206.389 113.275C205.987 113.629 205.786 114.055 205.786 114.551C205.786 115.414 206.276 115.952 207.257 116.165L209.066 116.537C210.153 116.75 210.993 117.182 211.584 117.832C212.175 118.482 212.47 119.256 212.47 120.154C212.47 121.195 212.068 122.093 211.265 122.85C210.473 123.594 209.391 123.967 208.02 123.967C206.542 123.967 205.39 123.582 204.562 122.814C203.735 122.034 203.268 121.13 203.161 120.101L205.147 119.534C205.218 120.243 205.502 120.84 205.998 121.325C206.495 121.809 207.169 122.052 208.02 122.052C208.753 122.052 209.314 121.892 209.704 121.573C210.106 121.242 210.307 120.822 210.307 120.314C210.307 119.9 210.159 119.546 209.864 119.25C209.568 118.943 209.155 118.73 208.623 118.612L206.85 118.24C205.868 118.039 205.088 117.631 204.509 117.016C203.942 116.401 203.658 115.633 203.658 114.711C203.658 113.659 204.078 112.755 204.917 111.998C205.756 111.242 206.761 110.863 207.931 110.863C209.267 110.863 210.289 111.188 210.999 111.839C211.708 112.477 212.151 113.222 212.328 114.073ZM215.675 123.701H213.618V110.863H215.675V123.701ZM216.964 121.36C216.964 120.627 217.2 120.042 217.673 119.605C218.158 119.156 218.79 118.872 219.57 118.754L221.787 118.417C222.212 118.358 222.425 118.151 222.425 117.796C222.425 117.406 222.289 117.093 222.017 116.856C221.745 116.608 221.337 116.484 220.794 116.484C220.274 116.484 219.86 116.632 219.552 116.927C219.245 117.211 219.068 117.583 219.021 118.044L217.141 117.619C217.224 116.839 217.596 116.177 218.258 115.633C218.92 115.077 219.759 114.8 220.776 114.8C222.029 114.8 222.951 115.101 223.542 115.704C224.145 116.307 224.446 117.081 224.446 118.027V122.318C224.446 122.885 224.482 123.346 224.553 123.701H222.638C222.579 123.523 222.549 123.157 222.549 122.601C221.982 123.512 221.095 123.967 219.889 123.967C219.015 123.967 218.305 123.713 217.762 123.204C217.23 122.684 216.964 122.069 216.964 121.36ZM220.279 122.353C220.918 122.353 221.432 122.182 221.822 121.839C222.224 121.484 222.425 120.911 222.425 120.119V119.729L220.173 120.066C219.405 120.196 219.021 120.586 219.021 121.236C219.021 121.543 219.133 121.809 219.357 122.034C219.582 122.247 219.889 122.353 220.279 122.353ZM229.876 116.697C229.214 116.697 228.653 116.939 228.192 117.424C227.731 117.897 227.5 118.547 227.5 119.374C227.5 120.214 227.731 120.876 228.192 121.36C228.665 121.845 229.238 122.087 229.912 122.087C230.515 122.087 230.993 121.928 231.348 121.608C231.715 121.277 231.957 120.905 232.075 120.491L233.884 121.147C233.647 121.916 233.186 122.578 232.501 123.133C231.827 123.689 230.964 123.967 229.912 123.967C228.647 123.967 227.583 123.529 226.72 122.655C225.869 121.78 225.444 120.686 225.444 119.374C225.444 118.05 225.863 116.957 226.703 116.094C227.554 115.231 228.606 114.8 229.859 114.8C230.934 114.8 231.809 115.077 232.483 115.633C233.168 116.189 233.612 116.856 233.813 117.637L231.969 118.31C231.85 117.861 231.62 117.483 231.277 117.176C230.946 116.856 230.479 116.697 229.876 116.697ZM242.998 115.066L239.451 118.718L243.069 123.701H240.551L238.015 120.172L236.951 121.289V123.701H234.912V110.863H236.951V118.559L240.267 115.066H242.998Z" fill="#121619" fill-opacity="0.5"/>
<path d="M206.592 143.028H205.199V136.399H202.921V135.398C203.56 135.388 204.096 135.223 204.532 134.904C204.967 134.575 205.238 134.15 205.344 133.628H206.592V143.028ZM207.528 140.475L208.892 140.069C208.93 140.649 209.143 141.118 209.53 141.476C209.926 141.834 210.42 142.013 211.01 142.013C211.58 142.013 212.059 141.839 212.446 141.491C212.833 141.142 213.026 140.683 213.026 140.112C213.026 139.493 212.833 139.015 212.446 138.676C212.059 138.338 211.575 138.168 210.995 138.168C210.289 138.168 209.718 138.396 209.283 138.85C209.148 138.802 208.925 138.715 208.616 138.589C208.306 138.463 208.065 138.367 207.891 138.299L209.109 133.628H214.071V134.933H210.052L209.356 137.632C209.772 137.167 210.41 136.935 211.271 136.935C212.209 136.935 212.973 137.216 213.563 137.777C214.163 138.338 214.462 139.097 214.462 140.054C214.462 140.963 214.143 141.728 213.505 142.346C212.867 142.956 212.035 143.26 211.01 143.26C210.042 143.26 209.235 142.99 208.587 142.448C207.949 141.906 207.596 141.249 207.528 140.475ZM216.825 143.028H215.476V136.05H216.781V136.979C216.994 136.611 217.294 136.331 217.681 136.137C218.068 135.944 218.474 135.847 218.899 135.847C219.354 135.847 219.77 135.958 220.147 136.181C220.524 136.403 220.805 136.732 220.988 137.167C221.472 136.287 222.251 135.847 223.324 135.847C223.991 135.847 224.557 136.075 225.021 136.529C225.495 136.984 225.732 137.641 225.732 138.502V143.028H224.383V138.647C224.383 138.164 224.257 137.777 224.006 137.487C223.764 137.196 223.397 137.051 222.903 137.051C222.43 137.051 222.043 137.221 221.743 137.559C221.443 137.888 221.293 138.304 221.293 138.807V143.028H219.929V138.647C219.929 138.164 219.804 137.777 219.552 137.487C219.31 137.196 218.943 137.051 218.45 137.051C217.966 137.051 217.574 137.216 217.275 137.545C216.975 137.873 216.825 138.299 216.825 138.821V143.028ZM228.611 143.028H227.262V136.05H228.611V143.028ZM227.233 134.106C227.049 133.913 226.957 133.681 226.957 133.41C226.957 133.139 227.049 132.907 227.233 132.714C227.426 132.52 227.658 132.424 227.929 132.424C228.2 132.424 228.432 132.52 228.625 132.714C228.819 132.897 228.916 133.13 228.916 133.41C228.916 133.681 228.819 133.913 228.625 134.106C228.432 134.29 228.2 134.382 227.929 134.382C227.658 134.382 227.426 134.29 227.233 134.106ZM231.642 138.995V143.028H230.278V136.05H231.613V137.051C232.077 136.249 232.793 135.847 233.76 135.847C234.563 135.847 235.177 136.104 235.602 136.616C236.038 137.129 236.255 137.791 236.255 138.604V143.028H234.892V138.836C234.892 137.665 234.35 137.08 233.267 137.08C232.754 137.08 232.353 137.264 232.063 137.632C231.782 137.989 231.642 138.444 231.642 138.995Z" fill="#121619" fill-opacity="0.48"/>
<g filter="url(#filter4_i_69_7907)">
<rect x="146.392" y="95.8999" width="39.8629" height="221.018" rx="19.9315" fill="#36C5F0"/>
</g>
<g filter="url(#filter5_d_69_7907)">
<rect x="141.305" y="83.895" width="50.4208" height="50.4208" rx="25.2104" fill="white"/>
<g clip-path="url(#clip0_69_7907)">
<path fill-rule="evenodd" clip-rule="evenodd" d="M161.978 92.3794C161.538 92.3798 161.102 92.4669 160.696 92.6356C160.29 92.8043 159.921 93.0514 159.61 93.3628C159.299 93.6741 159.053 94.0436 158.885 94.4502C158.717 94.8567 158.631 95.2924 158.632 95.7323C158.631 96.1721 158.717 96.6077 158.885 97.0141C159.053 97.4206 159.3 97.7901 159.61 98.1014C159.921 98.4126 160.29 98.6597 160.696 98.8284C161.102 98.9971 161.538 99.0841 161.978 99.0845H165.324V95.7323C165.324 95.2924 165.238 94.8567 165.07 94.4502C164.902 94.0436 164.656 93.6741 164.345 93.3628C164.034 93.0514 163.665 92.8043 163.259 92.6356C162.853 92.4669 162.417 92.3798 161.978 92.3794V92.3794ZM161.978 101.32H153.055C152.615 101.321 152.18 101.408 151.774 101.576C151.367 101.745 150.998 101.992 150.688 102.303C150.377 102.615 150.131 102.984 149.963 103.39C149.795 103.797 149.709 104.233 149.709 104.672C149.708 105.112 149.795 105.548 149.962 105.954C150.13 106.361 150.377 106.731 150.687 107.042C150.998 107.353 151.367 107.6 151.773 107.769C152.18 107.938 152.615 108.025 153.055 108.025H161.978C162.417 108.025 162.853 107.938 163.259 107.769C163.665 107.6 164.034 107.353 164.345 107.042C164.656 106.731 164.902 106.361 165.07 105.954C165.238 105.548 165.324 105.112 165.324 104.672C165.324 104.233 165.238 103.797 165.07 103.39C164.902 102.984 164.656 102.615 164.345 102.303C164.034 101.992 163.665 101.745 163.259 101.576C162.853 101.408 162.417 101.321 161.978 101.32" fill="#36C5F0"/>
<path fill-rule="evenodd" clip-rule="evenodd" d="M183.169 104.672C183.169 104.233 183.083 103.797 182.915 103.39C182.747 102.984 182.501 102.615 182.19 102.303C181.88 101.992 181.511 101.745 181.104 101.576C180.698 101.408 180.263 101.321 179.823 101.32C179.383 101.321 178.948 101.408 178.542 101.576C178.135 101.745 177.766 101.992 177.456 102.303C177.145 102.615 176.899 102.984 176.731 103.39C176.563 103.797 176.477 104.233 176.477 104.672V108.025H179.823C180.263 108.025 180.698 107.938 181.105 107.769C181.511 107.6 181.88 107.353 182.191 107.042C182.501 106.731 182.748 106.361 182.915 105.954C183.083 105.548 183.17 105.112 183.169 104.672ZM174.246 104.672V95.7323C174.247 95.2924 174.161 94.8567 173.993 94.4502C173.825 94.0436 173.579 93.6741 173.268 93.3628C172.957 93.0514 172.588 92.8043 172.182 92.6356C171.776 92.4669 171.34 92.3798 170.9 92.3794C170.46 92.3798 170.025 92.4669 169.619 92.6356C169.213 92.8043 168.844 93.0514 168.533 93.3628C168.222 93.6741 167.976 94.0436 167.808 94.4502C167.64 94.8567 167.554 95.2924 167.554 95.7323V104.672C167.554 105.112 167.64 105.548 167.808 105.954C167.976 106.361 168.222 106.731 168.533 107.042C168.844 107.353 169.213 107.6 169.619 107.769C170.025 107.938 170.46 108.025 170.9 108.025C171.34 108.025 171.776 107.938 172.182 107.769C172.588 107.6 172.957 107.353 173.268 107.042C173.579 106.731 173.825 106.361 173.993 105.954C174.161 105.548 174.247 105.112 174.246 104.672" fill="#2EB67D"/>
<path fill-rule="evenodd" clip-rule="evenodd" d="M170.9 125.907C171.34 125.906 171.776 125.819 172.182 125.65C172.588 125.482 172.957 125.235 173.268 124.923C173.579 124.612 173.825 124.242 173.993 123.836C174.161 123.429 174.247 122.994 174.246 122.554C174.247 122.114 174.161 121.678 173.993 121.272C173.825 120.865 173.578 120.496 173.268 120.185C172.957 119.873 172.588 119.626 172.182 119.458C171.776 119.289 171.34 119.202 170.9 119.201H167.554V122.554C167.554 122.994 167.64 123.429 167.808 123.836C167.976 124.242 168.222 124.612 168.533 124.923C168.844 125.235 169.213 125.482 169.619 125.65C170.025 125.819 170.46 125.906 170.9 125.907ZM170.9 116.966H179.823C180.263 116.965 180.698 116.878 181.104 116.71C181.511 116.541 181.88 116.294 182.19 115.983C182.501 115.671 182.747 115.302 182.915 114.895C183.083 114.489 183.169 114.053 183.169 113.614C183.17 113.174 183.083 112.738 182.915 112.332C182.748 111.925 182.501 111.555 182.191 111.244C181.88 110.933 181.511 110.686 181.105 110.517C180.698 110.348 180.263 110.261 179.823 110.261H170.9C170.46 110.261 170.025 110.348 169.619 110.517C169.213 110.686 168.844 110.933 168.533 111.244C168.222 111.555 167.976 111.925 167.808 112.332C167.64 112.738 167.554 113.174 167.554 113.614C167.554 114.053 167.64 114.489 167.808 114.895C167.976 115.302 168.222 115.671 168.533 115.983C168.844 116.294 169.213 116.541 169.619 116.71C170.025 116.878 170.461 116.965 170.9 116.966" fill="#ECB22E"/>
<path fill-rule="evenodd" clip-rule="evenodd" d="M149.709 113.614C149.709 114.053 149.795 114.489 149.963 114.895C150.131 115.302 150.377 115.671 150.688 115.983C150.998 116.294 151.367 116.541 151.774 116.71C152.18 116.878 152.615 116.965 153.055 116.966C153.495 116.965 153.93 116.878 154.336 116.71C154.743 116.541 155.111 116.294 155.422 115.983C155.733 115.671 155.979 115.302 156.147 114.895C156.315 114.489 156.401 114.053 156.401 113.614V110.261H153.055C152.615 110.261 152.179 110.348 151.773 110.517C151.367 110.686 150.998 110.933 150.687 111.244C150.376 111.556 150.13 111.925 149.962 112.332C149.794 112.739 149.708 113.174 149.709 113.614V113.614ZM158.632 113.614V122.554C158.631 122.994 158.717 123.429 158.885 123.836C159.053 124.242 159.299 124.612 159.61 124.923C159.921 125.235 160.29 125.482 160.696 125.65C161.102 125.819 161.538 125.906 161.978 125.907C162.417 125.906 162.853 125.819 163.259 125.65C163.665 125.482 164.034 125.235 164.345 124.923C164.656 124.612 164.902 124.242 165.07 123.836C165.238 123.429 165.324 122.994 165.324 122.554V113.614C165.324 113.174 165.238 112.739 165.07 112.332C164.902 111.926 164.656 111.556 164.345 111.245C164.034 110.933 163.665 110.686 163.259 110.518C162.853 110.349 162.417 110.262 161.978 110.261C161.538 110.262 161.102 110.349 160.696 110.518C160.29 110.686 159.921 110.933 159.61 111.245C159.299 111.556 159.053 111.926 158.885 112.332C158.717 112.739 158.631 113.174 158.632 113.614" fill="#E01E5A"/>
</g>
<rect x="142.149" y="84.7393" width="48.7322" height="48.7322" rx="24.3661" stroke="white" stroke-width="1.68855"/>
</g>
<defs>
<filter id="filter0_d_69_7907" x="0.75553" y="153.569" width="52.9097" height="52.9098" filterUnits="userSpaceOnUse" color-interpolation-filters="sRGB">
<feFlood flood-opacity="0" result="BackgroundImageFix"/>
<feColorMatrix in="SourceAlpha" type="matrix" values="0 0 0 0 0 0 0 0 0 0 0 0 0 0 0 0 0 0 127 0" result="hardAlpha"/>
<feMorphology radius="1.24447" operator="dilate" in="SourceAlpha" result="effect1_dropShadow_69_7907"/>
<feOffset/>
<feColorMatrix type="matrix" values="0 0 0 0 0 0 0 0 0 0 0 0 0 0 0 0 0 0 0.08 0"/>
<feBlend mode="normal" in2="BackgroundImageFix" result="effect1_dropShadow_69_7907"/>
<feBlend mode="normal" in="SourceGraphic" in2="effect1_dropShadow_69_7907" result="shape"/>
</filter>
<filter id="filter1_i_69_7907" x="44.4648" y="13.5181" width="39.4274" height="125.371" filterUnits="userSpaceOnUse" color-interpolation-filters="sRGB">
<feFlood flood-opacity="0" result="BackgroundImageFix"/>
<feBlend mode="normal" in="SourceGraphic" in2="BackgroundImageFix" result="shape"/>
<feColorMatrix in="SourceAlpha" type="matrix" values="0 0 0 0 0 0 0 0 0 0 0 0 0 0 0 0 0 0 127 0" result="hardAlpha"/>
<feMorphology radius="0.663696" operator="erode" in="SourceAlpha" result="effect1_innerShadow_69_7907"/>
<feOffset/>
<feComposite in2="hardAlpha" operator="arithmetic" k2="-1" k3="1"/>
<feColorMatrix type="matrix" values="0 0 0 0 0 0 0 0 0 0 0 0 0 0 0 0 0 0 0.17 0"/>
<feBlend mode="normal" in2="shape" result="effect1_innerShadow_69_7907"/>
</filter>
<filter id="filter2_d_69_7907" x="37.902" y="0.75553" width="52.9097" height="52.9098" filterUnits="userSpaceOnUse" color-interpolation-filters="sRGB">
<feFlood flood-opacity="0" result="BackgroundImageFix"/>
<feColorMatrix in="SourceAlpha" type="matrix" values="0 0 0 0 0 0 0 0 0 0 0 0 0 0 0 0 0 0 127 0" result="hardAlpha"/>
<feMorphology radius="1.24447" operator="dilate" in="SourceAlpha" result="effect1_dropShadow_69_7907"/>
<feOffset/>
<feColorMatrix type="matrix" values="0 0 0 0 0 0 0 0 0 0 0 0 0 0 0 0 0 0 0.08 0"/>
<feBlend mode="normal" in2="BackgroundImageFix" result="effect1_dropShadow_69_7907"/>
<feBlend mode="normal" in="SourceGraphic" in2="effect1_dropShadow_69_7907" result="shape"/>
</filter>
<filter id="filter3_d_69_7907" x="43.2766" y="7.2887" width="41.7084" height="41.7085" filterUnits="userSpaceOnUse" color-interpolation-filters="sRGB">
<feFlood flood-opacity="0" result="BackgroundImageFix"/>
<feColorMatrix in="SourceAlpha" type="matrix" values="0 0 0 0 0 0 0 0 0 0 0 0 0 0 0 0 0 0 127 0" result="hardAlpha"/>
<feOffset dy="1.15857"/>
<feGaussianBlur stdDeviation="1.15857"/>
<feColorMatrix type="matrix" values="0 0 0 0 0.0627451 0 0 0 0 0.0941176 0 0 0 0 0.156863 0 0 0 0.05 0"/>
<feBlend mode="normal" in2="BackgroundImageFix" result="effect1_dropShadow_69_7907"/>
<feBlend mode="normal" in="SourceGraphic" in2="effect1_dropShadow_69_7907" result="shape"/>
</filter>
<filter id="filter4_i_69_7907" x="146.392" y="95.8999" width="39.8629" height="221.018" filterUnits="userSpaceOnUse" color-interpolation-filters="sRGB">
<feFlood flood-opacity="0" result="BackgroundImageFix"/>
<feBlend mode="normal" in="SourceGraphic" in2="BackgroundImageFix" result="shape"/>
<feColorMatrix in="SourceAlpha" type="matrix" values="0 0 0 0 0 0 0 0 0 0 0 0 0 0 0 0 0 0 127 0" result="hardAlpha"/>
<feMorphology radius="0.663696" operator="erode" in="SourceAlpha" result="effect1_innerShadow_69_7907"/>
<feOffset/>
<feComposite in2="hardAlpha" operator="arithmetic" k2="-1" k3="1"/>
<feColorMatrix type="matrix" values="0 0 0 0 0 0 0 0 0 0 0 0 0 0 0 0 0 0 0.17 0"/>
<feBlend mode="normal" in2="shape" result="effect1_innerShadow_69_7907"/>
</filter>
<filter id="filter5_d_69_7907" x="140.06" y="82.6505" width="52.9097" height="52.9098" filterUnits="userSpaceOnUse" color-interpolation-filters="sRGB">
<feFlood flood-opacity="0" result="BackgroundImageFix"/>
<feColorMatrix in="SourceAlpha" type="matrix" values="0 0 0 0 0 0 0 0 0 0 0 0 0 0 0 0 0 0 127 0" result="hardAlpha"/>
<feMorphology radius="1.24447" operator="dilate" in="SourceAlpha" result="effect1_dropShadow_69_7907"/>
<feOffset/>
<feColorMatrix type="matrix" values="0 0 0 0 0 0 0 0 0 0 0 0 0 0 0 0 0 0 0.08 0"/>
<feBlend mode="normal" in2="BackgroundImageFix" result="effect1_dropShadow_69_7907"/>
<feBlend mode="normal" in="SourceGraphic" in2="effect1_dropShadow_69_7907" result="shape"/>
</filter>
<clipPath id="clip0_69_7907">
<rect width="33.6095" height="33.6095" fill="white" transform="translate(149.709 92.2969)"/>
</clipPath>
</defs>
</svg>
