<svg width="24" height="24" viewBox="0 0 24 24" fill="none" xmlns="http://www.w3.org/2000/svg">
<path opacity="0.4" d="M3 7.8C3 6.11984 3 5.27976 3.32698 4.63803C3.6146 4.07354 4.07354 3.6146 4.63803 3.32698C5.27976 3 6.11984 3 7.8 3H16.2C17.8802 3 18.7202 3 19.362 3.32698C19.9265 3.6146 20.3854 4.07354 20.673 4.63803C21 5.27976 21 6.11984 21 7.8V16.2C21 17.8802 21 18.7202 20.673 19.362C20.3854 19.9265 19.9265 20.3854 19.362 20.673C18.7202 21 17.8802 21 16.2 21H7.8C6.11984 21 5.27976 21 4.63803 20.673C4.07354 20.3854 3.6146 19.9265 3.32698 19.362C3 18.7202 3 17.8802 3 16.2V7.8Z" stroke="#8A3FFC" stroke-width="2" stroke-linecap="round" stroke-linejoin="round"/>
<path d="M9.08984 9.00002C9.32495 8.33169 9.789 7.76813 10.3998 7.40915C11.0106 7.05018 11.7287 6.91896 12.427 7.03873C13.1253 7.15851 13.7587 7.52154 14.2149 8.06355C14.6712 8.60555 14.9209 9.29154 14.9198 10C14.9198 12 11.9198 13 11.9198 13M11.9998 17H12.0098" stroke="#8A3FFC" stroke-width="2" stroke-linecap="round" stroke-linejoin="round"/>
</svg>
