<svg width="24" height="24" viewBox="0 0 24 24" fill="none" xmlns="http://www.w3.org/2000/svg">
<path opacity="0.4" d="M6.5 20H5C3.89543 20 3 19.1046 3 18V4C3 2.89543 3.89543 2 5 2H19C20.1046 2 21 2.89543 21 4V18C21 19.1046 20.1046 20 19 20H17.5" stroke="#8A3FFC" stroke-width="2" stroke-linecap="round" stroke-linejoin="round"/>
<path d="M11.9998 19C13.6566 19 14.9998 17.6569 14.9998 16C14.9998 14.3431 13.6566 13 11.9998 13C10.3429 13 8.99976 14.3431 8.99976 16C8.99976 17.6569 10.3429 19 11.9998 19ZM11.9998 19L12.0212 18.9998L8.82843 22.1926L6 19.3641L9.01941 16.3447M11.9998 19L15.1926 22.1926L18.021 19.3641L15.0016 16.3447M8.99976 6H14.9998M6.99976 9.5H16.9998" stroke="#8A3FFC" stroke-width="2" stroke-linecap="round" stroke-linejoin="round"/>
</svg>
