<svg width="94" height="122" viewBox="0 0 94 122" fill="none" xmlns="http://www.w3.org/2000/svg">
<path d="M8.09998 89.9L47.6 110L85.6 89.9V11.3H8.09998V89.9Z" fill="white"/>
<path d="M86.4 11.6L7.30005 91.3L48.3 111.6L86.4 92.1V11.6Z" fill="#F2F3F2"/>
<path d="M5.5 37.5V91.6L6.9 92.3L46.4 112.4L47.6 113L48.8 112.4L86.9 92.3L88.3 91.6V8.70001H5.5V37.5ZM8.1 90.1V11.3H85.7V90.1L47.6 110.2L8.1 90.1Z" fill="#DCDEDC"/>
<path d="M46.9001 12.6C47.3001 12.6 47.7 12.6 48.1 12.7L46.9001 15C45.1001 14.9 43.5001 16.3 43.4001 18.1C43.3001 19.9 44.7 21.5 46.5 21.6H46.9001C47.7001 21.6 48.5 21.3 49.1 20.8L50.4001 23C49.4001 23.7 48.2001 24.1 46.9001 24.1C43.7001 24.2 41.0001 21.8 40.9001 18.6C40.8001 15.4 43.2001 12.7 46.4001 12.6H46.9001ZM51 17.5L52.5 20L51 22.4L49.6 20H46.7001L48.2001 17.5H51ZM48.6 16.6C48.6 16.2 48.7001 15.8 48.9001 15.5C49.1001 15.2 49.5 14.9 49.8 14.7L50 14.6C50.4 14.4 50.5 14.3 50.5 14.1C50.5 13.9 50.2 13.7 50 13.7C49.6 13.7 49.3 13.9 49.1 14.3L48.6 13.8C48.7 13.6 48.9 13.4 49.1 13.2C49.4 13 49.7 13 50 13C50.3 13 50.7001 13.1 50.9001 13.3C51.1001 13.5 51.3 13.8 51.3 14.1C51.3 14.6 51.0001 15 50.4001 15.2L50.1 15.4C49.8 15.6 49.6 15.7 49.5 16H51.3V16.7L48.6 16.6ZM46.9001 29.1L56.4001 23.7V8.70001H37.3V23.6L46.9001 29.1Z" fill="#FF492C"/>
<path d="M90.2 64.5H3.60002L0.400024 71.5L3.60002 78.5H90.2L93.3 71.5L90.2 64.5Z" fill="#2690CE"/>
<path d="M10.77 60C10.7367 60 10.7067 59.9867 10.68 59.96C10.6533 59.9333 10.64 59.9033 10.64 59.87V52.43C10.64 52.3967 10.6533 52.3667 10.68 52.34C10.7067 52.3133 10.7367 52.3 10.77 52.3H12.06C12.1 52.3 12.13 52.3133 12.15 52.34C12.1767 52.3667 12.19 52.3967 12.19 52.43V59.87C12.19 59.9033 12.1767 59.9333 12.15 59.96C12.13 59.9867 12.1 60 12.06 60H10.77ZM19.7 54.26C20.2733 54.26 20.7233 54.4333 21.05 54.78C21.37 55.12 21.53 55.6033 21.53 56.23V59.87C21.53 59.9033 21.5167 59.9333 21.49 59.96C21.4633 59.9867 21.4333 60 21.4 60H20.11C20.0767 60 20.0467 59.9867 20.02 59.96C19.9933 59.9333 19.98 59.9033 19.98 59.87V56.57C19.98 56.27 19.9033 56.03 19.75 55.85C19.5967 55.6767 19.39 55.59 19.13 55.59C18.8767 55.59 18.67 55.6767 18.51 55.85C18.3433 56.03 18.26 56.2667 18.26 56.56V59.87C18.26 59.9033 18.25 59.9333 18.23 59.96C18.2033 59.9867 18.17 60 18.13 60H16.86C16.82 60 16.7867 59.9867 16.76 59.96C16.7333 59.9333 16.72 59.9033 16.72 59.87V56.57C16.72 56.2767 16.64 56.04 16.48 55.86C16.32 55.68 16.11 55.59 15.85 55.59C15.6167 55.59 15.4233 55.66 15.27 55.8C15.11 55.94 15.0167 56.1333 14.99 56.38V59.87C14.99 59.9033 14.9767 59.9333 14.95 59.96C14.9233 59.9867 14.89 60 14.85 60H13.57C13.53 60 13.4967 59.9867 13.47 59.96C13.4433 59.9333 13.43 59.9033 13.43 59.87V54.48C13.43 54.44 13.4433 54.4067 13.47 54.38C13.4967 54.36 13.53 54.35 13.57 54.35H14.85C14.89 54.35 14.9233 54.36 14.95 54.38C14.9767 54.4067 14.99 54.44 14.99 54.48V54.91C14.99 54.93 14.9967 54.9433 15.01 54.95C15.0233 54.9567 15.0367 54.95 15.05 54.93C15.35 54.4833 15.8167 54.26 16.45 54.26C16.8167 54.26 17.1367 54.3367 17.41 54.49C17.6833 54.6433 17.8933 54.8633 18.04 55.15C18.0667 55.19 18.0933 55.19 18.12 55.15C18.28 54.85 18.5 54.6267 18.78 54.48C19.0533 54.3333 19.36 54.26 19.7 54.26ZM27.67 55.86C27.8033 56.24 27.87 56.68 27.87 57.18C27.87 57.6867 27.8 58.1467 27.66 58.56C27.4867 59.0267 27.22 59.4 26.86 59.68C26.5 59.9533 26.05 60.09 25.51 60.09C24.9833 60.09 24.5733 59.9067 24.28 59.54C24.2667 59.52 24.2533 59.5133 24.24 59.52C24.22 59.5267 24.21 59.54 24.21 59.56V61.91C24.21 61.95 24.2 61.9833 24.18 62.01C24.1533 62.0367 24.12 62.05 24.08 62.05H22.8C22.76 62.05 22.7267 62.0367 22.7 62.01C22.6733 61.9833 22.66 61.95 22.66 61.91V54.48C22.66 54.44 22.6733 54.4067 22.7 54.38C22.7267 54.36 22.76 54.35 22.8 54.35H24.08C24.12 54.35 24.1533 54.36 24.18 54.38C24.2 54.4067 24.21 54.44 24.21 54.48V54.84C24.21 54.86 24.22 54.8733 24.24 54.88C24.2533 54.8867 24.2667 54.88 24.28 54.86C24.5867 54.46 25.0133 54.26 25.56 54.26C26.0667 54.26 26.5033 54.4 26.87 54.68C27.2433 54.9667 27.51 55.36 27.67 55.86ZM25.99 58.33C26.17 58.0433 26.26 57.6533 26.26 57.16C26.26 56.7 26.1833 56.3333 26.03 56.06C25.8633 55.7467 25.5933 55.59 25.22 55.59C24.88 55.59 24.6267 55.7467 24.46 56.06C24.3067 56.3267 24.23 56.6967 24.23 57.17C24.23 57.6633 24.31 58.0467 24.47 58.32C24.6367 58.6133 24.8867 58.76 25.22 58.76C25.5467 58.76 25.8033 58.6167 25.99 58.33ZM29 60C28.9667 60 28.9367 59.9867 28.91 59.96C28.8833 59.9333 28.87 59.9033 28.87 59.87V52.43C28.87 52.3967 28.8833 52.3667 28.91 52.34C28.9367 52.3133 28.9667 52.3 29 52.3H30.29C30.3233 52.3 30.3533 52.3133 30.38 52.34C30.4067 52.3667 30.42 52.3967 30.42 52.43V59.87C30.42 59.9033 30.4067 59.9333 30.38 59.96C30.3533 59.9867 30.3233 60 30.29 60H29ZM36.56 56.59C36.6 56.87 36.6133 57.1833 36.6 57.53C36.5933 57.6167 36.5467 57.66 36.46 57.66H33.06C33.0133 57.66 33 57.6767 33.02 57.71C33.04 57.8567 33.08 58.0033 33.14 58.15C33.3267 58.5633 33.7133 58.77 34.3 58.77C34.7733 58.7633 35.1433 58.5733 35.41 58.2C35.4433 58.1533 35.4767 58.13 35.51 58.13C35.5367 58.13 35.5633 58.1433 35.59 58.17L36.38 58.96C36.42 58.9933 36.44 59.0233 36.44 59.05C36.44 59.07 36.4233 59.1 36.39 59.14C36.15 59.44 35.84 59.6733 35.46 59.84C35.08 60.0067 34.66 60.09 34.2 60.09C33.5733 60.09 33.04 59.9467 32.6 59.66C32.1667 59.3733 31.8533 58.9733 31.66 58.46C31.5067 58.0933 31.43 57.6133 31.43 57.02C31.43 56.6133 31.4867 56.2567 31.6 55.95C31.7667 55.43 32.06 55.0167 32.48 54.71C32.9 54.4033 33.4 54.25 33.98 54.25C34.7133 54.25 35.3033 54.4633 35.75 54.89C36.19 55.31 36.46 55.8767 36.56 56.59ZM33.99 55.59C33.53 55.59 33.2267 55.8067 33.08 56.24C33.0534 56.3333 33.0267 56.45 33 56.59C33 56.63 33.02 56.65 33.06 56.65H34.96C35.0067 56.65 35.0233 56.63 35.01 56.59C34.97 56.3767 34.95 56.2733 34.95 56.28C34.8833 56.06 34.7667 55.89 34.6 55.77C34.44 55.65 34.2367 55.59 33.99 55.59ZM43.83 54.26C44.4034 54.26 44.85 54.4333 45.17 54.78C45.49 55.12 45.65 55.6033 45.65 56.23V59.87C45.65 59.9033 45.64 59.9333 45.62 59.96C45.5933 59.9867 45.56 60 45.52 60H44.24C44.2 60 44.1667 59.9867 44.14 59.96C44.1133 59.9333 44.1 59.9033 44.1 59.87V56.57C44.1 56.27 44.0233 56.03 43.87 55.85C43.7167 55.6767 43.5133 55.59 43.26 55.59C43 55.59 42.79 55.6767 42.63 55.85C42.47 56.03 42.39 56.2667 42.39 56.56V59.87C42.39 59.9033 42.3767 59.9333 42.35 59.96C42.3233 59.9867 42.2933 60 42.26 60H40.98C40.94 60 40.91 59.9867 40.89 59.96C40.8633 59.9333 40.85 59.9033 40.85 59.87V56.57C40.85 56.2767 40.77 56.04 40.61 55.86C40.4433 55.68 40.2333 55.59 39.98 55.59C39.7467 55.59 39.55 55.66 39.39 55.8C39.23 55.94 39.1367 56.1333 39.11 56.38V59.87C39.11 59.9033 39.0967 59.9333 39.07 59.96C39.0433 59.9867 39.0133 60 38.98 60H37.69C37.6567 60 37.6267 59.9867 37.6 59.96C37.5733 59.9333 37.56 59.9033 37.56 59.87V54.48C37.56 54.44 37.5733 54.4067 37.6 54.38C37.6267 54.36 37.6567 54.35 37.69 54.35H38.98C39.0133 54.35 39.0433 54.36 39.07 54.38C39.0967 54.4067 39.11 54.44 39.11 54.48V54.91C39.11 54.93 39.1167 54.9433 39.13 54.95C39.1433 54.9567 39.16 54.95 39.18 54.93C39.48 54.4833 39.9433 54.26 40.57 54.26C40.9367 54.26 41.2567 54.3367 41.53 54.49C41.81 54.6433 42.0233 54.8633 42.17 55.15C42.19 55.19 42.2134 55.19 42.24 55.15C42.4067 54.85 42.6267 54.6267 42.9 54.48C43.1734 54.3333 43.4834 54.26 43.83 54.26ZM51.71 56.59C51.7567 56.87 51.7733 57.1833 51.76 57.53C51.7533 57.6167 51.7067 57.66 51.62 57.66H48.22C48.1733 57.66 48.1567 57.6767 48.17 57.71C48.1967 57.8567 48.2367 58.0033 48.29 58.15C48.4833 58.5633 48.8733 58.77 49.46 58.77C49.9267 58.7633 50.2967 58.5733 50.57 58.2C50.5967 58.1533 50.63 58.13 50.67 58.13C50.69 58.13 50.7167 58.1433 50.75 58.17L51.54 58.96C51.5733 58.9933 51.59 59.0233 51.59 59.05C51.59 59.07 51.5767 59.1 51.55 59.14C51.31 59.44 50.9967 59.6733 50.61 59.84C50.23 60.0067 49.8133 60.09 49.36 60.09C48.7333 60.09 48.2 59.9467 47.76 59.66C47.3267 59.3733 47.0133 58.9733 46.82 58.46C46.6667 58.0933 46.59 57.6133 46.59 57.02C46.59 56.6133 46.6433 56.2567 46.75 55.95C46.9233 55.43 47.22 55.0167 47.64 54.71C48.06 54.4033 48.56 54.25 49.14 54.25C49.8733 54.25 50.4633 54.4633 50.91 54.89C51.35 55.31 51.6167 55.8767 51.71 56.59ZM49.15 55.59C48.69 55.59 48.3867 55.8067 48.24 56.24C48.2134 56.3333 48.1867 56.45 48.16 56.59C48.16 56.63 48.18 56.65 48.22 56.65H50.12C50.1667 56.65 50.18 56.63 50.16 56.59C50.1267 56.3767 50.11 56.2733 50.11 56.28C50.0433 56.06 49.9267 55.89 49.76 55.77C49.6 55.65 49.3967 55.59 49.15 55.59ZM55.66 54.26C56.2467 54.26 56.72 54.44 57.08 54.8C57.44 55.16 57.62 55.6467 57.62 56.26V59.87C57.62 59.9033 57.6067 59.9333 57.58 59.96C57.56 59.9867 57.53 60 57.49 60H56.2C56.1667 60 56.1367 59.9867 56.11 59.96C56.0833 59.9333 56.07 59.9033 56.07 59.87V56.58C56.07 56.2867 55.9867 56.0467 55.82 55.86C55.66 55.68 55.4433 55.59 55.17 55.59C54.8967 55.59 54.6767 55.68 54.51 55.86C54.35 56.0467 54.27 56.2867 54.27 56.58V59.87C54.27 59.9033 54.2567 59.9333 54.23 59.96C54.2033 59.9867 54.17 60 54.13 60H52.85C52.81 60 52.7767 59.9867 52.75 59.96C52.73 59.9333 52.72 59.9033 52.72 59.87V54.48C52.72 54.44 52.73 54.4067 52.75 54.38C52.7767 54.36 52.81 54.35 52.85 54.35H54.13C54.17 54.35 54.2033 54.36 54.23 54.38C54.2567 54.4067 54.27 54.44 54.27 54.48V54.86C54.27 54.8867 54.2767 54.9033 54.29 54.91C54.3033 54.9167 54.3133 54.9133 54.32 54.9C54.62 54.4733 55.0667 54.26 55.66 54.26ZM61.98 55.46C61.98 55.4933 61.9667 55.5233 61.94 55.55C61.9133 55.5767 61.8833 55.59 61.85 55.59H60.79C60.7567 55.59 60.74 55.6067 60.74 55.64V57.98C60.74 58.22 60.7867 58.4 60.88 58.52C60.98 58.6333 61.14 58.69 61.36 58.69H61.73C61.7633 58.69 61.7933 58.7033 61.82 58.73C61.8467 58.7567 61.86 58.7867 61.86 58.82V59.87C61.86 59.95 61.8167 59.9967 61.73 60.01C61.4167 60.0233 61.1933 60.03 61.06 60.03C60.4533 60.03 60 59.93 59.7 59.73C59.4 59.53 59.2467 59.15 59.24 58.59V55.64C59.24 55.6067 59.22 55.59 59.18 55.59H58.56C58.52 55.59 58.4867 55.5767 58.46 55.55C58.44 55.5233 58.43 55.4933 58.43 55.46V54.48C58.43 54.44 58.44 54.4067 58.46 54.38C58.4867 54.36 58.52 54.35 58.56 54.35H59.18C59.22 54.35 59.24 54.33 59.24 54.29V52.98C59.24 52.9467 59.2533 52.9167 59.28 52.89C59.3067 52.8633 59.3367 52.85 59.37 52.85H60.6C60.64 52.85 60.6733 52.8633 60.7 52.89C60.7267 52.9167 60.74 52.9467 60.74 52.98V54.29C60.74 54.33 60.7567 54.35 60.79 54.35H61.85C61.8833 54.35 61.9133 54.36 61.94 54.38C61.9667 54.4067 61.98 54.44 61.98 54.48V55.46ZM65.17 54.26C65.6433 54.26 66.0667 54.3433 66.44 54.51C66.82 54.67 67.1133 54.8933 67.32 55.18C67.5267 55.4667 67.63 55.7867 67.63 56.14V59.87C67.63 59.9033 67.6167 59.9333 67.59 59.96C67.57 59.9867 67.54 60 67.5 60H66.21C66.1767 60 66.1467 59.9867 66.12 59.96C66.0934 59.9333 66.08 59.9033 66.08 59.87V59.51C66.08 59.4833 66.0733 59.4667 66.06 59.46C66.0467 59.4533 66.0333 59.46 66.02 59.48C65.7067 59.8867 65.21 60.09 64.53 60.09C63.9567 60.09 63.4933 59.95 63.14 59.67C62.7933 59.39 62.62 58.98 62.62 58.44C62.62 57.8733 62.8167 57.4333 63.21 57.12C63.6033 56.8133 64.1667 56.66 64.9 56.66H66.03C66.0633 56.66 66.08 56.64 66.08 56.6V56.36C66.08 56.12 66.0067 55.93 65.86 55.79C65.7133 55.6567 65.4933 55.59 65.2 55.59C64.9733 55.59 64.7833 55.63 64.63 55.71C64.4833 55.79 64.3867 55.9033 64.34 56.05C64.32 56.13 64.2733 56.1667 64.2 56.16L62.87 55.99C62.7833 55.97 62.7433 55.9367 62.75 55.89C62.7767 55.5767 62.9 55.2967 63.12 55.05C63.3333 54.8033 63.6167 54.61 63.97 54.47C64.33 54.33 64.73 54.26 65.17 54.26ZM64.95 58.93C65.2633 58.93 65.53 58.8467 65.75 58.68C65.97 58.5133 66.08 58.2967 66.08 58.03V57.64C66.08 57.6 66.0633 57.58 66.03 57.58H65.23C64.9034 57.58 64.6467 57.6433 64.46 57.77C64.2733 57.89 64.18 58.0667 64.18 58.3C64.18 58.4933 64.25 58.6467 64.39 58.76C64.53 58.8733 64.7167 58.93 64.95 58.93ZM73.73 55.79C73.87 56.17 73.94 56.6233 73.94 57.15C73.94 57.6567 73.8767 58.1 73.75 58.48C73.5833 58.98 73.3134 59.3733 72.94 59.66C72.5667 59.9467 72.13 60.09 71.63 60.09C71.09 60.09 70.6667 59.8867 70.36 59.48C70.3467 59.4667 70.3333 59.4633 70.32 59.47C70.3 59.47 70.29 59.4833 70.29 59.51V59.87C70.29 59.9033 70.28 59.9333 70.26 59.96C70.2334 59.9867 70.2 60 70.16 60H68.88C68.84 60 68.8067 59.9867 68.78 59.96C68.7533 59.9333 68.74 59.9033 68.74 59.87V52.43C68.74 52.3967 68.7533 52.3667 68.78 52.34C68.8067 52.3133 68.84 52.3 68.88 52.3H70.16C70.2 52.3 70.2334 52.3133 70.26 52.34C70.28 52.3667 70.29 52.3967 70.29 52.43V54.79C70.29 54.81 70.3 54.8233 70.32 54.83C70.3333 54.8367 70.3467 54.83 70.36 54.81C70.6467 54.4433 71.0534 54.26 71.58 54.26C72.1134 54.26 72.5633 54.3967 72.93 54.67C73.29 54.9433 73.5567 55.3167 73.73 55.79ZM72.1 58.28C72.2533 58.0067 72.33 57.64 72.33 57.18C72.33 56.68 72.24 56.2933 72.06 56.02C71.8867 55.7333 71.6267 55.59 71.28 55.59C70.96 55.59 70.7167 55.7333 70.55 56.02C70.39 56.3 70.31 56.6833 70.31 57.17C70.31 57.6633 70.38 58.0333 70.52 58.28C70.7 58.6 70.96 58.76 71.3 58.76C71.6534 58.76 71.92 58.6 72.1 58.28ZM75.08 60C75.04 60 75.01 59.9867 74.99 59.96C74.9633 59.9333 74.95 59.9033 74.95 59.87V52.43C74.95 52.3967 74.9633 52.3667 74.99 52.34C75.01 52.3133 75.04 52.3 75.08 52.3H76.37C76.4034 52.3 76.4333 52.3133 76.46 52.34C76.4867 52.3667 76.5 52.3967 76.5 52.43V59.87C76.5 59.9033 76.4867 59.9333 76.46 59.96C76.4333 59.9867 76.4034 60 76.37 60H75.08ZM82.64 56.59C82.68 56.87 82.6933 57.1833 82.68 57.53C82.6733 57.6167 82.6267 57.66 82.54 57.66H79.14C79.0933 57.66 79.0767 57.6767 79.09 57.71C79.1167 57.8567 79.16 58.0033 79.22 58.15C79.4067 58.5633 79.7933 58.77 80.38 58.77C80.8467 58.7633 81.2167 58.5733 81.49 58.2C81.5233 58.1533 81.5567 58.13 81.59 58.13C81.61 58.13 81.6367 58.1433 81.67 58.17L82.46 58.96C82.5 58.9933 82.52 59.0233 82.52 59.05C82.52 59.07 82.5033 59.1 82.47 59.14C82.23 59.44 81.92 59.6733 81.54 59.84C81.1533 60.0067 80.7333 60.09 80.28 60.09C79.6533 60.09 79.12 59.9467 78.68 59.66C78.2467 59.3733 77.9333 58.9733 77.74 58.46C77.5867 58.0933 77.51 57.6133 77.51 57.02C77.51 56.6133 77.5633 56.2567 77.67 55.95C77.8433 55.43 78.14 55.0167 78.56 54.71C78.98 54.4033 79.48 54.25 80.06 54.25C80.7933 54.25 81.3834 54.4633 81.83 54.89C82.27 55.31 82.54 55.8767 82.64 56.59ZM80.07 55.59C79.61 55.59 79.3067 55.8067 79.16 56.24C79.1334 56.3333 79.1067 56.45 79.08 56.59C79.08 56.63 79.1 56.65 79.14 56.65H81.04C81.0867 56.65 81.1 56.63 81.08 56.59C81.0467 56.3767 81.03 56.2733 81.03 56.28C80.9633 56.06 80.8467 55.89 80.68 55.77C80.52 55.65 80.3167 55.59 80.07 55.59ZM40.29 41.39C40.33 41.33 40.38 41.3 40.44 41.3H41.73C41.77 41.3 41.8034 41.3133 41.83 41.34C41.85 41.3667 41.86 41.3967 41.86 41.43V48.87C41.86 48.9033 41.85 48.9333 41.83 48.96C41.8034 48.9867 41.77 49 41.73 49H40.44C40.4067 49 40.3767 48.9867 40.35 48.96C40.3233 48.9333 40.31 48.9033 40.31 48.87V44.02C40.31 43.9867 40.3033 43.97 40.29 43.97C40.2767 43.97 40.2633 43.9833 40.25 44.01L39.08 45.83C39.0467 45.89 38.9967 45.92 38.93 45.92H38.28C38.2133 45.92 38.16 45.89 38.12 45.83L36.96 44.01C36.9467 43.9833 36.93 43.9733 36.91 43.98C36.8967 43.98 36.89 43.9967 36.89 44.03V48.87C36.89 48.9033 36.8767 48.9333 36.85 48.96C36.83 48.9867 36.8 49 36.76 49H35.47C35.4367 49 35.4067 48.9867 35.38 48.96C35.3533 48.9333 35.34 48.9033 35.34 48.87V41.43C35.34 41.3967 35.3533 41.3667 35.38 41.34C35.4067 41.3133 35.4367 41.3 35.47 41.3H36.76C36.8267 41.3 36.8767 41.33 36.91 41.39L38.56 43.95C38.5867 43.9967 38.61 43.9967 38.63 43.95L40.29 41.39ZM45.6 49.09C44.9867 49.09 44.46 48.9267 44.02 48.6C43.58 48.28 43.28 47.84 43.12 47.28C43.0133 46.94 42.96 46.5667 42.96 46.16C42.96 45.7267 43.0133 45.34 43.12 45C43.2867 44.4533 43.59 44.0267 44.03 43.72C44.47 43.4133 44.9967 43.26 45.61 43.26C46.2167 43.26 46.73 43.41 47.15 43.71C47.5767 44.0167 47.88 44.4433 48.06 44.99C48.1733 45.3567 48.23 45.74 48.23 46.14C48.23 46.5333 48.18 46.9033 48.08 47.25C47.92 47.8233 47.62 48.2733 47.18 48.6C46.7467 48.9267 46.22 49.09 45.6 49.09ZM45.6 47.76C45.8467 47.76 46.0533 47.6867 46.22 47.54C46.3867 47.3933 46.5067 47.19 46.58 46.93C46.64 46.6967 46.67 46.44 46.67 46.16C46.67 45.8533 46.64 45.5933 46.58 45.38C46.5 45.1333 46.3767 44.94 46.21 44.8C46.0433 44.66 45.8367 44.59 45.59 44.59C45.3433 44.59 45.1367 44.66 44.97 44.8C44.8033 44.94 44.6833 45.1333 44.61 45.38C44.5567 45.56 44.53 45.82 44.53 46.16C44.53 46.4933 44.5533 46.75 44.6 46.93C44.6733 47.19 44.7967 47.3933 44.97 47.54C45.1433 47.6867 45.3533 47.76 45.6 47.76ZM51.49 49.08C50.9967 49.08 50.5667 49.01 50.2 48.87C49.8333 48.73 49.55 48.5367 49.35 48.29C49.15 48.0367 49.05 47.7533 49.05 47.44V47.33C49.05 47.29 49.0633 47.2567 49.09 47.23C49.11 47.21 49.14 47.2 49.18 47.2H50.4C50.4334 47.2 50.4634 47.21 50.49 47.23C50.5167 47.2567 50.53 47.29 50.53 47.33V47.34C50.53 47.5 50.62 47.6367 50.8 47.75C50.98 47.8633 51.2067 47.92 51.48 47.92C51.7267 47.92 51.9267 47.87 52.08 47.77C52.2334 47.67 52.31 47.55 52.31 47.41C52.31 47.2767 52.2467 47.1767 52.12 47.11C51.9867 47.0433 51.77 46.9733 51.47 46.9C51.1233 46.8133 50.85 46.73 50.65 46.65C50.1834 46.4833 49.81 46.2833 49.53 46.05C49.25 45.8167 49.11 45.48 49.11 45.04C49.11 44.5 49.3233 44.07 49.75 43.75C50.17 43.43 50.7267 43.27 51.42 43.27C51.8933 43.27 52.3034 43.3433 52.65 43.49C53.0034 43.6433 53.2767 43.8567 53.47 44.13C53.67 44.3967 53.77 44.7033 53.77 45.05C53.77 45.09 53.7567 45.12 53.73 45.14C53.7033 45.1667 53.67 45.18 53.63 45.18H52.46C52.42 45.18 52.3867 45.1667 52.36 45.14C52.3333 45.12 52.32 45.09 52.32 45.05C52.32 44.89 52.24 44.7533 52.08 44.64C51.9134 44.5333 51.6933 44.48 51.42 44.48C51.18 44.48 50.9834 44.5233 50.83 44.61C50.6767 44.6967 50.6 44.8167 50.6 44.97C50.6 45.1167 50.6733 45.2267 50.82 45.3C50.9733 45.3733 51.2267 45.4533 51.58 45.54C51.66 45.56 51.75 45.5833 51.85 45.61C51.9567 45.6367 52.0667 45.6667 52.18 45.7C52.7 45.8533 53.11 46.05 53.41 46.29C53.7167 46.5367 53.87 46.89 53.87 47.35C53.87 47.89 53.6533 48.3133 53.22 48.62C52.7933 48.9267 52.2167 49.08 51.49 49.08ZM57.99 44.46C57.99 44.4933 57.9767 44.5233 57.95 44.55C57.9233 44.5767 57.8933 44.59 57.86 44.59H56.8C56.7667 44.59 56.75 44.6067 56.75 44.64V46.98C56.75 47.22 56.8 47.4 56.9 47.52C56.9934 47.6333 57.15 47.69 57.37 47.69H57.74C57.7734 47.69 57.8034 47.7033 57.83 47.73C57.8567 47.7567 57.87 47.7867 57.87 47.82V48.87C57.87 48.95 57.8267 48.9967 57.74 49.01C57.4334 49.0233 57.2134 49.03 57.08 49.03C56.4667 49.03 56.01 48.93 55.71 48.73C55.41 48.53 55.2567 48.15 55.25 47.59V44.64C55.25 44.6067 55.2333 44.59 55.2 44.59H54.57C54.53 44.59 54.5 44.5767 54.48 44.55C54.4533 44.5233 54.44 44.4933 54.44 44.46V43.48C54.44 43.44 54.4533 43.4067 54.48 43.38C54.5 43.36 54.53 43.35 54.57 43.35H55.2C55.2333 43.35 55.25 43.33 55.25 43.29V41.98C55.25 41.9467 55.2633 41.9167 55.29 41.89C55.3167 41.8633 55.3467 41.85 55.38 41.85H56.62C56.6533 41.85 56.6833 41.8633 56.71 41.89C56.7367 41.9167 56.75 41.9467 56.75 41.98V43.29C56.75 43.33 56.7667 43.35 56.8 43.35H57.86C57.8933 43.35 57.9233 43.36 57.95 43.38C57.9767 43.4067 57.99 43.44 57.99 43.48V44.46Z" fill="#252530"/>
<path d="M33.1399 75.48C32.6199 75.48 32.1666 75.3967 31.7799 75.23C31.3933 75.0633 31.0933 74.83 30.8799 74.53C30.6733 74.23 30.5699 73.8767 30.5699 73.47V73.22C30.5699 73.1867 30.5833 73.1567 30.6099 73.13C30.6299 73.11 30.6566 73.1 30.6899 73.1H31.5799C31.6133 73.1 31.6433 73.11 31.6699 73.13C31.6899 73.1567 31.6999 73.1867 31.6999 73.22V73.41C31.6999 73.7167 31.8366 73.97 32.1099 74.17C32.3833 74.3767 32.7566 74.48 33.2299 74.48C33.6366 74.48 33.9433 74.3933 34.1499 74.22C34.3566 74.0467 34.4599 73.8233 34.4599 73.55C34.4599 73.3633 34.4033 73.2033 34.2899 73.07C34.1766 72.9433 34.0166 72.8267 33.8099 72.72C33.5966 72.6133 33.2799 72.48 32.8599 72.32C32.3866 72.1467 32.0033 71.9833 31.7099 71.83C31.4166 71.6767 31.1733 71.4667 30.9799 71.2C30.7799 70.94 30.6799 70.6133 30.6799 70.22C30.6799 69.6333 30.8933 69.17 31.3199 68.83C31.7466 68.49 32.3166 68.32 33.0299 68.32C33.5299 68.32 33.9733 68.4067 34.3599 68.58C34.7399 68.7533 35.0366 68.9967 35.2499 69.31C35.4633 69.6167 35.5699 69.9733 35.5699 70.38V70.55C35.5699 70.5833 35.5566 70.6133 35.5299 70.64C35.5099 70.66 35.4833 70.67 35.4499 70.67H34.5499C34.5166 70.67 34.4899 70.66 34.4699 70.64C34.4433 70.6133 34.4299 70.5833 34.4299 70.55V70.44C34.4299 70.1267 34.3033 69.8633 34.0499 69.65C33.7899 69.43 33.4333 69.32 32.9799 69.32C32.6133 69.32 32.3299 69.3967 32.1299 69.55C31.9233 69.7033 31.8199 69.92 31.8199 70.2C31.8199 70.4 31.8733 70.5633 31.9799 70.69C32.0866 70.8167 32.2466 70.93 32.4599 71.03C32.6733 71.1367 33.0033 71.27 33.4499 71.43C33.9233 71.61 34.3033 71.7733 34.5899 71.92C34.8699 72.0667 35.1133 72.27 35.3199 72.53C35.5199 72.7967 35.6199 73.1267 35.6199 73.52C35.6199 74.12 35.3966 74.5967 34.9499 74.95C34.5099 75.3033 33.9066 75.48 33.1399 75.48ZM39.5999 68.39C40.0199 68.39 40.3899 68.4767 40.7099 68.65C41.0299 68.8233 41.2766 69.0667 41.4499 69.38C41.6299 69.7 41.7199 70.0667 41.7199 70.48C41.7199 70.8867 41.6299 71.2467 41.4499 71.56C41.2699 71.8733 41.0166 72.1133 40.6899 72.28C40.3566 72.4533 39.9733 72.54 39.5399 72.54H37.9399C37.9066 72.54 37.8899 72.5567 37.8899 72.59V75.28C37.8899 75.3133 37.8799 75.34 37.8599 75.36C37.8333 75.3867 37.8033 75.4 37.7699 75.4H36.8499C36.8166 75.4 36.7899 75.3867 36.7699 75.36C36.7433 75.34 36.7299 75.3133 36.7299 75.28V68.51C36.7299 68.4767 36.7433 68.4467 36.7699 68.42C36.7899 68.4 36.8166 68.39 36.8499 68.39H39.5999ZM39.4299 71.6C39.7699 71.6 40.0433 71.5 40.2499 71.3C40.4566 71.1 40.5599 70.8367 40.5599 70.51C40.5599 70.1767 40.4566 69.9067 40.2499 69.7C40.0433 69.4933 39.7699 69.39 39.4299 69.39H37.9399C37.9066 69.39 37.8899 69.4067 37.8899 69.44V71.55C37.8899 71.5833 37.9066 71.6 37.9399 71.6H39.4299ZM46.6699 75.4C46.6033 75.4 46.5566 75.37 46.5299 75.31L45.2099 72.43C45.1966 72.4033 45.1766 72.39 45.1499 72.39H43.9499C43.9166 72.39 43.8999 72.4067 43.8999 72.44V75.28C43.8999 75.3133 43.8866 75.34 43.8599 75.36C43.8399 75.3867 43.8133 75.4 43.7799 75.4H42.8599C42.8266 75.4 42.7999 75.3867 42.7799 75.36C42.7533 75.34 42.7399 75.3133 42.7399 75.28V68.52C42.7399 68.4867 42.7533 68.46 42.7799 68.44C42.7999 68.4133 42.8266 68.4 42.8599 68.4H45.6099C46.0166 68.4 46.3766 68.4833 46.6899 68.65C47.0033 68.8233 47.2466 69.0633 47.4199 69.37C47.5933 69.6833 47.6799 70.04 47.6799 70.44C47.6799 70.9 47.5633 71.29 47.3299 71.61C47.0899 71.9367 46.7599 72.1633 46.3399 72.29C46.3266 72.29 46.3166 72.2967 46.3099 72.31C46.3033 72.3233 46.3033 72.3367 46.3099 72.35L47.7199 75.26C47.7333 75.2867 47.7399 75.3067 47.7399 75.32C47.7399 75.3733 47.7033 75.4 47.6299 75.4H46.6699ZM43.9499 69.4C43.9166 69.4 43.8999 69.4167 43.8999 69.45V71.44C43.8999 71.4733 43.9166 71.49 43.9499 71.49H45.4499C45.7699 71.49 46.0266 71.3933 46.2199 71.2C46.4199 71.0133 46.5199 70.7633 46.5199 70.45C46.5199 70.1367 46.4199 69.8833 46.2199 69.69C46.0266 69.4967 45.7699 69.4 45.4499 69.4H43.9499ZM48.9899 75.4C48.9566 75.4 48.9266 75.3867 48.8999 75.36C48.8799 75.34 48.8699 75.3133 48.8699 75.28V68.52C48.8699 68.4867 48.8799 68.46 48.8999 68.44C48.9266 68.4133 48.9566 68.4 48.9899 68.4H49.9099C49.9433 68.4 49.9699 68.4133 49.9899 68.44C50.0166 68.46 50.0299 68.4867 50.0299 68.52V75.28C50.0299 75.3133 50.0166 75.34 49.9899 75.36C49.9699 75.3867 49.9433 75.4 49.9099 75.4H48.9899ZM55.5599 68.52C55.5599 68.4867 55.5733 68.46 55.5999 68.44C55.6199 68.4133 55.6466 68.4 55.6799 68.4H56.5999C56.6333 68.4 56.6633 68.4133 56.6899 68.44C56.7099 68.46 56.7199 68.4867 56.7199 68.52V75.28C56.7199 75.3133 56.7099 75.34 56.6899 75.36C56.6633 75.3867 56.6333 75.4 56.5999 75.4H55.7099C55.6433 75.4 55.5966 75.3733 55.5699 75.32L52.6899 70.6C52.6766 70.58 52.6633 70.57 52.6499 70.57C52.6366 70.5767 52.6299 70.5933 52.6299 70.62L52.6499 75.28C52.6499 75.3133 52.6366 75.34 52.6099 75.36C52.5899 75.3867 52.5633 75.4 52.5299 75.4H51.6099C51.5766 75.4 51.5499 75.3867 51.5299 75.36C51.5033 75.34 51.4899 75.3133 51.4899 75.28V68.52C51.4899 68.4867 51.5033 68.46 51.5299 68.44C51.5499 68.4133 51.5766 68.4 51.6099 68.4H52.4999C52.5666 68.4 52.6133 68.4267 52.6399 68.48L55.5099 73.2C55.5233 73.22 55.5366 73.2267 55.5499 73.22C55.5633 73.22 55.5699 73.2067 55.5699 73.18L55.5599 68.52ZM60.5199 75.48C60.0199 75.48 59.5799 75.3833 59.1999 75.19C58.8199 74.99 58.5266 74.71 58.3199 74.35C58.1133 73.99 58.0099 73.5767 58.0099 73.11V70.69C58.0099 70.2167 58.1133 69.8 58.3199 69.44C58.5266 69.0867 58.8199 68.81 59.1999 68.61C59.5799 68.4167 60.0199 68.32 60.5199 68.32C61.0133 68.32 61.4499 68.4167 61.8299 68.61C62.2033 68.8033 62.4933 69.0667 62.6999 69.4C62.9066 69.7333 63.0099 70.11 63.0099 70.53V70.61C63.0099 70.6433 62.9999 70.67 62.9799 70.69C62.9533 70.7167 62.9233 70.73 62.8899 70.73H61.9799C61.9466 70.73 61.9199 70.7167 61.8999 70.69C61.8733 70.67 61.8599 70.6433 61.8599 70.61V70.56C61.8599 70.2 61.7366 69.9033 61.4899 69.67C61.2499 69.4367 60.9266 69.32 60.5199 69.32C60.1133 69.32 59.7866 69.4433 59.5399 69.69C59.2933 69.93 59.1699 70.25 59.1699 70.65V73.15C59.1699 73.55 59.2999 73.8733 59.5599 74.12C59.8199 74.36 60.1566 74.48 60.5699 74.48C60.9699 74.48 61.2866 74.3733 61.5199 74.16C61.7466 73.9533 61.8599 73.6667 61.8599 73.3V72.68C61.8599 72.6467 61.8433 72.63 61.8099 72.63H60.5799C60.5466 72.63 60.5166 72.6167 60.4899 72.59C60.4699 72.57 60.4599 72.5433 60.4599 72.51V71.77C60.4599 71.7367 60.4699 71.71 60.4899 71.69C60.5166 71.6633 60.5466 71.65 60.5799 71.65H62.8899C62.9233 71.65 62.9533 71.6633 62.9799 71.69C62.9999 71.71 63.0099 71.7367 63.0099 71.77V73.05C63.0099 73.8167 62.7866 74.4133 62.3399 74.84C61.8866 75.2667 61.2799 75.48 60.5199 75.48Z" fill="white"/>
<path d="M34.03 93.46C34.01 93.48 34.0033 93.5 34.01 93.52C34.0233 93.54 34.0433 93.55 34.07 93.55H38C38.0467 93.55 38.0867 93.5667 38.12 93.6C38.16 93.6334 38.18 93.6734 38.18 93.72V95.13C38.18 95.1767 38.16 95.2167 38.12 95.25C38.0867 95.2834 38.0467 95.3 38 95.3H31.48C31.4267 95.3 31.3833 95.2834 31.35 95.25C31.3167 95.2167 31.3 95.1767 31.3 95.13V93.79C31.3 93.7034 31.33 93.63 31.39 93.57C31.8633 93.11 32.3467 92.6067 32.84 92.06C33.3333 91.5134 33.6433 91.1734 33.77 91.04C34.0367 90.72 34.31 90.4134 34.59 90.12C35.47 89.1467 35.91 88.4234 35.91 87.95C35.91 87.61 35.79 87.33 35.55 87.11C35.31 86.8967 34.9967 86.79 34.61 86.79C34.2233 86.79 33.91 86.8967 33.67 87.11C33.4233 87.33 33.3 87.62 33.3 87.98V88.34C33.3 88.3867 33.2833 88.4267 33.25 88.46C33.2167 88.4934 33.1767 88.51 33.13 88.51H31.42C31.3733 88.51 31.3333 88.4934 31.3 88.46C31.26 88.4267 31.24 88.3867 31.24 88.34V87.66C31.2733 87.14 31.44 86.6767 31.74 86.27C32.04 85.87 32.4367 85.5634 32.93 85.35C33.43 85.1367 33.99 85.03 34.61 85.03C35.2967 85.03 35.8933 85.16 36.4 85.42C36.9067 85.6734 37.2967 86.0167 37.57 86.45C37.85 86.89 37.99 87.3734 37.99 87.9C37.99 88.3067 37.8867 88.7234 37.68 89.15C37.48 89.5767 37.1767 90.0367 36.77 90.53C36.47 90.9034 36.1467 91.2767 35.8 91.65C35.4533 92.0167 34.9367 92.5467 34.25 93.24L34.03 93.46ZM42.89 95.46C41.8233 95.46 40.9833 95.1634 40.37 94.57C39.75 93.9767 39.44 93.1667 39.44 92.14V88.31C39.44 87.3034 39.75 86.5067 40.37 85.92C40.9833 85.3267 41.8233 85.03 42.89 85.03C43.95 85.03 44.7933 85.3267 45.42 85.92C46.04 86.5067 46.35 87.3034 46.35 88.31V92.14C46.35 93.1667 46.04 93.9767 45.42 94.57C44.7933 95.1634 43.95 95.46 42.89 95.46ZM42.89 93.71C43.3233 93.71 43.6667 93.5767 43.92 93.31C44.18 93.0434 44.31 92.6867 44.31 92.24V88.25C44.31 87.81 44.18 87.4567 43.92 87.19C43.6667 86.9234 43.3233 86.79 42.89 86.79C42.4633 86.79 42.1233 86.9234 41.87 87.19C41.61 87.4567 41.48 87.81 41.48 88.25V92.24C41.48 92.6867 41.61 93.0434 41.87 93.31C42.1233 93.5767 42.4633 93.71 42.89 93.71ZM50.41 93.46C50.39 93.48 50.3867 93.5 50.4 93.52C50.4067 93.54 50.4267 93.55 50.46 93.55H54.39C54.4367 93.55 54.4767 93.5667 54.51 93.6C54.5433 93.6334 54.56 93.6734 54.56 93.72V95.13C54.56 95.1767 54.5433 95.2167 54.51 95.25C54.4767 95.2834 54.4367 95.3 54.39 95.3H47.86C47.8133 95.3 47.7733 95.2834 47.74 95.25C47.7067 95.2167 47.69 95.1767 47.69 95.13V93.79C47.69 93.7034 47.7167 93.63 47.77 93.57C48.25 93.11 48.7333 92.6067 49.22 92.06C49.7133 91.5134 50.0233 91.1734 50.15 91.04C50.4233 90.72 50.7 90.4134 50.98 90.12C51.86 89.1467 52.3 88.4234 52.3 87.95C52.3 87.61 52.18 87.33 51.94 87.11C51.6933 86.8967 51.3767 86.79 50.99 86.79C50.6033 86.79 50.29 86.8967 50.05 87.11C49.81 87.33 49.69 87.62 49.69 87.98V88.34C49.69 88.3867 49.6733 88.4267 49.64 88.46C49.6067 88.4934 49.5633 88.51 49.51 88.51H47.8C47.7533 88.51 47.7133 88.4934 47.68 88.46C47.6467 88.4267 47.63 88.3867 47.63 88.34V87.66C47.6567 87.14 47.82 86.6767 48.12 86.27C48.42 85.87 48.82 85.5634 49.32 85.35C49.82 85.1367 50.3767 85.03 50.99 85.03C51.6767 85.03 52.2733 85.16 52.78 85.42C53.2933 85.6734 53.6867 86.0167 53.96 86.45C54.2333 86.89 54.37 87.3734 54.37 87.9C54.37 88.3067 54.27 88.7234 54.07 89.15C53.8633 89.5767 53.5567 90.0367 53.15 90.53C52.85 90.9034 52.5267 91.2767 52.18 91.65C51.8333 92.0167 51.3167 92.5467 50.63 93.24L50.41 93.46ZM61.87 90.46C62.0633 90.9 62.16 91.41 62.16 91.99C62.16 92.5167 62.0733 93 61.9 93.44C61.6667 94.06 61.2767 94.5434 60.73 94.89C60.1833 95.2434 59.5367 95.42 58.79 95.42C58.0567 95.42 57.4133 95.2367 56.86 94.87C56.3067 94.4967 55.9067 93.9967 55.66 93.37C55.5267 92.9967 55.45 92.59 55.43 92.15C55.43 92.0367 55.4867 91.98 55.6 91.98H57.32C57.4333 91.98 57.49 92.0367 57.49 92.15C57.53 92.47 57.5833 92.7067 57.65 92.86C57.7367 93.1134 57.88 93.31 58.08 93.45C58.2733 93.59 58.5067 93.66 58.78 93.66C59.32 93.66 59.6933 93.4234 59.9 92.95C60.0333 92.6634 60.1 92.3267 60.1 91.94C60.1 91.48 60.0267 91.1067 59.88 90.82C59.66 90.3667 59.29 90.14 58.77 90.14C58.6633 90.14 58.55 90.17 58.43 90.23C58.3167 90.2967 58.1767 90.3867 58.01 90.5C57.97 90.5267 57.9333 90.54 57.9 90.54C57.84 90.54 57.7967 90.5134 57.77 90.46L56.91 89.25C56.89 89.2234 56.88 89.19 56.88 89.15C56.88 89.09 56.9 89.0434 56.94 89.01L59.24 86.99C59.26 86.97 59.27 86.95 59.27 86.93C59.2633 86.91 59.2467 86.9 59.22 86.9H55.81C55.7633 86.9 55.72 86.8834 55.68 86.85C55.6467 86.8167 55.63 86.7767 55.63 86.73V85.32C55.63 85.2734 55.6467 85.2334 55.68 85.2C55.72 85.1667 55.7633 85.15 55.81 85.15H61.85C61.9033 85.15 61.9467 85.1667 61.98 85.2C62.0133 85.2334 62.03 85.2734 62.03 85.32V86.92C62.03 86.9934 61.9967 87.0667 61.93 87.14L60.03 88.88C60.01 88.9 60.0033 88.9167 60.01 88.93C60.01 88.95 60.03 88.96 60.07 88.96C60.91 89.1267 61.51 89.6267 61.87 90.46Z" fill="#252530"/>
</svg>
