<svg width="1122" height="317" viewBox="0 0 1122 317" fill="none" xmlns="http://www.w3.org/2000/svg">
<g opacity="0.4">
<path d="M1 84.1514C74.2468 156.923 164.427 237.977 327.482 275.106C594.065 335.809 796.788 118.088 1121 95.3398" stroke="url(#paint0_linear_69_7910)" stroke-width="1.0837"/>
<path d="M2.41406 165.173C31.4871 181.167 66.788 191.576 109.448 194.159C395.92 211.501 558.361 -52.6439 778.17 13.4411C976.1 72.9487 1032.14 245.373 1121 315.46" stroke="url(#paint1_linear_69_7910)" stroke-width="1.0837"/>
<path d="M2.41406 62.3608C258.633 167.45 362.393 257.701 636.028 302.032C860.252 338.358 999.034 293.088 1121 267.036" stroke="url(#paint2_linear_69_7910)" stroke-width="1.0837"/>
<path d="M1063.8 259.611C1062.96 258.152 1063.46 256.287 1064.92 255.444C1066.38 254.602 1068.25 255.102 1069.09 256.561C1069.93 258.02 1069.43 259.886 1067.97 260.728C1066.51 261.57 1064.65 261.07 1063.8 259.611Z" fill="#FFB300"/>
<path d="M478.77 80.4097C477.927 78.9506 478.427 77.085 479.887 76.2426C481.346 75.4002 483.212 75.9001 484.054 77.3592C484.897 78.8182 484.397 80.6839 482.938 81.5262C481.478 82.3686 479.612 81.8687 478.77 80.4097Z" fill="#FCDE5A"/>
<path d="M866.423 153.098C865.3 151.153 865.967 148.665 867.913 147.542C869.858 146.419 872.346 147.085 873.47 149.031C874.593 150.976 873.927 153.464 871.981 154.587C870.035 155.71 867.547 155.044 866.423 153.098Z" fill="white"/>
<path d="M941.6 111.314C941.039 110.342 941.372 109.098 942.345 108.536C943.318 107.975 944.562 108.308 945.124 109.281C945.685 110.253 945.352 111.497 944.379 112.059C943.406 112.62 942.162 112.287 941.6 111.314Z" fill="#FFB300"/>
<path d="M726.975 5.69238C726.132 4.23335 726.632 2.36769 728.092 1.52531C729.551 0.682937 731.417 1.18284 732.26 2.64187C733.102 4.10091 732.602 5.96657 731.143 6.80894C729.683 7.65132 727.817 7.15142 726.975 5.69238Z" fill="white"/>
<path d="M510.584 278.3C509.742 276.841 510.242 274.975 511.701 274.133C513.16 273.29 515.026 273.79 515.869 275.249C516.712 276.708 516.212 278.574 514.752 279.416C513.293 280.259 511.427 279.759 510.584 278.3Z" fill="#FFB300"/>
<path d="M283.209 265.529C282.367 264.07 282.867 262.204 284.326 261.362C285.785 260.519 287.651 261.019 288.494 262.478C289.337 263.937 288.837 265.803 287.377 266.645C285.918 267.488 284.052 266.988 283.209 265.529Z" fill="#FFD181"/>
<path d="M885.612 312.573C884.769 311.114 885.269 309.249 886.728 308.406C888.188 307.564 890.054 308.064 890.896 309.523C891.739 310.982 891.239 312.847 889.779 313.69C888.32 314.532 886.454 314.032 885.612 312.573Z" fill="white"/>
</g>
<defs>
<linearGradient id="paint0_linear_69_7910" x1="1055.89" y1="285.75" x2="1" y2="285.75" gradientUnits="userSpaceOnUse">
<stop stop-color="white"/>
<stop offset="0.828125" stop-color="#FFB300"/>
</linearGradient>
<linearGradient id="paint1_linear_69_7910" x1="1101.58" y1="292.658" x2="79.2533" y2="114.254" gradientUnits="userSpaceOnUse">
<stop stop-color="#FCDE5A"/>
<stop offset="1" stop-color="#FFB300"/>
</linearGradient>
<linearGradient id="paint2_linear_69_7910" x1="1329.19" y1="315.598" x2="93.1925" y2="315.598" gradientUnits="userSpaceOnUse">
<stop stop-color="#FFDE66"/>
<stop offset="0.881956" stop-color="white"/>
</linearGradient>
</defs>
</svg>
