<svg width="94" height="122" viewBox="0 0 94 122" fill="none" xmlns="http://www.w3.org/2000/svg">
<path d="M8.09998 89.9L47.6 110L85.6 89.9V11.3H8.09998V89.9Z" fill="white"/>
<path d="M86.4 11.6L7.29999 91.3L48.3 111.6L86.4 92.1V11.6Z" fill="#F2F3F2"/>
<path d="M5.5 37.5V91.6L6.9 92.3L46.4 112.4L47.6 113L48.8 112.4L86.9 92.3L88.3 91.6V8.70001H5.5V37.5ZM8.1 90.1V11.3H85.7V90.1L47.6 110.2L8.1 90.1Z" fill="#DCDEDC"/>
<path d="M46.9 12.6C47.3 12.6 47.7 12.6 48.1 12.7L46.9 15C45.1 14.9 43.5 16.3 43.4 18.1C43.3 19.9 44.7 21.5 46.5 21.6H46.9C47.7 21.6 48.5 21.3 49.1 20.8L50.4 23C49.4 23.7 48.2 24.1 46.9 24.1C43.7 24.2 41 21.8 40.9 18.6C40.8 15.4 43.2 12.7 46.4 12.6H46.9ZM51 17.5L52.5 20L51 22.4L49.6 20H46.7L48.2 17.5H51ZM48.6 16.6C48.6 16.2 48.7 15.8 48.9 15.5C49.1 15.2 49.5 14.9 49.8 14.7L50 14.6C50.4 14.4 50.5 14.3 50.5 14.1C50.5 13.9 50.2 13.7 50 13.7C49.6 13.7 49.3 13.9 49.1 14.3L48.6 13.8C48.7 13.6 48.9 13.4 49.1 13.2C49.4 13 49.7 13 50 13C50.3 13 50.7 13.1 50.9 13.3C51.1 13.5 51.3 13.8 51.3 14.1C51.3 14.6 51 15 50.4 15.2L50.1 15.4C49.8 15.6 49.6 15.7 49.5 16H51.3V16.7L48.6 16.6ZM46.9 29.1L56.4 23.7V8.70001H37.3V23.6L46.9 29.1ZM90.2 64.5H3.60002L0.400024 71.5L3.60002 78.5H90.2L93.3 71.5L90.2 64.5Z" fill="#FF492C"/>
<path d="M19.09 60C19.03 60 18.98 59.98 18.94 59.94C18.9 59.8934 18.88 59.84 18.88 59.78V47.62C18.88 47.56 18.9 47.5067 18.94 47.46C18.98 47.42 19.03 47.4 19.09 47.4H21.2C21.26 47.4 21.31 47.42 21.35 47.46C21.3967 47.5067 21.42 47.56 21.42 47.62V57.73C21.42 57.79 21.45 57.82 21.51 57.82H27.39C27.45 57.82 27.5033 57.84 27.55 57.88C27.59 57.9267 27.61 57.98 27.61 58.04V59.78C27.61 59.84 27.59 59.8934 27.55 59.94C27.5033 59.98 27.45 60 27.39 60H19.09ZM37.2 54.42C37.2733 54.8734 37.2967 55.3834 37.27 55.95C37.2633 56.0967 37.1867 56.17 37.04 56.17H31.48C31.4067 56.17 31.3833 56.2 31.41 56.26C31.4433 56.5 31.5067 56.74 31.6 56.98C31.9133 57.6467 32.55 57.98 33.51 57.98C34.2767 57.9734 34.8833 57.6634 35.33 57.05C35.3767 56.9767 35.43 56.94 35.49 56.94C35.53 56.94 35.5733 56.9634 35.62 57.01L36.91 58.29C36.97 58.35 37 58.4034 37 58.45C37 58.4767 36.9767 58.5267 36.93 58.6C36.5367 59.0867 36.0267 59.4667 35.4 59.74C34.78 60.0067 34.0967 60.14 33.35 60.14C32.3167 60.14 31.4433 59.9067 30.73 59.44C30.0167 58.9734 29.5033 58.32 29.19 57.48C28.9367 56.88 28.81 56.0934 28.81 55.12C28.81 54.46 28.9 53.88 29.08 53.38C29.36 52.5267 29.8433 51.8467 30.53 51.34C31.2233 50.84 32.0433 50.59 32.99 50.59C34.19 50.59 35.1533 50.9367 35.88 51.63C36.6067 52.3234 37.0467 53.2534 37.2 54.42ZM33.01 52.78C32.25 52.78 31.75 53.1334 31.51 53.84C31.4633 54 31.4233 54.1934 31.39 54.42C31.39 54.48 31.42 54.51 31.48 54.51H34.59C34.6633 54.51 34.6867 54.48 34.66 54.42C34.6 54.0734 34.57 53.9067 34.57 53.92C34.4633 53.56 34.2767 53.28 34.01 53.08C33.7367 52.88 33.4033 52.78 33.01 52.78ZM42.44 50.6C43.22 50.6 43.9167 50.7367 44.53 51.01C45.1433 51.2767 45.62 51.6467 45.96 52.12C46.3 52.5867 46.47 53.1067 46.47 53.68V59.78C46.47 59.84 46.45 59.8934 46.41 59.94C46.37 59.98 46.32 60 46.26 60H44.15C44.09 60 44.04 59.98 44 59.94C43.9533 59.8934 43.93 59.84 43.93 59.78V59.19C43.93 59.1567 43.92 59.1334 43.9 59.12C43.8733 59.1067 43.85 59.1167 43.83 59.15C43.3233 59.81 42.5133 60.14 41.4 60.14C40.46 60.14 39.7033 59.9134 39.13 59.46C38.55 59.0067 38.26 58.3334 38.26 57.44C38.26 56.52 38.5867 55.8034 39.24 55.29C39.8867 54.7834 40.81 54.53 42.01 54.53H43.84C43.9 54.53 43.93 54.5 43.93 54.44V54.04C43.93 53.6467 43.81 53.3367 43.57 53.11C43.33 52.89 42.97 52.78 42.49 52.78C42.1233 52.78 41.8167 52.8467 41.57 52.98C41.3233 53.1134 41.1633 53.3 41.09 53.54C41.0567 53.6734 40.98 53.7334 40.86 53.72L38.68 53.43C38.5333 53.4034 38.4667 53.35 38.48 53.27C38.5267 52.7634 38.7267 52.3067 39.08 51.9C39.4333 51.4934 39.9033 51.1767 40.49 50.95C41.07 50.7167 41.72 50.6 42.44 50.6ZM42.08 58.25C42.5933 58.25 43.03 58.1134 43.39 57.84C43.75 57.5667 43.93 57.2134 43.93 56.78V56.13C43.93 56.07 43.9 56.04 43.84 56.04H42.55C42.01 56.04 41.5867 56.1434 41.28 56.35C40.9733 56.55 40.82 56.8367 40.82 57.21C40.82 57.5367 40.9333 57.79 41.16 57.97C41.3867 58.1567 41.6933 58.25 42.08 58.25ZM54 47.62C54 47.56 54.02 47.5067 54.06 47.46C54.1 47.42 54.15 47.4 54.21 47.4H56.32C56.38 47.4 56.43 47.42 56.47 47.46C56.51 47.5067 56.53 47.56 56.53 47.62V59.78C56.53 59.84 56.51 59.8934 56.47 59.94C56.43 59.98 56.38 60 56.32 60H54.21C54.15 60 54.1 59.98 54.06 59.94C54.02 59.8934 54 59.84 54 59.78V59.19C54 59.1567 53.9867 59.1367 53.96 59.13C53.9333 59.1234 53.91 59.13 53.89 59.15C53.3833 59.81 52.6933 60.14 51.82 60.14C50.98 60.14 50.2567 59.9067 49.65 59.44C49.0433 58.9734 48.6067 58.3334 48.34 57.52C48.14 56.8934 48.04 56.1667 48.04 55.34C48.04 54.4867 48.1467 53.7434 48.36 53.11C48.64 52.3367 49.0767 51.7267 49.67 51.28C50.2633 50.8267 50.9967 50.6 51.87 50.6C52.7367 50.6 53.41 50.9 53.89 51.5C53.91 51.54 53.9333 51.5534 53.96 51.54C53.9867 51.5267 54 51.5034 54 51.47V47.62ZM53.62 57.19C53.86 56.75 53.98 56.1434 53.98 55.37C53.98 54.57 53.8467 53.94 53.58 53.48C53.3067 53.0134 52.9067 52.78 52.38 52.78C51.8133 52.78 51.3867 53.0134 51.1 53.48C50.8 53.9534 50.65 54.59 50.65 55.39C50.65 56.11 50.7767 56.71 51.03 57.19C51.33 57.71 51.7733 57.97 52.36 57.97C52.9 57.97 53.32 57.71 53.62 57.19ZM66.63 54.42C66.7033 54.8734 66.7267 55.3834 66.7 55.95C66.6933 56.0967 66.6167 56.17 66.47 56.17H60.91C60.8367 56.17 60.8133 56.2 60.84 56.26C60.8733 56.5 60.9367 56.74 61.03 56.98C61.3433 57.6467 61.98 57.98 62.94 57.98C63.7067 57.9734 64.3133 57.6634 64.76 57.05C64.8067 56.9767 64.86 56.94 64.92 56.94C64.96 56.94 65.0033 56.9634 65.05 57.01L66.34 58.29C66.4 58.35 66.43 58.4034 66.43 58.45C66.43 58.4767 66.4067 58.5267 66.36 58.6C65.9667 59.0867 65.4567 59.4667 64.83 59.74C64.21 60.0067 63.5267 60.14 62.78 60.14C61.7467 60.14 60.8733 59.9067 60.16 59.44C59.4467 58.9734 58.9333 58.32 58.62 57.48C58.3667 56.88 58.24 56.0934 58.24 55.12C58.24 54.46 58.33 53.88 58.51 53.38C58.79 52.5267 59.2733 51.8467 59.96 51.34C60.6533 50.84 61.4733 50.59 62.42 50.59C63.62 50.59 64.5833 50.9367 65.31 51.63C66.0367 52.3234 66.4767 53.2534 66.63 54.42ZM62.44 52.78C61.68 52.78 61.18 53.1334 60.94 53.84C60.8933 54 60.8533 54.1934 60.82 54.42C60.82 54.48 60.85 54.51 60.91 54.51H64.02C64.0933 54.51 64.1167 54.48 64.09 54.42C64.03 54.0734 64 53.9067 64 53.92C63.8933 53.56 63.7067 53.28 63.44 53.08C63.1667 52.88 62.8333 52.78 62.44 52.78ZM72.88 50.62C73.3133 50.62 73.6533 50.7034 73.9 50.87C74 50.9234 74.0367 51.0134 74.01 51.14L73.63 53.2C73.6233 53.34 73.54 53.38 73.38 53.32C73.2 53.26 72.99 53.23 72.75 53.23C72.6567 53.23 72.5267 53.2434 72.36 53.27C71.9267 53.3034 71.56 53.46 71.26 53.74C70.96 54.0267 70.81 54.4034 70.81 54.87V59.78C70.81 59.84 70.79 59.8934 70.75 59.94C70.7033 59.98 70.65 60 70.59 60H68.49C68.43 60 68.3767 59.98 68.33 59.94C68.29 59.8934 68.27 59.84 68.27 59.78V50.96C68.27 50.9 68.29 50.85 68.33 50.81C68.3767 50.77 68.43 50.75 68.49 50.75H70.59C70.65 50.75 70.7033 50.77 70.75 50.81C70.79 50.85 70.81 50.9 70.81 50.96V51.65C70.81 51.6834 70.82 51.7067 70.84 51.72C70.8667 51.7334 70.8867 51.7267 70.9 51.7C71.3933 50.98 72.0533 50.62 72.88 50.62Z" fill="#252530"/>
<path d="M33.14 75.48C32.62 75.48 32.1667 75.3967 31.78 75.23C31.3933 75.0633 31.0933 74.83 30.88 74.53C30.6733 74.23 30.57 73.8767 30.57 73.47V73.22C30.57 73.1867 30.5833 73.1567 30.61 73.13C30.63 73.11 30.6567 73.1 30.69 73.1H31.58C31.6133 73.1 31.6433 73.11 31.67 73.13C31.69 73.1567 31.7 73.1867 31.7 73.22V73.41C31.7 73.7167 31.8367 73.97 32.11 74.17C32.3833 74.3767 32.7567 74.48 33.23 74.48C33.6367 74.48 33.9433 74.3933 34.15 74.22C34.3567 74.0467 34.46 73.8233 34.46 73.55C34.46 73.3633 34.4033 73.2033 34.29 73.07C34.1767 72.9433 34.0167 72.8267 33.81 72.72C33.5967 72.6133 33.28 72.48 32.86 72.32C32.3867 72.1467 32.0033 71.9833 31.71 71.83C31.4167 71.6767 31.1733 71.4667 30.98 71.2C30.78 70.94 30.68 70.6133 30.68 70.22C30.68 69.6333 30.8933 69.17 31.32 68.83C31.7467 68.49 32.3167 68.32 33.03 68.32C33.53 68.32 33.9733 68.4067 34.36 68.58C34.74 68.7533 35.0367 68.9967 35.25 69.31C35.4633 69.6167 35.57 69.9733 35.57 70.38V70.55C35.57 70.5833 35.5567 70.6133 35.53 70.64C35.51 70.66 35.4833 70.67 35.45 70.67H34.55C34.5167 70.67 34.49 70.66 34.47 70.64C34.4433 70.6133 34.43 70.5833 34.43 70.55V70.44C34.43 70.1267 34.3033 69.8633 34.05 69.65C33.79 69.43 33.4333 69.32 32.98 69.32C32.6133 69.32 32.33 69.3967 32.13 69.55C31.9233 69.7033 31.82 69.92 31.82 70.2C31.82 70.4 31.8733 70.5633 31.98 70.69C32.0867 70.8167 32.2467 70.93 32.46 71.03C32.6733 71.1367 33.0033 71.27 33.45 71.43C33.9233 71.61 34.3033 71.7733 34.59 71.92C34.87 72.0667 35.1133 72.27 35.32 72.53C35.52 72.7967 35.62 73.1267 35.62 73.52C35.62 74.12 35.3967 74.5967 34.95 74.95C34.51 75.3033 33.9067 75.48 33.14 75.48ZM39.6 68.39C40.02 68.39 40.39 68.4767 40.71 68.65C41.03 68.8233 41.2767 69.0667 41.45 69.38C41.63 69.7 41.72 70.0667 41.72 70.48C41.72 70.8867 41.63 71.2467 41.45 71.56C41.27 71.8733 41.0167 72.1133 40.69 72.28C40.3567 72.4533 39.9733 72.54 39.54 72.54H37.94C37.9067 72.54 37.89 72.5567 37.89 72.59V75.28C37.89 75.3133 37.88 75.34 37.86 75.36C37.8333 75.3867 37.8033 75.4 37.77 75.4H36.85C36.8167 75.4 36.79 75.3867 36.77 75.36C36.7433 75.34 36.73 75.3133 36.73 75.28V68.51C36.73 68.4767 36.7433 68.4467 36.77 68.42C36.79 68.4 36.8167 68.39 36.85 68.39H39.6ZM39.43 71.6C39.77 71.6 40.0433 71.5 40.25 71.3C40.4567 71.1 40.56 70.8367 40.56 70.51C40.56 70.1767 40.4567 69.9067 40.25 69.7C40.0433 69.4933 39.77 69.39 39.43 69.39H37.94C37.9067 69.39 37.89 69.4067 37.89 69.44V71.55C37.89 71.5833 37.9067 71.6 37.94 71.6H39.43ZM46.67 75.4C46.6033 75.4 46.5567 75.37 46.53 75.31L45.21 72.43C45.1967 72.4033 45.1767 72.39 45.15 72.39H43.95C43.9167 72.39 43.9 72.4067 43.9 72.44V75.28C43.9 75.3133 43.8867 75.34 43.86 75.36C43.84 75.3867 43.8133 75.4 43.78 75.4H42.86C42.8267 75.4 42.8 75.3867 42.78 75.36C42.7533 75.34 42.74 75.3133 42.74 75.28V68.52C42.74 68.4867 42.7533 68.46 42.78 68.44C42.8 68.4133 42.8267 68.4 42.86 68.4H45.61C46.0167 68.4 46.3767 68.4833 46.69 68.65C47.0033 68.8233 47.2467 69.0633 47.42 69.37C47.5933 69.6833 47.68 70.04 47.68 70.44C47.68 70.9 47.5633 71.29 47.33 71.61C47.09 71.9367 46.76 72.1633 46.34 72.29C46.3267 72.29 46.3167 72.2967 46.31 72.31C46.3033 72.3233 46.3033 72.3367 46.31 72.35L47.72 75.26C47.7333 75.2867 47.74 75.3067 47.74 75.32C47.74 75.3733 47.7033 75.4 47.63 75.4H46.67ZM43.95 69.4C43.9167 69.4 43.9 69.4167 43.9 69.45V71.44C43.9 71.4733 43.9167 71.49 43.95 71.49H45.45C45.77 71.49 46.0267 71.3933 46.22 71.2C46.42 71.0133 46.52 70.7633 46.52 70.45C46.52 70.1367 46.42 69.8833 46.22 69.69C46.0267 69.4967 45.77 69.4 45.45 69.4H43.95ZM48.99 75.4C48.9567 75.4 48.9267 75.3867 48.9 75.36C48.88 75.34 48.87 75.3133 48.87 75.28V68.52C48.87 68.4867 48.88 68.46 48.9 68.44C48.9267 68.4133 48.9567 68.4 48.99 68.4H49.91C49.9433 68.4 49.97 68.4133 49.99 68.44C50.0167 68.46 50.03 68.4867 50.03 68.52V75.28C50.03 75.3133 50.0167 75.34 49.99 75.36C49.97 75.3867 49.9433 75.4 49.91 75.4H48.99ZM55.56 68.52C55.56 68.4867 55.5733 68.46 55.6 68.44C55.62 68.4133 55.6467 68.4 55.68 68.4H56.6C56.6333 68.4 56.6633 68.4133 56.69 68.44C56.71 68.46 56.72 68.4867 56.72 68.52V75.28C56.72 75.3133 56.71 75.34 56.69 75.36C56.6633 75.3867 56.6333 75.4 56.6 75.4H55.71C55.6433 75.4 55.5967 75.3733 55.57 75.32L52.69 70.6C52.6767 70.58 52.6633 70.57 52.65 70.57C52.6367 70.5767 52.63 70.5933 52.63 70.62L52.65 75.28C52.65 75.3133 52.6367 75.34 52.61 75.36C52.59 75.3867 52.5633 75.4 52.53 75.4H51.61C51.5767 75.4 51.55 75.3867 51.53 75.36C51.5033 75.34 51.49 75.3133 51.49 75.28V68.52C51.49 68.4867 51.5033 68.46 51.53 68.44C51.55 68.4133 51.5767 68.4 51.61 68.4H52.5C52.5667 68.4 52.6133 68.4267 52.64 68.48L55.51 73.2C55.5233 73.22 55.5367 73.2267 55.55 73.22C55.5633 73.22 55.57 73.2067 55.57 73.18L55.56 68.52ZM60.52 75.48C60.02 75.48 59.58 75.3833 59.2 75.19C58.82 74.99 58.5267 74.71 58.32 74.35C58.1133 73.99 58.01 73.5767 58.01 73.11V70.69C58.01 70.2167 58.1133 69.8 58.32 69.44C58.5267 69.0867 58.82 68.81 59.2 68.61C59.58 68.4167 60.02 68.32 60.52 68.32C61.0133 68.32 61.45 68.4167 61.83 68.61C62.2033 68.8033 62.4933 69.0667 62.7 69.4C62.9067 69.7333 63.01 70.11 63.01 70.53V70.61C63.01 70.6433 63 70.67 62.98 70.69C62.9533 70.7167 62.9233 70.73 62.89 70.73H61.98C61.9467 70.73 61.92 70.7167 61.9 70.69C61.8733 70.67 61.86 70.6433 61.86 70.61V70.56C61.86 70.2 61.7367 69.9033 61.49 69.67C61.25 69.4367 60.9267 69.32 60.52 69.32C60.1133 69.32 59.7867 69.4433 59.54 69.69C59.2933 69.93 59.17 70.25 59.17 70.65V73.15C59.17 73.55 59.3 73.8733 59.56 74.12C59.82 74.36 60.1567 74.48 60.57 74.48C60.97 74.48 61.2867 74.3733 61.52 74.16C61.7467 73.9533 61.86 73.6667 61.86 73.3V72.68C61.86 72.6467 61.8433 72.63 61.81 72.63H60.58C60.5467 72.63 60.5167 72.6167 60.49 72.59C60.47 72.57 60.46 72.5433 60.46 72.51V71.77C60.46 71.7367 60.47 71.71 60.49 71.69C60.5167 71.6633 60.5467 71.65 60.58 71.65H62.89C62.9233 71.65 62.9533 71.6633 62.98 71.69C63 71.71 63.01 71.7367 63.01 71.77V73.05C63.01 73.8167 62.7867 74.4133 62.34 74.84C61.8867 75.2667 61.28 75.48 60.52 75.48Z" fill="white"/>
<path d="M34.03 93.46C34.01 93.48 34.0033 93.5 34.01 93.52C34.0233 93.54 34.0433 93.55 34.07 93.55H38C38.0467 93.55 38.0867 93.5667 38.12 93.6C38.16 93.6334 38.18 93.6734 38.18 93.72V95.13C38.18 95.1767 38.16 95.2167 38.12 95.25C38.0867 95.2834 38.0467 95.3 38 95.3H31.48C31.4267 95.3 31.3833 95.2834 31.35 95.25C31.3167 95.2167 31.3 95.1767 31.3 95.13V93.79C31.3 93.7034 31.33 93.63 31.39 93.57C31.8633 93.11 32.3467 92.6067 32.84 92.06C33.3333 91.5134 33.6433 91.1734 33.77 91.04C34.0367 90.72 34.31 90.4134 34.59 90.12C35.47 89.1467 35.91 88.4234 35.91 87.95C35.91 87.61 35.79 87.33 35.55 87.11C35.31 86.8967 34.9967 86.79 34.61 86.79C34.2233 86.79 33.91 86.8967 33.67 87.11C33.4233 87.33 33.3 87.62 33.3 87.98V88.34C33.3 88.3867 33.2833 88.4267 33.25 88.46C33.2167 88.4934 33.1767 88.51 33.13 88.51H31.42C31.3733 88.51 31.3333 88.4934 31.3 88.46C31.26 88.4267 31.24 88.3867 31.24 88.34V87.66C31.2733 87.14 31.44 86.6767 31.74 86.27C32.04 85.87 32.4367 85.5634 32.93 85.35C33.43 85.1367 33.99 85.03 34.61 85.03C35.2967 85.03 35.8933 85.16 36.4 85.42C36.9067 85.6734 37.2967 86.0167 37.57 86.45C37.85 86.89 37.99 87.3734 37.99 87.9C37.99 88.3067 37.8867 88.7234 37.68 89.15C37.48 89.5767 37.1767 90.0367 36.77 90.53C36.47 90.9034 36.1467 91.2767 35.8 91.65C35.4533 92.0167 34.9367 92.5467 34.25 93.24L34.03 93.46ZM42.89 95.46C41.8233 95.46 40.9833 95.1634 40.37 94.57C39.75 93.9767 39.44 93.1667 39.44 92.14V88.31C39.44 87.3034 39.75 86.5067 40.37 85.92C40.9833 85.3267 41.8233 85.03 42.89 85.03C43.95 85.03 44.7933 85.3267 45.42 85.92C46.04 86.5067 46.35 87.3034 46.35 88.31V92.14C46.35 93.1667 46.04 93.9767 45.42 94.57C44.7933 95.1634 43.95 95.46 42.89 95.46ZM42.89 93.71C43.3233 93.71 43.6667 93.5767 43.92 93.31C44.18 93.0434 44.31 92.6867 44.31 92.24V88.25C44.31 87.81 44.18 87.4567 43.92 87.19C43.6667 86.9234 43.3233 86.79 42.89 86.79C42.4633 86.79 42.1233 86.9234 41.87 87.19C41.61 87.4567 41.48 87.81 41.48 88.25V92.24C41.48 92.6867 41.61 93.0434 41.87 93.31C42.1233 93.5767 42.4633 93.71 42.89 93.71ZM50.41 93.46C50.39 93.48 50.3867 93.5 50.4 93.52C50.4067 93.54 50.4267 93.55 50.46 93.55H54.39C54.4367 93.55 54.4767 93.5667 54.51 93.6C54.5433 93.6334 54.56 93.6734 54.56 93.72V95.13C54.56 95.1767 54.5433 95.2167 54.51 95.25C54.4767 95.2834 54.4367 95.3 54.39 95.3H47.86C47.8133 95.3 47.7733 95.2834 47.74 95.25C47.7067 95.2167 47.69 95.1767 47.69 95.13V93.79C47.69 93.7034 47.7167 93.63 47.77 93.57C48.25 93.11 48.7333 92.6067 49.22 92.06C49.7133 91.5134 50.0233 91.1734 50.15 91.04C50.4233 90.72 50.7 90.4134 50.98 90.12C51.86 89.1467 52.3 88.4234 52.3 87.95C52.3 87.61 52.18 87.33 51.94 87.11C51.6933 86.8967 51.3767 86.79 50.99 86.79C50.6033 86.79 50.29 86.8967 50.05 87.11C49.81 87.33 49.69 87.62 49.69 87.98V88.34C49.69 88.3867 49.6733 88.4267 49.64 88.46C49.6067 88.4934 49.5633 88.51 49.51 88.51H47.8C47.7533 88.51 47.7133 88.4934 47.68 88.46C47.6467 88.4267 47.63 88.3867 47.63 88.34V87.66C47.6567 87.14 47.82 86.6767 48.12 86.27C48.42 85.87 48.82 85.5634 49.32 85.35C49.82 85.1367 50.3767 85.03 50.99 85.03C51.6767 85.03 52.2733 85.16 52.78 85.42C53.2933 85.6734 53.6867 86.0167 53.96 86.45C54.2333 86.89 54.37 87.3734 54.37 87.9C54.37 88.3067 54.27 88.7234 54.07 89.15C53.8633 89.5767 53.5567 90.0367 53.15 90.53C52.85 90.9034 52.5267 91.2767 52.18 91.65C51.8333 92.0167 51.3167 92.5467 50.63 93.24L50.41 93.46ZM61.87 90.46C62.0633 90.9 62.16 91.41 62.16 91.99C62.16 92.5167 62.0733 93 61.9 93.44C61.6667 94.06 61.2767 94.5434 60.73 94.89C60.1833 95.2434 59.5367 95.42 58.79 95.42C58.0567 95.42 57.4133 95.2367 56.86 94.87C56.3067 94.4967 55.9067 93.9967 55.66 93.37C55.5267 92.9967 55.45 92.59 55.43 92.15C55.43 92.0367 55.4867 91.98 55.6 91.98H57.32C57.4333 91.98 57.49 92.0367 57.49 92.15C57.53 92.47 57.5833 92.7067 57.65 92.86C57.7367 93.1134 57.88 93.31 58.08 93.45C58.2733 93.59 58.5067 93.66 58.78 93.66C59.32 93.66 59.6933 93.4234 59.9 92.95C60.0333 92.6634 60.1 92.3267 60.1 91.94C60.1 91.48 60.0267 91.1067 59.88 90.82C59.66 90.3667 59.29 90.14 58.77 90.14C58.6633 90.14 58.55 90.17 58.43 90.23C58.3167 90.2967 58.1767 90.3867 58.01 90.5C57.97 90.5267 57.9333 90.54 57.9 90.54C57.84 90.54 57.7967 90.5134 57.77 90.46L56.91 89.25C56.89 89.2234 56.88 89.19 56.88 89.15C56.88 89.09 56.9 89.0434 56.94 89.01L59.24 86.99C59.26 86.97 59.27 86.95 59.27 86.93C59.2633 86.91 59.2467 86.9 59.22 86.9H55.81C55.7633 86.9 55.72 86.8834 55.68 86.85C55.6467 86.8167 55.63 86.7767 55.63 86.73V85.32C55.63 85.2734 55.6467 85.2334 55.68 85.2C55.72 85.1667 55.7633 85.15 55.81 85.15H61.85C61.9033 85.15 61.9467 85.1667 61.98 85.2C62.0133 85.2334 62.03 85.2734 62.03 85.32V86.92C62.03 86.9934 61.9967 87.0667 61.93 87.14L60.03 88.88C60.01 88.9 60.0033 88.9167 60.01 88.93C60.01 88.95 60.03 88.96 60.07 88.96C60.91 89.1267 61.51 89.6267 61.87 90.46Z" fill="#252530"/>
</svg>
